<svg width="70" height="70" viewBox="0 0 70 70" fill="none" xmlns="http://www.w3.org/2000/svg">
<g clip-path="url(#clip0_361_72866)">
<path d="M56.8502 56.8857C53.4806 54.4847 47.5618 53.3392 43.4288 52.8508C56.3244 32.9473 55.5948 34.0848 55.6715 33.9315C59.4275 26.5044 59.0132 17.8563 54.5626 10.7969C50.186 3.85505 42.6616 -0.178561 34.4265 0.00600978C17.3654 0.390326 6.59715 18.6502 14.3259 33.9314C14.4023 34.0841 13.6353 32.8891 26.5686 52.8507C21.0204 53.5064 10.5234 55.5691 10.5234 61.1885C10.5234 70.0612 37.7172 72.0791 51.4453 67.9361C53.7204 67.2498 55.5375 66.4279 56.8502 65.4914C60.3509 62.9956 60.3509 59.3836 56.8502 56.8857ZM17.9382 31.9844C11.6406 19.3688 20.5624 4.42189 34.5195 4.10662C49.0815 3.78027 58.4875 19.1045 52.0591 31.9844L38.7909 52.4665L36.1875 56.4836L36.0767 56.6558C35.7336 57.1849 35.2086 57.2424 34.9979 57.2424C34.7887 57.2424 34.2637 57.1849 33.9204 56.6558L33.8096 56.4836C30.4361 51.2777 33.3363 55.7544 17.9382 31.9844ZM50.2612 64.0093C41.8845 66.5384 28.1129 66.5388 19.7349 64.0093C15.5141 62.7363 14.6253 61.3992 14.6253 61.1885C14.6253 60.3941 18.7096 57.5911 29.0734 56.7187L30.4777 58.8859C32.6004 62.1645 37.3995 62.1605 39.5196 58.8859L40.9238 56.7187C44.4323 57.014 47.6345 57.576 50.261 58.3677C54.4818 59.642 55.3706 60.9778 55.3706 61.1885C55.3706 61.3992 54.4819 62.7363 50.2612 64.0093Z" fill="#FACD01"/>
<path d="M45.6361 33.55C45.641 33.5046 47.0731 20.3828 47.0731 20.3828C47.2504 18.5375 45.7975 16.9332 43.9406 16.9332H41.3784V12.2503C41.3784 10.0572 39.5941 8.27284 37.3996 8.27284H32.5949C30.4004 8.27284 28.6161 10.0572 28.6161 12.2503V16.9333H26.0538C24.084 16.9333 22.6844 18.7258 22.9254 20.4131L24.3775 33.5542C24.5676 35.2756 26.0169 36.5732 27.7493 36.5732H42.2646C43.998 36.5731 45.4474 35.2727 45.6361 33.55ZM32.7179 12.3747H37.2765V16.9319H32.7179V12.3747ZM28.3849 32.4711L27.1201 21.035H42.8754L41.6271 32.4711H28.3849Z" fill="#FACD01"/>
</g>
<defs>
<clipPath id="clip0_361_72866">
<rect width="70" height="70" fill="white"/>
</clipPath>
</defs>
</svg>
