<svg width="162" height="18" viewBox="0 0 162 18" fill="none" xmlns="http://www.w3.org/2000/svg">
<g clip-path="url(#clip0_133_542)">
<path d="M160.823 0.540053H158.779L158.481 0.874555V10.6865L148.037 0.242676L147.74 0.540053V16.3734L148.037 16.6708H150.082L150.416 16.3734V6.41259L160.674 16.6708H161.157V0.874555L160.823 0.540053ZM109.234 0.874555V3.25319H111.91V16.6708H114.587V3.25282H116.965L117.3 2.91832V0.540053H109.532L109.234 0.874555ZM119.084 0.874555V3.25319H121.76V16.6708H124.436V3.25282H126.815L127.112 2.91832V0.540053H119.381L119.084 0.874555ZM2.67602 0.540053H0.297377L0 0.874555V16.6708H8.06517V13.9948H2.67639L2.67602 0.540053ZM17.9146 0.540053C16.3195 0.540127 14.7602 1.0132 13.4339 1.89946C12.1077 2.78572 11.074 4.04535 10.4636 5.51908C9.85325 6.9928 9.69359 8.61443 10.0048 10.1789C10.3161 11.7434 11.0842 13.1804 12.2122 14.3083C13.3401 15.4362 14.7772 16.2043 16.3417 16.5155C17.9062 16.8266 19.5278 16.6669 21.0015 16.0564C22.4752 15.446 23.7348 14.4123 24.621 13.086C25.5072 11.7597 25.9802 10.2004 25.9802 8.60523C25.9802 7.54606 25.7715 6.49727 25.3662 5.51873C24.9609 4.54019 24.3668 3.65108 23.6178 2.90215C22.8688 2.15323 21.9797 1.55916 21.0011 1.15387C20.0226 0.748579 18.9738 0.540003 17.9146 0.540053ZM17.9146 13.9576C16.8456 13.965 15.7986 13.6542 14.9067 13.0649C14.0148 12.4756 13.3183 11.6343 12.9058 10.6481C12.4933 9.66189 12.3835 8.57527 12.5902 7.52644C12.7969 6.47761 13.3109 5.51396 14.0668 4.75803C14.8226 4.0021 15.7863 3.48804 16.8351 3.28125C17.8839 3.07445 18.9705 3.18424 19.9568 3.59667C20.943 4.0091 21.7843 4.70553 22.3737 5.59739C22.9631 6.48924 23.2739 7.53624 23.2666 8.60523C23.2666 10.0247 22.7028 11.386 21.6991 12.3897C20.6954 13.3934 19.3341 13.9573 17.9146 13.9573V13.9576ZM136.998 0.539678C135.402 0.532328 133.839 0.999078 132.508 1.88079C131.176 2.76251 130.137 4.01951 129.521 5.49255C128.905 6.96558 128.74 8.58835 129.047 10.1553C129.354 11.7222 130.119 13.1627 131.245 14.2944C132.372 15.4261 133.808 16.1979 135.374 16.5122C136.939 16.8264 138.563 16.669 140.039 16.0597C141.515 15.4504 142.777 14.4168 143.664 13.0897C144.552 11.7627 145.026 10.2019 145.026 8.60523C145.027 6.47263 144.182 4.42682 142.677 2.91537C141.173 1.40392 139.131 0.549869 136.998 0.540053V0.539678ZM136.998 13.9573C135.929 13.9646 134.882 13.6538 133.991 13.0645C133.099 12.4752 132.402 11.6339 131.99 10.6476C131.577 9.66141 131.467 8.57477 131.674 7.52593C131.881 6.47709 132.395 5.51343 133.151 4.75752C133.907 4.0016 134.87 3.48758 135.919 3.28082C136.968 3.07407 138.055 3.18392 139.041 3.5964C140.027 4.00889 140.868 4.70538 141.458 5.59728C142.047 6.48919 142.358 7.53623 142.35 8.60523C142.35 10.0247 141.787 11.386 140.783 12.3897C139.779 13.3934 138.418 13.9573 136.998 13.9573ZM37.9105 0.539678L37.6131 0.837054V11.2809C37.6131 11.9906 37.3312 12.6712 36.8293 13.1731C36.3275 13.6749 35.6468 13.9569 34.9371 13.9569C34.2239 13.957 33.5394 13.6762 33.0316 13.1754C32.5239 12.6746 32.2337 11.994 32.2239 11.2809V0.837429L31.9266 0.540053H29.8453L29.5479 0.837429V11.2812C29.4864 12.0239 29.5796 12.7712 29.8216 13.476C30.0636 14.1808 30.4492 14.8278 30.9539 15.376C31.4586 15.9242 32.0716 16.3619 32.754 16.6612C33.4364 16.9605 34.1735 17.1151 34.9187 17.1151C35.6639 17.1151 36.401 16.9605 37.0834 16.6612C37.7659 16.3619 38.3788 15.9242 38.8835 15.376C39.3882 14.8278 39.7738 14.1808 40.0158 13.476C40.2578 12.7712 40.351 12.0239 40.2895 11.2812V0.837429L39.9921 0.540053L37.9105 0.539678ZM45.6415 0.87418V16.6704H48.0202L48.3547 16.373V0.540053H45.976L45.6415 0.87418ZM94.3307 0.540053L93.9958 0.837429V11.2812C93.9958 11.991 93.7139 12.6716 93.212 13.1735C92.7102 13.6753 92.0295 13.9573 91.3198 13.9573C90.6101 13.9573 89.9294 13.6753 89.4276 13.1735C88.9257 12.6716 88.6438 11.991 88.6438 11.2812V0.837429L88.3093 0.540053H86.2655L85.9678 0.837429V11.2812C85.9063 12.0239 85.9995 12.7712 86.2415 13.476C86.4835 14.1808 86.869 14.8278 87.3737 15.376C87.8785 15.9242 88.4914 16.3619 89.1738 16.6612C89.8563 16.9605 90.5934 17.1151 91.3385 17.1151C92.0837 17.1151 92.8208 16.9605 93.5033 16.6612C94.1857 16.3619 94.7986 15.9242 95.3034 15.376C95.8081 14.8278 96.1936 14.1808 96.4356 13.476C96.6776 12.7712 96.7708 12.0239 96.7093 11.2812V0.837429L96.3748 0.540053H94.3307ZM102.061 0.874555V16.6708H104.44L104.737 16.3734V0.540053H102.359L102.061 0.874555ZM58.4269 7.37897C57.8141 7.05044 57.2187 6.69059 56.643 6.30084C56.0482 5.89209 55.7137 5.44583 55.7508 4.74008C55.7788 4.27307 55.9819 3.83379 56.3195 3.50993C56.6571 3.18606 57.1045 3.00145 57.5722 2.99294C57.9491 2.99292 58.3186 3.09707 58.6399 3.29388C58.9613 3.4907 59.222 3.77251 59.3932 4.1082H59.8766L61.4374 2.54706C60.9973 1.93118 60.4176 1.42824 59.7458 1.0794C59.074 0.73056 58.3292 0.545737 57.5722 0.540053C56.3874 0.500922 55.2318 0.912608 54.3386 1.69206C53.8781 2.11287 53.5087 2.62347 53.253 3.19242C52.9973 3.76136 52.8607 4.37662 52.8517 5.00033C52.8517 6.70996 53.781 8.12222 54.6731 8.60523L57.5347 10.2406C57.9562 10.4203 58.3018 10.7413 58.5122 11.1483C58.7225 11.5554 58.7843 12.023 58.6871 12.4707C58.5628 12.9843 58.2479 13.4313 57.8062 13.7212C57.3645 14.0111 56.829 14.1222 56.3085 14.0319C55.6395 13.9576 54.9705 13.4371 54.636 13.2144L53.9298 12.6193L51.9228 14.7005C52.7324 15.7024 53.8601 16.3976 55.119 16.6708C55.6336 16.7686 56.1562 16.8183 56.6801 16.8193C58.0407 16.7998 59.3396 16.2481 60.2983 15.2824C61.257 14.3168 61.7993 13.014 61.809 11.6532C61.809 8.93973 59.3932 7.89947 58.4269 7.37897ZM76.2672 10.3895L72.2161 0.540053H69.2798L75.9698 16.6708L76.2672 16.9678L76.6017 16.6708L83.2546 0.540053H80.3559L76.2672 10.3895Z" fill="white"/>
</g>
<defs>
<clipPath id="clip0_133_542">
<rect width="162.001" height="16.8751" fill="white" transform="translate(0 0.242676)"/>
</clipPath>
</defs>
</svg>
