<svg width="121" height="19" viewBox="0 0 121 19" fill="none" xmlns="http://www.w3.org/2000/svg">
<g clip-path="url(#clip0_516_8184)">
<path fill-rule="evenodd" clip-rule="evenodd" d="M17.4291 13.8577C17.4291 13.9072 17.3795 13.9567 17.3795 14.0062C15.8398 16.9269 12.7605 18.9566 9.23412 18.9566C4.16811 18.9566 -0.00390625 14.6992 -0.00390625 9.50126C-0.00390625 4.30329 4.16811 0.0458984 9.23412 0.0458984C12.7605 0.0458984 15.8398 2.07559 17.3795 5.09536C17.4291 5.14487 17.4291 5.19437 17.4788 5.24387C17.4788 5.24387 14.5485 7.37257 14.4988 7.37257C14.4988 7.32306 14.4491 7.27356 14.4491 7.22405C13.6048 5.09536 11.5685 3.70923 9.23412 3.70923C6.10511 3.75874 3.5721 6.28347 3.5721 9.50126C3.5721 12.7191 6.15478 15.2933 9.23412 15.2933C11.4691 15.2933 13.4558 13.9072 14.3498 11.927C14.3995 11.8775 14.3995 11.7785 14.4491 11.729L17.4291 13.8577Z" fill="#303030"/>
<path fill-rule="evenodd" clip-rule="evenodd" d="M21.2568 0.170898H24.8328V6.8045H34.1702V0.170898H37.7462V18.5866H34.1702V10.5173H24.8328V18.5866H21.2568V0.170898Z" fill="#303030"/>
<path fill-rule="evenodd" clip-rule="evenodd" d="M88.043 18.5866V0.170898H100.956V3.88374H91.619V7.54707H100.211V11.2104H91.619V14.8737H102.248V18.5371H88.043V18.5866Z" fill="#303030"/>
<path fill-rule="evenodd" clip-rule="evenodd" d="M107.326 18.5868V0.171143H110.952V14.9235H120.985V18.5868H107.326Z" fill="#303030"/>
<path fill-rule="evenodd" clip-rule="evenodd" d="M68.5866 18.5866H68.4873H64.9609V0.170898H65.2093H69.9773L77.8743 11.2599V0.170898H81.4503V18.5866H78.5696L68.5866 4.72532V18.5866Z" fill="#303030"/>
<path fill-rule="evenodd" clip-rule="evenodd" d="M51.3804 3.88374L48.2017 11.2599H54.6584L51.3804 3.88374ZM46.6124 14.9232L44.9237 18.5866H40.6523L48.8474 0.170898H53.8637L62.1084 18.5866H57.8371L56.1484 14.9232H46.6124Z" fill="#303030"/>
</g>
<defs>
<clipPath id="clip0_516_8184">
<rect width="121" height="18.9567" fill="white"/>
</clipPath>
</defs>
</svg>
