<svg width="146" height="24" viewBox="0 0 146 24" fill="none" xmlns="http://www.w3.org/2000/svg">
<g clip-path="url(#clip0_133_438)">
<path d="M12.2128 0.0692148C15.3265 0.0692148 18.2327 1.07283 20.5507 2.76859L20.5853 2.8032C20.8275 2.97624 21.9 3.84142 21.9 4.63739V8.65185C20.8275 6.02169 18.9592 3.80681 16.572 2.3187C15.2573 1.62655 13.5621 1.17665 11.9706 1.17665C9.54881 1.17665 7.05782 2.69938 5.95071 4.91425L5.81232 5.1219C4.70521 7.05991 4.08246 9.30939 4.08246 11.7319C4.08246 14.189 4.809 16.6808 5.98531 18.5496L6.0891 18.7572C7.23081 20.7991 9.44502 22.1487 11.936 22.1487C13.0777 22.1487 14.1502 21.8719 15.0844 21.3528C15.0844 21.3528 17.0218 20.3492 17.5408 19.7954C17.9559 19.3801 18.1981 18.8264 18.1981 18.2035L18.1635 15.0888C18.1635 14.0852 17.6791 13.22 16.918 12.7009H23.1455C22.419 13.22 21.9 14.1198 21.9 15.0888V18.4111C21.9 18.9303 21.727 19.4148 21.4502 19.7954L21.1389 20.1415C18.7171 22.1141 15.6033 23.3254 12.2474 23.3254C11.4517 23.3946 10.2754 23.187 10.2754 23.187C4.49763 22.5986 0 17.6844 0 11.7319C0 6.16012 3.90948 1.48812 9.16825 0.380681H9.23744C9.61801 0.311467 11.1057 0.0692148 12.2128 0.0692148ZM117.596 0.0346074C120.709 0.0346074 123.616 1.03822 125.934 2.73399C125.934 2.73399 127.318 3.70299 127.318 4.60279V8.61724C126.245 5.98708 124.377 3.77221 121.99 2.28409C120.675 1.59194 118.98 1.14204 117.388 1.14204C114.966 1.14204 112.475 2.66477 111.368 4.87964L111.23 5.08729C110.123 7.0253 109.5 9.27479 109.5 11.6973C109.5 14.0852 110.123 16.3347 111.23 18.3073L111.368 18.515C112.441 20.7644 114.932 22.1487 117.354 22.1487C118.945 22.1487 120.64 21.6642 121.955 20.9721C123.546 20.0723 126.245 18.5496 127.836 14.5697L127.283 18.7918C127.283 19.6916 125.864 20.5568 125.864 20.5568C123.546 22.2872 120.709 23.2562 117.561 23.2562C116.281 23.2562 114.517 22.9447 114.517 22.9447C109.258 21.8373 105.348 17.2691 105.348 11.6973C105.348 6.12551 109.258 1.45351 114.517 0.346074H114.551C114.863 0.276859 116.419 0.0346074 117.596 0.0346074ZM146 1.00361C145.273 1.52273 144.789 2.38791 144.789 3.35692V20.9721C144.789 21.9065 145.239 22.7717 145.965 23.2908H140.049C140.741 22.7717 141.226 21.9411 141.226 20.9721V3.35692C141.226 2.38791 140.741 1.52273 140.015 1.00361H146ZM41.6204 1.00361C40.8938 1.52273 40.3749 2.38791 40.3749 3.35692V16.5077C40.5825 18.6188 42.0355 20.4184 43.973 21.1105L44.0768 21.1451C45.1493 21.5604 46.3256 21.8027 47.5711 21.8027C49.5431 21.8027 51.6536 21.1105 52.8299 20.1761L52.8645 20.1415C53.937 19.2417 54.6289 17.9612 54.8019 16.5077V16.4731V3.32231C54.8019 2.3533 54.3175 1.52273 53.591 1.00361H57.1199C56.3934 1.52273 55.909 2.3533 55.909 3.32231V16.5423C55.736 18.9649 54.2137 21.0067 52.1379 21.9411H52.1033C50.3735 22.8063 48.4014 23.2562 46.3602 23.2562C44.319 23.2562 42.4161 22.7717 40.6863 21.9411H40.6517C38.5412 21.0067 37.0536 18.9649 36.846 16.5769V3.42613C36.846 2.45713 36.3616 1.55733 35.6351 1.03822H41.6204V1.00361ZM81.4417 0C84.5554 0 87.4616 1.00361 89.7796 2.69938C89.7796 2.69938 91.1635 3.66839 91.1635 4.56818V8.58264C90.091 5.95247 88.2227 3.7376 85.8355 2.24948C84.5209 1.55733 82.8256 1.10744 81.2341 1.10744C78.8123 1.10744 76.3213 2.63016 75.2142 4.84504L75.0758 5.05268C73.9687 6.9907 73.346 9.24018 73.346 11.6627C73.346 14.0852 73.9687 16.3001 75.0758 18.2727L75.2142 18.4804C76.3213 20.6952 78.8123 22.0795 81.2341 22.0795C82.8256 22.0795 84.5209 21.595 85.8355 20.9029C87.3924 20.0031 90.1256 18.4804 91.7171 14.5005L91.1635 18.7226C91.1635 19.6224 89.745 20.4876 89.745 20.4876C87.427 22.218 84.59 23.187 81.4417 23.187C80.3 23.187 78.7085 22.9101 78.4317 22.8755H78.3972C73.1384 21.7681 69.2289 17.1999 69.2289 11.6281C69.2289 6.0563 73.1384 1.3843 78.3972 0.276859C78.3972 0.311467 80.1962 0 81.4417 0Z" fill="white"/>
</g>
<defs>
<clipPath id="clip0_133_438">
<rect width="146" height="23.36" fill="white"/>
</clipPath>
</defs>
</svg>
