<svg width="162" height="18" viewBox="0 0 162 18" fill="none" xmlns="http://www.w3.org/2000/svg">
<g clip-path="url(#clip0_516_8200)">
<path d="M160.823 0.539564H158.779L158.481 0.874066V10.686L148.037 0.242188L147.74 0.539564V16.3729L148.037 16.6703H150.082L150.416 16.3729V6.4121L160.674 16.6703H161.157V0.874066L160.823 0.539564ZM109.234 0.874066V3.25271H111.91V16.6703H114.587V3.25233H116.965L117.3 2.91783V0.539564H109.532L109.234 0.874066ZM119.084 0.874066V3.25271H121.76V16.6703H124.436V3.25233H126.815L127.112 2.91783V0.539564H119.381L119.084 0.874066ZM2.67602 0.539564H0.297377L0 0.874066V16.6703H8.06517V13.9943H2.67639L2.67602 0.539564ZM17.9146 0.539564C16.3195 0.539638 14.7602 1.01272 13.4339 1.89897C12.1077 2.78523 11.074 4.04487 10.4636 5.51859C9.85325 6.99231 9.69359 8.61394 10.0048 10.1784C10.3161 11.7429 11.0842 13.1799 12.2122 14.3078C13.3401 15.4357 14.7772 16.2038 16.3417 16.515C17.9062 16.8261 19.5278 16.6664 21.0015 16.056C22.4752 15.4455 23.7348 14.4118 24.621 13.0855C25.5072 11.7592 25.9802 10.1999 25.9802 8.60474C25.9802 7.54557 25.7715 6.49678 25.3662 5.51824C24.9609 4.53971 24.3668 3.65059 23.6178 2.90167C22.8688 2.15274 21.9797 1.55867 21.0011 1.15338C20.0226 0.748091 18.9738 0.539515 17.9146 0.539564ZM17.9146 13.9571C16.8456 13.9645 15.7986 13.6537 14.9067 13.0644C14.0148 12.4751 13.3183 11.6338 12.9058 10.6476C12.4933 9.6614 12.3835 8.57479 12.5902 7.52596C12.7969 6.47712 13.3109 5.51347 14.0668 4.75754C14.8226 4.00161 15.7863 3.48756 16.8351 3.28076C17.8839 3.07396 18.9705 3.18375 19.9568 3.59618C20.943 4.00861 21.7843 4.70504 22.3737 5.5969C22.9631 6.48876 23.2739 7.53575 23.2666 8.60474C23.2666 10.0242 22.7028 11.3855 21.6991 12.3892C20.6954 13.3929 19.3341 13.9568 17.9146 13.9568V13.9571ZM136.998 0.539189C135.402 0.531839 133.839 0.99859 132.508 1.88031C131.176 2.76202 130.137 4.01902 129.521 5.49206C128.905 6.96509 128.74 8.58786 129.047 10.1548C129.354 11.7217 130.119 13.1622 131.245 14.2939C132.372 15.4256 133.808 16.1974 135.374 16.5117C136.939 16.826 138.563 16.6685 140.039 16.0592C141.515 15.4499 142.777 14.4163 143.664 13.0892C144.552 11.7622 145.026 10.2014 145.026 8.60474C145.027 6.47214 144.182 4.42634 142.677 2.91488C141.173 1.40343 139.131 0.549381 136.998 0.539564V0.539189ZM136.998 13.9568C135.929 13.9641 134.882 13.6534 133.991 13.064C133.099 12.4747 132.402 11.6334 131.99 10.6472C131.577 9.66092 131.467 8.57428 131.674 7.52544C131.881 6.4766 132.395 5.51295 133.151 4.75703C133.907 4.00111 134.87 3.48709 135.919 3.28034C136.968 3.07358 138.055 3.18343 139.041 3.59592C140.027 4.0084 140.868 4.70489 141.458 5.5968C142.047 6.48871 142.358 7.53574 142.35 8.60474C142.35 10.0242 141.787 11.3855 140.783 12.3892C139.779 13.3929 138.418 13.9568 136.998 13.9568ZM37.9105 0.539189L37.6131 0.836566V11.2804C37.6131 11.9901 37.3312 12.6708 36.8293 13.1726C36.3275 13.6745 35.6468 13.9564 34.9371 13.9564C34.2239 13.9565 33.5394 13.6757 33.0316 13.1749C32.5239 12.6741 32.2337 11.9935 32.2239 11.2804V0.836941L31.9266 0.539564H29.8453L29.5479 0.836941V11.2808C29.4864 12.0234 29.5796 12.7707 29.8216 13.4755C30.0636 14.1803 30.4492 14.8273 30.9539 15.3755C31.4586 15.9238 32.0716 16.3614 32.754 16.6607C33.4364 16.96 34.1735 17.1146 34.9187 17.1146C35.6639 17.1146 36.401 16.96 37.0834 16.6607C37.7659 16.3614 38.3788 15.9238 38.8835 15.3755C39.3882 14.8273 39.7738 14.1803 40.0158 13.4755C40.2578 12.7707 40.351 12.0234 40.2895 11.2808V0.836941L39.9921 0.539564L37.9105 0.539189ZM45.6415 0.873691V16.6699H48.0202L48.3547 16.3725V0.539564H45.976L45.6415 0.873691ZM94.3307 0.539564L93.9958 0.836941V11.2808C93.9958 11.9905 93.7139 12.6711 93.212 13.173C92.7102 13.6748 92.0295 13.9568 91.3198 13.9568C90.6101 13.9568 89.9294 13.6748 89.4276 13.173C88.9257 12.6711 88.6438 11.9905 88.6438 11.2808V0.836941L88.3093 0.539564H86.2655L85.9678 0.836941V11.2808C85.9063 12.0234 85.9995 12.7707 86.2415 13.4755C86.4835 14.1803 86.869 14.8273 87.3737 15.3755C87.8785 15.9238 88.4914 16.3614 89.1738 16.6607C89.8563 16.96 90.5934 17.1146 91.3385 17.1146C92.0837 17.1146 92.8208 16.96 93.5033 16.6607C94.1857 16.3614 94.7986 15.9238 95.3034 15.3755C95.8081 14.8273 96.1936 14.1803 96.4356 13.4755C96.6776 12.7707 96.7708 12.0234 96.7093 11.2808V0.836941L96.3748 0.539564H94.3307ZM102.061 0.874066V16.6703H104.44L104.737 16.3729V0.539564H102.359L102.061 0.874066ZM58.4269 7.37848C57.8141 7.04996 57.2187 6.6901 56.643 6.30035C56.0482 5.8916 55.7137 5.44534 55.7508 4.73959C55.7788 4.27258 55.9819 3.8333 56.3195 3.50944C56.6571 3.18558 57.1045 3.00096 57.5722 2.99245C57.9491 2.99243 58.3186 3.09658 58.6399 3.2934C58.9613 3.49021 59.222 3.77203 59.3932 4.10771H59.8766L61.4374 2.54658C60.9973 1.93069 60.4176 1.42775 59.7458 1.07891C59.074 0.730072 58.3292 0.545249 57.5722 0.539564C56.3874 0.500434 55.2318 0.91212 54.3386 1.69157C53.8781 2.11238 53.5087 2.62298 53.253 3.19193C52.9973 3.76087 52.8607 4.37614 52.8517 4.99984C52.8517 6.70948 53.781 8.12173 54.6731 8.60474L57.5347 10.2401C57.9562 10.4198 58.3018 10.7408 58.5122 11.1479C58.7225 11.5549 58.7843 12.0225 58.6871 12.4703C58.5628 12.9838 58.2479 13.4308 57.8062 13.7207C57.3645 14.0107 56.829 14.1217 56.3085 14.0314C55.6395 13.9571 54.9705 13.4366 54.636 13.2139L53.9298 12.6188L51.9228 14.7C52.7324 15.702 53.8601 16.3971 55.119 16.6703C55.6336 16.7681 56.1562 16.8179 56.6801 16.8188C58.0407 16.7993 59.3396 16.2476 60.2983 15.2819C61.257 14.3163 61.7993 13.0135 61.809 11.6528C61.809 8.93924 59.3932 7.89898 58.4269 7.37848ZM76.2672 10.389L72.2161 0.539564H69.2798L75.9698 16.6703L76.2672 16.9673L76.6017 16.6703L83.2546 0.539564H80.3559L76.2672 10.389Z" fill="#303030"/>
</g>
<defs>
<clipPath id="clip0_516_8200">
<rect width="162.001" height="16.8751" fill="white" transform="translate(0 0.242188)"/>
</clipPath>
</defs>
</svg>
