<svg width="48" height="48" viewBox="0 0 48 48" fill="none" xmlns="http://www.w3.org/2000/svg">
<path fill-rule="evenodd" clip-rule="evenodd" d="M1 11.7143C1 9.13076 3.05588 7 5.63636 7H38.3636C40.9442 7 43 9.13076 43 11.7143V22C43 22.5522 42.5522 23 42 23C41.4478 23 41 22.5522 41 22V11.7143C41 10.1951 39.7998 9 38.3636 9H5.63636C4.20022 9 3 10.1951 3 11.7143V30.2858C3 31.8048 4.20022 33 5.63636 33H20C20.5522 33 21 33.4478 21 34C21 34.5522 20.5522 35 20 35H5.63636C3.05588 35 1 32.8692 1 30.2858V11.7143Z" fill="white"/>
<path fill-rule="evenodd" clip-rule="evenodd" d="M1 14C1 13.4477 1.44772 13 2 13H42C42.5522 13 43 13.4477 43 14C43 14.5523 42.5522 15 42 15H2C1.44772 15 1 14.5523 1 14Z" fill="white"/>
<path fill-rule="evenodd" clip-rule="evenodd" d="M5 24C5 23.4478 5.44772 23 6 23H10C10.5523 23 11 23.4478 11 24C11 24.5522 10.5523 25 10 25H6C5.44772 25 5 24.5522 5 24Z" fill="white"/>
<path fill-rule="evenodd" clip-rule="evenodd" d="M5 29C5 28.4478 5.44772 28 6 28H14C14.5523 28 15 28.4478 15 29C15 29.5522 14.5523 30 14 30H6C5.44772 30 5 29.5522 5 29Z" fill="white"/>
<path fill-rule="evenodd" clip-rule="evenodd" d="M36 27C31.0294 27 27 31.0294 27 36C27 40.9706 31.0294 45 36 45C40.9706 45 45 40.9706 45 36C45 31.0294 40.9706 27 36 27ZM25 36C25 29.9248 29.9248 25 36 25C42.0752 25 47 29.9248 47 36C47 42.0752 42.0752 47 36 47C29.9248 47 25 42.0752 25 36Z" fill="white"/>
<path fill-rule="evenodd" clip-rule="evenodd" d="M39.2928 34.2928C39.6834 33.9024 40.3166 33.9024 40.7072 34.2928C41.0976 34.6834 41.0976 35.3166 40.7072 35.7072L36.7072 39.7072C36.3166 40.0976 35.6834 40.0976 35.2928 39.7072L32.2928 36.7072C31.9024 36.3166 31.9024 35.6834 32.2928 35.2928C32.6834 34.9024 33.3166 34.9024 33.7072 35.2928L36 37.5858L39.2928 34.2928Z" fill="white"/>
</svg>
