<svg width="24" height="24" viewBox="0 0 24 24" fill="none" xmlns="http://www.w3.org/2000/svg">
<path d="M9.83561 19.378L9.63355 19.0338C8.11804 16.4517 4.0865 10.9663 4.04598 10.9112L3.92773 10.7505L5.44407 9.25223L9.7842 12.2828C12.5044 8.76734 15.0384 6.34791 16.6961 4.92997C18.5274 3.36356 19.6869 2.66257 19.7351 2.63349L19.7899 2.60059H22.4622L22.0097 3.00369C16.2949 8.09377 10.0951 18.9224 10.0331 19.0313L9.83561 19.378Z" fill="#ED907A"/>
<path d="M9.83586 5.51742C10.0386 5.51742 10.203 5.35306 10.203 5.15031C10.203 4.94756 10.0386 4.7832 9.83586 4.7832C9.63311 4.7832 9.46875 4.94756 9.46875 5.15031C9.46875 5.35306 9.63311 5.51742 9.83586 5.51742Z" fill="#828282"/>
<path d="M9.83586 21.3983C10.0386 21.3983 10.203 21.2339 10.203 21.0312C10.203 20.8284 10.0386 20.6641 9.83586 20.6641C9.63311 20.6641 9.46875 20.8284 9.46875 21.0312C9.46875 21.2339 9.63311 21.3983 9.83586 21.3983Z" fill="#828282"/>
<path d="M1.90422 13.4581C2.10697 13.4581 2.27132 13.2937 2.27132 13.091C2.27132 12.8882 2.10697 12.7239 1.90422 12.7239C1.70147 12.7239 1.53711 12.8882 1.53711 13.091C1.53711 13.2937 1.70147 13.4581 1.90422 13.4581Z" fill="#828282"/>
<path d="M17.7675 13.4578C17.9702 13.4578 18.1346 13.2935 18.1346 13.0907C18.1346 12.888 17.9702 12.7236 17.7675 12.7236C17.5648 12.7236 17.4004 12.888 17.4004 13.0907C17.4004 13.2935 17.5648 13.4578 17.7675 13.4578Z" fill="#828282"/>
<path d="M4.22062 19.0721C4.42337 19.0721 4.58773 18.9077 4.58773 18.705C4.58773 18.5022 4.42337 18.3379 4.22062 18.3379C4.01788 18.3379 3.85352 18.5022 3.85352 18.705C3.85352 18.9077 4.01788 19.0721 4.22062 19.0721Z" fill="#828282"/>
<path d="M4.22844 7.84945C4.43118 7.84945 4.59554 7.68509 4.59554 7.48234C4.59554 7.27959 4.43118 7.11523 4.22844 7.11523C4.02569 7.11523 3.86133 7.27959 3.86133 7.48234C3.86133 7.68509 4.02569 7.84945 4.22844 7.84945Z" fill="#828282"/>
<path d="M15.4452 19.0662C15.648 19.0662 15.8123 18.9019 15.8123 18.6991C15.8123 18.4964 15.648 18.332 15.4452 18.332C15.2425 18.332 15.0781 18.4964 15.0781 18.6991C15.0781 18.9019 15.2425 19.0662 15.4452 19.0662Z" fill="#828282"/>
<path d="M2.9589 9.48812C3.16165 9.48812 3.32601 9.32376 3.32601 9.12101C3.32601 8.91827 3.16165 8.75391 2.9589 8.75391C2.75616 8.75391 2.5918 8.91827 2.5918 9.12101C2.5918 9.32376 2.75616 9.48812 2.9589 9.48812Z" fill="#828282"/>
<path d="M16.7128 17.4286C16.9156 17.4286 17.0799 17.2642 17.0799 17.0614C17.0799 16.8587 16.9156 16.6943 16.7128 16.6943C16.5101 16.6943 16.3457 16.8587 16.3457 17.0614C16.3457 17.2642 16.5101 17.4286 16.7128 17.4286Z" fill="#828282"/>
<path d="M5.87101 20.328C6.07376 20.328 6.23812 20.1636 6.23812 19.9609C6.23812 19.7581 6.07376 19.5938 5.87101 19.5938C5.66827 19.5938 5.50391 19.7581 5.50391 19.9609C5.50391 20.1636 5.66827 20.328 5.87101 20.328Z" fill="#828282"/>
<path d="M7.78117 5.78793C7.98392 5.78793 8.14828 5.62357 8.14828 5.42082C8.14828 5.21807 7.98392 5.05371 7.78117 5.05371C7.57842 5.05371 7.41406 5.21807 7.41406 5.42082C7.41406 5.62357 7.57842 5.78793 7.78117 5.78793Z" fill="#828282"/>
<path d="M11.8905 21.1278C12.0933 21.1278 12.2577 20.9634 12.2577 20.7607C12.2577 20.5579 12.0933 20.3936 11.8905 20.3936C11.6878 20.3936 11.5234 20.5579 11.5234 20.7607C11.5234 20.9634 11.6878 21.1278 11.8905 21.1278Z" fill="#828282"/>
<path d="M2.17375 15.5116C2.3765 15.5116 2.54086 15.3472 2.54086 15.1445C2.54086 14.9417 2.3765 14.7773 2.17375 14.7773C1.971 14.7773 1.80664 14.9417 1.80664 15.1445C1.80664 15.3472 1.971 15.5116 2.17375 15.5116Z" fill="#828282"/>
<path d="M17.498 11.4051C17.7007 11.4051 17.8651 11.2408 17.8651 11.038C17.8651 10.8353 17.7007 10.6709 17.498 10.6709C17.2952 10.6709 17.1309 10.8353 17.1309 11.038C17.1309 11.2408 17.2952 11.4051 17.498 11.4051Z" fill="#828282"/>
<path d="M2.9589 17.4276C3.16165 17.4276 3.32601 17.2632 3.32601 17.0605C3.32601 16.8577 3.16165 16.6934 2.9589 16.6934C2.75616 16.6934 2.5918 16.8577 2.5918 17.0605C2.5918 17.2632 2.75616 17.4276 2.9589 17.4276Z" fill="#828282"/>
<path d="M13.8027 20.328C14.0054 20.328 14.1698 20.1636 14.1698 19.9609C14.1698 19.7581 14.0054 19.5938 13.8027 19.5938C13.5999 19.5938 13.4355 19.7581 13.4355 19.9609C13.4355 20.1636 13.5999 20.328 13.8027 20.328Z" fill="#828282"/>
<path d="M5.87101 6.58871C6.07376 6.58871 6.23812 6.42435 6.23812 6.2216C6.23812 6.01885 6.07376 5.85449 5.87101 5.85449C5.66827 5.85449 5.50391 6.01885 5.50391 6.2216C5.50391 6.42435 5.66827 6.58871 5.87101 6.58871Z" fill="#828282"/>
<path d="M11.8905 5.78793C12.0933 5.78793 12.2577 5.62357 12.2577 5.42082C12.2577 5.21807 12.0933 5.05371 11.8905 5.05371C11.6878 5.05371 11.5234 5.21807 11.5234 5.42082C11.5234 5.62357 11.6878 5.78793 11.8905 5.78793Z" fill="#828282"/>
<path d="M7.78117 21.128C7.98392 21.128 8.14828 20.9637 8.14828 20.7609C8.14828 20.5582 7.98392 20.3938 7.78117 20.3938C7.57842 20.3938 7.41406 20.5582 7.41406 20.7609C7.41406 20.9637 7.57842 21.128 7.78117 21.128Z" fill="#828282"/>
<path d="M17.498 15.5106C17.7007 15.5106 17.8651 15.3462 17.8651 15.1435C17.8651 14.9407 17.7007 14.7764 17.498 14.7764C17.2952 14.7764 17.1309 14.9407 17.1309 15.1435C17.1309 15.3462 17.2952 15.5106 17.498 15.5106Z" fill="#828282"/>
<path d="M2.17375 11.4051C2.3765 11.4051 2.54086 11.2408 2.54086 11.038C2.54086 10.8353 2.3765 10.6709 2.17375 10.6709C1.971 10.6709 1.80664 10.8353 1.80664 11.038C1.80664 11.2408 1.971 11.4051 2.17375 11.4051Z" fill="#828282"/>
</svg>
