<svg width="16" height="16" viewBox="0 0 16 16" fill="none" xmlns="http://www.w3.org/2000/svg">
<path d="M15.4723 3.5695C15.4072 3.13393 15.1881 2.73613 14.8549 2.44819C14.5216 2.16026 14.0962 2.00125 13.6558 2H2.34482C1.90441 2.00125 1.47903 2.16026 1.14578 2.44819C0.812527 2.73613 0.593472 3.13393 0.52832 3.5695L8.00032 8.4045L15.4723 3.5695Z" fill="#72C3D5"/>
<path d="M8.2715 9.41999C8.19061 9.4723 8.09633 9.50013 8 9.50013C7.90367 9.50013 7.80939 9.4723 7.7285 9.41999L0.5 4.74299V12.1555C0.500529 12.6445 0.69503 13.1134 1.04083 13.4592C1.38662 13.805 1.85547 13.9995 2.3445 14H13.6555C14.1445 13.9995 14.6134 13.805 14.9592 13.4592C15.305 13.1134 15.4995 12.6445 15.5 12.1555V4.74249L8.2715 9.41999Z" fill="#72C3D5"/>
</svg>
