<svg width="190" height="190" viewBox="0 0 190 190" fill="none" xmlns="http://www.w3.org/2000/svg">
<g clip-path="url(#clip0_387_5972)">
<path d="M126.543 96.8555C130.642 96.8555 133.965 100.178 133.965 104.277V126.71C133.965 128.9 132.997 130.979 131.319 132.391L119.428 142.391C118.037 143.561 116.341 144.132 114.655 144.132C112.54 144.132 110.44 143.233 108.971 141.488C106.333 138.35 106.737 133.669 109.874 131.031L119.121 123.254V104.277C119.121 100.178 122.444 96.8555 126.543 96.8555ZM182.578 67.5391C178.479 67.5391 175.156 70.8615 175.156 74.9609V86.3808C163.261 71.9893 145.473 63.4193 126.376 63.4193C91.4775 63.4193 63.0859 91.8109 63.0859 126.71C63.0859 161.608 91.5529 190 126.543 190C136.104 190 145.556 187.846 154.114 183.745C154.259 183.68 154.404 183.616 154.546 183.544C154.585 183.522 154.624 183.494 154.663 183.473C155.662 182.981 156.654 182.471 157.626 181.926C161.204 179.925 162.483 175.403 160.481 171.825C158.48 168.248 153.959 166.969 150.381 168.969C143.144 173.017 134.901 175.156 126.543 175.156C99.7372 175.156 77.9297 153.423 77.9297 126.71C77.9297 99.9967 99.6619 78.2631 126.376 78.2631C141.597 78.2631 155.732 85.3762 164.821 97.2266H153.262C149.162 97.2266 145.84 100.549 145.84 104.648C145.84 108.748 149.162 112.07 153.262 112.07H167.734C180.012 112.07 190 102.083 190 89.8047V74.9609C190 70.8615 186.678 67.5391 182.578 67.5391ZM177.276 151.748C173.879 149.454 169.267 150.348 166.973 153.747C164.68 157.147 165.577 161.759 168.974 164.052C170.247 164.911 171.69 165.322 173.12 165.322C175.506 165.322 177.842 164.176 179.279 162.049C181.568 158.654 180.675 154.042 177.276 151.748ZM189.743 128.803C189.696 128.565 189.636 128.332 189.567 128.098C189.496 127.868 189.414 127.637 189.322 127.416C189.229 127.192 189.124 126.969 189.01 126.758C188.894 126.543 188.772 126.336 188.639 126.134C188.505 125.931 188.356 125.734 188.204 125.549C188.052 125.359 187.885 125.177 187.714 125.006C187.544 124.835 187.362 124.669 187.173 124.516C186.988 124.361 186.786 124.216 186.586 124.083C186.386 123.95 186.175 123.824 185.963 123.712C185.747 123.596 185.528 123.493 185.306 123.4C185.083 123.307 184.853 123.225 184.623 123.155C184.389 123.084 184.151 123.025 183.918 122.977C183.68 122.929 183.435 122.891 183.194 122.87C182.711 122.82 182.222 122.82 181.736 122.87C181.495 122.891 181.253 122.929 181.015 122.977C180.778 123.025 180.541 123.084 180.311 123.155C180.08 123.225 179.851 123.307 179.628 123.4C179.405 123.493 179.183 123.596 178.972 123.712C178.756 123.824 178.548 123.95 178.348 124.083C178.144 124.216 177.947 124.361 177.761 124.516C177.573 124.669 177.39 124.835 177.219 125.006C177.045 125.177 176.881 125.359 176.726 125.549C176.574 125.734 176.429 125.931 176.296 126.134C176.162 126.336 176.036 126.543 175.925 126.758C175.81 126.969 175.706 127.192 175.613 127.416C175.52 127.637 175.439 127.868 175.368 128.098C175.298 128.332 175.237 128.565 175.19 128.803C175.142 129.041 175.104 129.286 175.082 129.523C175.056 129.768 175.045 130.013 175.045 130.254C175.045 130.495 175.056 130.74 175.082 130.984C175.104 131.222 175.142 131.467 175.19 131.705C175.239 131.938 175.298 132.176 175.368 132.409C175.439 132.64 175.52 132.87 175.613 133.092C175.706 133.315 175.81 133.539 175.925 133.75C176.036 133.96 176.162 134.172 176.296 134.374C176.429 134.577 176.574 134.774 176.726 134.959C176.881 135.149 177.045 135.33 177.219 135.501C177.39 135.672 177.573 135.839 177.761 135.991C177.947 136.144 178.144 136.291 178.348 136.425C178.548 136.558 178.756 136.684 178.972 136.796C179.183 136.912 179.405 137.015 179.628 137.108C179.851 137.2 180.08 137.283 180.311 137.353C180.541 137.424 180.779 137.483 181.015 137.531C181.253 137.579 181.495 137.616 181.736 137.638C181.977 137.664 182.226 137.676 182.467 137.676C182.709 137.676 182.954 137.664 183.194 137.638C183.435 137.616 183.681 137.579 183.918 137.531C184.152 137.483 184.39 137.424 184.623 137.353C184.853 137.283 185.083 137.2 185.306 137.108C185.528 137.015 185.747 136.912 185.963 136.796C186.175 136.684 186.386 136.558 186.586 136.425C186.786 136.291 186.988 136.144 187.173 135.991C187.362 135.839 187.544 135.672 187.714 135.501C187.885 135.33 188.052 135.149 188.204 134.959C188.356 134.774 188.505 134.577 188.639 134.374C188.772 134.172 188.894 133.96 189.01 133.75C189.124 133.539 189.229 133.315 189.322 133.092C189.414 132.87 189.496 132.64 189.567 132.409C189.636 132.176 189.696 131.938 189.743 131.705C189.793 131.467 189.829 131.222 189.852 130.984C189.878 130.74 189.888 130.495 189.888 130.254C189.888 130.013 189.878 129.768 189.852 129.523C189.829 129.286 189.791 129.041 189.743 128.803ZM60.8594 175.156H29.6875C21.5031 175.156 14.8438 168.497 14.8438 160.312V44.5312C14.8438 36.3469 21.5031 29.6875 29.6875 29.6875H38.9648V37.1094C38.9648 41.2088 42.2873 44.5312 46.3867 44.5312C50.4861 44.5312 53.8086 41.2088 53.8086 37.1094V29.6875H87.207V37.1094C87.207 41.2088 90.5295 44.5312 94.6289 44.5312C98.7283 44.5312 102.051 41.2088 102.051 37.1094V29.6875H135.82V37.1094C135.82 41.2088 139.143 44.5312 143.242 44.5312C147.342 44.5312 150.664 41.2088 150.664 37.1094V29.6875H160.312C168.497 29.6875 175.156 36.3469 175.156 44.5312C175.156 48.6307 178.479 51.9531 182.578 51.9531C186.678 51.9531 190 48.6307 190 44.5312C190 28.1611 176.683 14.8438 160.312 14.8438H150.664V7.42188C150.664 3.32245 147.342 0 143.242 0C139.143 0 135.82 3.32245 135.82 7.42188V14.8438H102.051V7.42188C102.051 3.32245 98.7283 0 94.6289 0C90.5295 0 87.207 3.32245 87.207 7.42188V14.8438H53.8086V7.42188C53.8086 3.32245 50.4861 0 46.3867 0C42.2873 0 38.9648 3.32245 38.9648 7.42188V14.8438H29.6875C13.3173 14.8438 0 28.1611 0 44.5312V160.312C0 176.683 13.3173 190 29.6875 190H60.8594C64.9588 190 68.2812 186.678 68.2812 182.578C68.2812 178.479 64.9588 175.156 60.8594 175.156Z" fill="#FFEB9E"/>
</g>
<defs>
<clipPath id="clip0_387_5972">
<rect width="190" height="190" fill="white"/>
</clipPath>
</defs>
</svg>
