<svg width="50" height="50" viewBox="0 0 50 50" fill="none" xmlns="http://www.w3.org/2000/svg">
<g clip-path="url(#clip0_190_2332)">
<path d="M25 0C38.785 0 50 11.215 50 25C50 38.785 38.785 50 25 50C11.215 50 0 38.785 0 25C0 11.215 11.2149 0 25 0ZM37.2422 37.2886C37.5235 37.479 38.2298 37.6466 38.643 37.1879L39.4054 36.2291C39.774 35.6056 39.3275 35.0274 39.0384 34.7876C37.664 33.6476 36.6646 32.7656 36.041 32.1418C34.8181 30.8558 33.9141 29.5684 33.3172 28.2849C33.1807 27.9915 33.5291 27.8052 33.7101 27.7459C38.2168 26.2688 40.4708 23.6649 40.4708 19.9346C40.4708 17.7368 39.7409 15.9509 38.2817 14.5779C36.8219 13.2042 34.9933 12.5177 32.7962 12.5177C30.839 12.5177 29.1046 13.4103 27.5941 15.1961C26.1172 16.8781 25.3793 18.6985 25.3793 20.6558C25.3792 26.392 29.3333 31.9361 37.2422 37.2886ZM20.0903 37.2886C20.3717 37.479 21.0779 37.6466 21.4911 37.1879L22.2535 36.2291C22.6222 35.6056 22.1757 35.0274 21.8866 34.7876C20.5123 33.6476 19.5128 32.7656 18.8891 32.1418C17.6662 30.8558 16.7622 29.5684 16.1652 28.2849C16.0287 27.9915 16.3771 27.8052 16.5581 27.7459C21.0647 26.2688 23.3188 23.6649 23.3188 19.9346C23.3188 17.7368 22.5888 15.9509 21.1297 14.5779C19.6697 13.2042 17.8412 12.5177 15.6442 12.5177C13.687 12.5177 11.9526 13.4103 10.442 15.1961C8.96534 16.8781 8.2273 18.6985 8.2273 20.6558C8.2273 26.392 12.1814 31.9361 20.0903 37.2886Z" fill="#FACD01"/>
</g>
<defs>
<clipPath id="clip0_190_2332">
<rect width="50" height="50" fill="white" transform="matrix(-1 0 0 1 50 0)"/>
</clipPath>
</defs>
</svg>
