<svg width="70" height="70" viewBox="0 0 70 70" fill="none" xmlns="http://www.w3.org/2000/svg">
<path fill-rule="evenodd" clip-rule="evenodd" d="M38.958 4.40113L43.126 7.52105C44.266 8.37431 45.4658 8.81099 46.8876 8.89015L52.0857 9.17931C55.1984 9.3524 57.7265 11.4736 58.4374 14.509L59.625 19.5781C59.9497 20.9645 60.5881 22.0702 61.6264 23.0446L65.4226 26.6077C67.6957 28.741 68.2687 31.991 66.8624 34.7732L64.5137 39.4196C63.8714 40.6904 63.6497 41.9478 63.8187 43.3616L64.4366 48.5312C64.8066 51.6267 63.1565 54.4845 60.2909 55.7118L55.5049 57.7615C54.196 58.322 53.2179 59.1428 52.4386 60.3344L49.589 64.6916C47.8827 67.3006 44.7817 68.4293 41.7976 67.5275L36.814 66.0214C35.451 65.6094 34.1742 65.6094 32.8111 66.0214L27.8275 67.5275C24.8434 68.4293 21.7424 67.3006 20.0361 64.6916L17.1865 60.3344C16.4071 59.1428 15.429 58.322 14.1202 57.7615L9.33392 55.7115C6.46829 54.4842 4.81823 51.6264 5.1882 48.5309L5.80616 43.3613C5.97515 41.9475 5.75339 40.6901 5.11109 39.4193L2.7624 34.7729C1.35611 31.9908 1.92909 28.7409 4.20218 26.6074L7.99845 23.0444C9.03669 22.07 9.67503 20.9642 9.99974 19.5779L11.1873 14.5087C11.8982 11.4735 14.4263 9.35226 17.539 9.17904L22.7371 8.88988C24.1589 8.81085 25.3587 8.37404 26.4987 7.52078L30.6667 4.40085C33.1622 2.533 36.4623 2.533 38.958 4.40113ZM32.1535 37.2026L27.6303 32.6794C26.4579 31.507 24.5563 31.507 23.3841 32.6794C22.2117 33.8517 22.2117 35.7532 23.3841 36.9256L30.037 43.5783C31.2093 44.7505 33.111 44.7507 34.2832 43.5783C38.2931 39.5682 42.2577 35.5131 46.2492 31.4847C47.4131 30.31 47.4094 28.4145 46.2362 27.2479C45.0629 26.081 43.162 26.0843 41.9968 27.2611L32.1535 37.2026ZM34.8123 13.0572C28.6379 13.0572 23.0479 15.56 19.0016 19.6063C14.9552 23.6528 12.4525 29.2427 12.4525 35.417C12.4525 41.5914 14.9552 47.1814 19.0016 51.2277C23.0479 55.274 28.6379 57.7768 34.8123 57.7768C40.9866 57.7768 46.5767 55.274 50.623 51.2277C54.6693 47.1814 57.1721 41.5914 57.1721 35.417C57.1721 29.2427 54.6693 23.6526 50.623 19.6063C46.5767 15.56 40.9866 13.0572 34.8123 13.0572ZM49.0763 21.153C45.4259 17.5026 40.3827 15.2447 34.8123 15.2447C29.2418 15.2447 24.1987 17.5026 20.5483 21.153C16.8979 24.8034 14.64 29.8465 14.64 35.417C14.64 40.9875 16.8979 46.0306 20.5483 49.681C24.1987 53.3314 29.2418 55.5893 34.8123 55.5893C40.3827 55.5893 45.4259 53.3314 49.0763 49.6811C52.7267 46.0308 54.9844 40.9876 54.9844 35.4171C54.9846 29.8465 52.7267 24.8034 49.0763 21.153Z" fill="#72C3D5"/>
</svg>
