<svg width="25" height="24" viewBox="0 0 25 24" fill="none" xmlns="http://www.w3.org/2000/svg">
<g clip-path="url(#clip0_203_2051)">
<path d="M9.25 17.6121V22.2501C9.25 22.5741 9.458 22.8611 9.766 22.9631C9.843 22.9881 9.922 23.0001 10 23.0001C10.234 23.0001 10.46 22.8901 10.604 22.6941L13.317 19.0021L9.25 17.6121Z" fill="white"/>
<path d="M24.185 0.138967C23.955 -0.0240335 23.653 -0.0460335 23.403 0.0849665L0.903045 11.835C0.637044 11.974 0.480044 12.258 0.502044 12.557C0.525044 12.857 0.724045 13.113 1.00704 13.21L7.26205 15.348L20.583 3.95797L10.275 16.377L20.758 19.96C20.836 19.986 20.918 20 21 20C21.136 20 21.271 19.963 21.39 19.891C21.58 19.775 21.709 19.58 21.742 19.361L24.492 0.860967C24.533 0.580967 24.415 0.302967 24.185 0.138967Z" fill="white"/>
</g>
<defs>
<clipPath id="clip0_203_2051">
<rect width="24" height="24" fill="white" transform="translate(0.5)"/>
</clipPath>
</defs>
</svg>
