<svg width="21" height="21" viewBox="0 0 21 21" fill="none" xmlns="http://www.w3.org/2000/svg">
<path d="M8.50081 6.50033C8.30303 6.50033 8.10969 6.55898 7.94524 6.66886C7.78079 6.77874 7.65262 6.93492 7.57693 7.11764C7.50124 7.30037 7.48144 7.50144 7.52002 7.69542C7.55861 7.8894 7.65385 8.06758 7.7937 8.20743C7.93355 8.34729 8.11174 8.44253 8.30572 8.48111C8.4997 8.5197 8.70077 8.4999 8.88349 8.42421C9.06622 8.34852 9.2224 8.22035 9.33228 8.0559C9.44216 7.89145 9.50081 7.69811 9.50081 7.50033C9.50081 7.23511 9.39545 6.98076 9.20791 6.79322C9.02038 6.60569 8.76602 6.50033 8.50081 6.50033ZM8.50081 6.50033C8.30303 6.50033 8.10969 6.55898 7.94524 6.66886C7.78079 6.77874 7.65262 6.93492 7.57693 7.11764C7.50124 7.30037 7.48144 7.50144 7.52002 7.69542C7.55861 7.8894 7.65385 8.06758 7.7937 8.20743C7.93355 8.34729 8.11174 8.44253 8.30572 8.48111C8.4997 8.5197 8.70077 8.4999 8.88349 8.42421C9.06622 8.34852 9.2224 8.22035 9.33228 8.0559C9.44216 7.89145 9.50081 7.69811 9.50081 7.50033C9.50081 7.23511 9.39545 6.98076 9.20791 6.79322C9.02038 6.60569 8.76602 6.50033 8.50081 6.50033ZM19.9208 7.39533C19.3804 6.90653 19.0507 6.22726 19.0008 5.50033C19.0169 5.03638 18.9373 4.57408 18.7671 4.14218C18.5969 3.71028 18.3396 3.31801 18.0114 2.98975C17.6831 2.66149 17.2909 2.40426 16.859 2.23405C16.4271 2.06383 15.9648 1.98428 15.5008 2.00033C14.7535 1.92439 14.0599 1.57758 13.5508 1.02533C13.218 0.689837 12.8201 0.42587 12.3816 0.249614C11.9431 0.0733583 11.4732 -0.0114709 11.0008 0.000328233C10.5117 -0.0126455 10.0249 0.0712382 9.56843 0.247151C9.11192 0.423063 8.6947 0.68753 8.34081 1.02533C7.87831 1.57811 7.21792 1.92804 6.50081 2.00033C6.03686 1.98428 5.57456 2.06383 5.14266 2.23405C4.71076 2.40426 4.31849 2.66149 3.99023 2.98975C3.66197 3.31801 3.40474 3.71028 3.23452 4.14218C3.06431 4.57408 2.98476 5.03638 3.00081 5.50033C3.00081 6.21533 2.44081 6.92533 1.97081 7.39533C1.63978 7.74027 1.38293 8.14937 1.2161 8.5974C1.04928 9.04543 0.976004 9.52289 1.00081 10.0003C0.976004 10.4778 1.04928 10.9552 1.2161 11.4033C1.38293 11.8513 1.63978 12.2604 1.97081 12.6053C2.44081 13.0753 3.00081 13.7853 3.00081 14.5003C2.98476 14.9643 3.06431 15.4266 3.23452 15.8585C3.40474 16.2904 3.66197 16.6826 3.99023 17.0109C4.31849 17.3392 4.71076 17.5964 5.14266 17.7666C5.57456 17.9368 6.03686 18.0164 6.50081 18.0003C7.2217 18.079 7.88266 18.4382 8.34081 19.0003C8.69672 19.3336 9.11484 19.5935 9.57127 19.7651C10.0277 19.9367 10.5135 20.0166 11.0008 20.0003C11.4715 20.0154 11.9403 19.9345 12.3787 19.7626C12.817 19.5907 13.2159 19.3313 13.5508 19.0003C14.0559 18.4388 14.7501 18.0829 15.5008 18.0003C15.9648 18.0164 16.4271 17.9368 16.859 17.7666C17.2909 17.5964 17.6831 17.3392 18.0114 17.0109C18.3396 16.6826 18.5969 16.2904 18.7671 15.8585C18.9373 15.4266 19.0169 14.9643 19.0008 14.5003C19.0507 13.7734 19.3804 13.0941 19.9208 12.6053C20.2634 12.2635 20.5352 11.8575 20.7206 11.4105C20.9061 10.9635 21.0015 10.4843 21.0015 10.0003C21.0015 9.51639 20.9061 9.0372 20.7206 8.59019C20.5352 8.14319 20.2634 7.73715 19.9208 7.39533ZM8.50081 5.50033C8.89637 5.50033 9.28305 5.61763 9.61195 5.83739C9.94085 6.05715 10.1972 6.36951 10.3486 6.73496C10.4999 7.10041 10.5395 7.50255 10.4624 7.89051C10.3852 8.27847 10.1947 8.63484 9.91502 8.91454C9.63532 9.19425 9.27895 9.38473 8.89099 9.4619C8.50303 9.53907 8.10089 9.49946 7.73544 9.34809C7.36999 9.19671 7.05763 8.94037 6.83787 8.61147C6.61811 8.28257 6.50081 7.89589 6.50081 7.50033C6.50081 6.96989 6.71152 6.46119 7.08659 6.08611C7.46167 5.71104 7.97037 5.50033 8.50081 5.50033ZM7.85581 13.8553C7.80933 13.9022 7.75403 13.9394 7.6931 13.9648C7.63217 13.9902 7.56681 14.0032 7.50081 14.0032C7.4348 14.0032 7.36945 13.9902 7.30852 13.9648C7.24759 13.9394 7.19229 13.9022 7.14581 13.8553C7.09894 13.8088 7.06175 13.7535 7.03636 13.6926C7.01098 13.6317 6.99791 13.5663 6.99791 13.5003C6.99791 13.4343 7.01098 13.369 7.03636 13.308C7.06175 13.2471 7.09894 13.1918 7.14581 13.1453L14.1458 6.14533C14.24 6.05118 14.3677 5.99828 14.5008 5.99828C14.634 5.99828 14.7617 6.05118 14.8558 6.14533C14.95 6.23948 15.0029 6.36718 15.0029 6.50033C15.0029 6.63348 14.95 6.76118 14.8558 6.85533L7.85581 13.8553ZM13.5008 14.5003C13.1052 14.5003 12.7186 14.383 12.3897 14.1633C12.0608 13.9435 11.8044 13.6311 11.653 13.2657C11.5017 12.9002 11.4621 12.4981 11.5392 12.1101C11.6164 11.7222 11.8069 11.3658 12.0866 11.0861C12.3663 10.8064 12.7227 10.6159 13.1106 10.5388C13.4986 10.4616 13.9007 10.5012 14.2662 10.6526C14.6316 10.8039 14.944 11.0603 15.1637 11.3892C15.3835 11.7181 15.5008 12.1048 15.5008 12.5003C15.5008 13.0308 15.2901 13.5395 14.915 13.9145C14.5399 14.2896 14.0312 14.5003 13.5008 14.5003ZM13.5008 11.5003C13.303 11.5003 13.1097 11.559 12.9452 11.6689C12.7808 11.7787 12.6526 11.9349 12.5769 12.1176C12.5012 12.3004 12.4814 12.5014 12.52 12.6954C12.5586 12.8894 12.6538 13.0676 12.7937 13.2074C12.9336 13.3473 13.1117 13.4425 13.3057 13.4811C13.4997 13.5197 13.7008 13.4999 13.8835 13.4242C14.0662 13.3485 14.2224 13.2203 14.3323 13.0559C14.4422 12.8914 14.5008 12.6981 14.5008 12.5003C14.5008 12.2351 14.3955 11.9808 14.2079 11.7932C14.0204 11.6057 13.766 11.5003 13.5008 11.5003ZM8.50081 8.50033C8.69859 8.50033 8.89193 8.44168 9.05638 8.3318C9.22083 8.22192 9.349 8.06574 9.42469 7.88301C9.50037 7.70029 9.52018 7.49922 9.48159 7.30524C9.44301 7.11126 9.34777 6.93307 9.20791 6.79322C9.06806 6.65337 8.88988 6.55813 8.6959 6.51954C8.50192 6.48096 8.30085 6.50076 8.11812 6.57645C7.9354 6.65214 7.77922 6.78031 7.66934 6.94476C7.55946 7.10921 7.50081 7.30255 7.50081 7.50033C7.50081 7.76554 7.60616 8.0199 7.7937 8.20743C7.98124 8.39497 8.23559 8.50033 8.50081 8.50033Z" fill="#ED907A"/>
</svg>
