<svg width="24" height="24" viewBox="0 0 24 24" fill="none" xmlns="http://www.w3.org/2000/svg">
<g clip-path="url(#clip0_374_7369)">
<path d="M21.2499 23.9999H2.75006C1.23303 23.9999 0 22.7669 0 21.2499V4.74988C0 3.23285 1.23303 2 2.75006 2H21.2499C22.767 2 24 3.23285 24 4.74988V21.2499C24 22.7669 22.767 23.9999 21.2499 23.9999ZM2.75006 3.5C2.06104 3.5 1.5 4.06085 1.5 4.74988V21.2499C1.5 21.9389 2.06104 22.4999 2.75006 22.4999H21.2499C21.939 22.4999 22.5 21.9389 22.5 21.2499V4.74988C22.5 4.06085 21.939 3.5 21.2499 3.5H2.75006Z" fill="#CACACA"/>
<path d="M23.25 9.5H0.75C0.335999 9.5 0 9.164 0 8.75C0 8.336 0.335999 8 0.75 8H23.25C23.664 8 24 8.336 24 8.75C24 9.164 23.664 9.5 23.25 9.5Z" fill="#CACACA"/>
<path d="M5.75 6C5.336 6 5 5.664 5 5.25V0.75C5 0.335999 5.336 0 5.75 0C6.164 0 6.5 0.335999 6.5 0.75V5.25C6.5 5.664 6.164 6 5.75 6Z" fill="#CACACA"/>
<path d="M18.25 6C17.836 6 17.5 5.664 17.5 5.25V0.75C17.5 0.335999 17.836 0 18.25 0C18.664 0 19 0.335999 19 0.75V5.25C19 5.664 18.664 6 18.25 6Z" fill="#CACACA"/>
</g>
<defs>
<clipPath id="clip0_374_7369">
<rect width="24" height="24" fill="white"/>
</clipPath>
</defs>
</svg>
