<svg width="24" height="24" viewBox="0 0 24 24" fill="none" xmlns="http://www.w3.org/2000/svg">
<path d="M9.83561 19.378L9.63355 19.0338C8.11804 16.4517 4.0865 10.9663 4.04598 10.9112L3.92773 10.7505L5.44407 9.25223L9.7842 12.2828C12.5044 8.76734 15.0384 6.34791 16.6961 4.92997C18.5274 3.36356 19.6869 2.66257 19.7351 2.63349L19.7899 2.60059H22.4622L22.0097 3.00369C16.2949 8.09377 10.0951 18.9224 10.0331 19.0313L9.83561 19.378Z" fill="#009045"/>
<path d="M9.83586 5.51791C10.0386 5.51791 10.203 5.35355 10.203 5.1508C10.203 4.94805 10.0386 4.78369 9.83586 4.78369C9.63311 4.78369 9.46875 4.94805 9.46875 5.1508C9.46875 5.35355 9.63311 5.51791 9.83586 5.51791Z" fill="#828282"/>
<path d="M9.83586 21.3993C10.0386 21.3993 10.203 21.2349 10.203 21.0321C10.203 20.8294 10.0386 20.665 9.83586 20.665C9.63311 20.665 9.46875 20.8294 9.46875 21.0321C9.46875 21.2349 9.63311 21.3993 9.83586 21.3993Z" fill="#828282"/>
<path d="M1.90422 13.4583C2.10697 13.4583 2.27132 13.294 2.27132 13.0912C2.27132 12.8885 2.10697 12.7241 1.90422 12.7241C1.70147 12.7241 1.53711 12.8885 1.53711 13.0912C1.53711 13.294 1.70147 13.4583 1.90422 13.4583Z" fill="#828282"/>
<path d="M17.7675 13.4583C17.9702 13.4583 18.1346 13.294 18.1346 13.0912C18.1346 12.8885 17.9702 12.7241 17.7675 12.7241C17.5648 12.7241 17.4004 12.8885 17.4004 13.0912C17.4004 13.294 17.5648 13.4583 17.7675 13.4583Z" fill="#828282"/>
<path d="M4.22062 19.0731C4.42337 19.0731 4.58773 18.9087 4.58773 18.706C4.58773 18.5032 4.42337 18.3389 4.22062 18.3389C4.01788 18.3389 3.85352 18.5032 3.85352 18.706C3.85352 18.9087 4.01788 19.0731 4.22062 19.0731Z" fill="#828282"/>
<path d="M4.22844 7.84994C4.43118 7.84994 4.59554 7.68558 4.59554 7.48283C4.59554 7.28008 4.43118 7.11572 4.22844 7.11572C4.02569 7.11572 3.86133 7.28008 3.86133 7.48283C3.86133 7.68558 4.02569 7.84994 4.22844 7.84994Z" fill="#828282"/>
<path d="M15.4452 19.0672C15.648 19.0672 15.8123 18.9029 15.8123 18.7001C15.8123 18.4974 15.648 18.333 15.4452 18.333C15.2425 18.333 15.0781 18.4974 15.0781 18.7001C15.0781 18.9029 15.2425 19.0672 15.4452 19.0672Z" fill="#828282"/>
<path d="M2.9589 9.48812C3.16165 9.48812 3.32601 9.32376 3.32601 9.12101C3.32601 8.91827 3.16165 8.75391 2.9589 8.75391C2.75616 8.75391 2.5918 8.91827 2.5918 9.12101C2.5918 9.32376 2.75616 9.48812 2.9589 9.48812Z" fill="#828282"/>
<path d="M16.7128 17.4286C16.9156 17.4286 17.0799 17.2642 17.0799 17.0614C17.0799 16.8587 16.9156 16.6943 16.7128 16.6943C16.5101 16.6943 16.3457 16.8587 16.3457 17.0614C16.3457 17.2642 16.5101 17.4286 16.7128 17.4286Z" fill="#828282"/>
<path d="M5.87101 20.328C6.07376 20.328 6.23812 20.1636 6.23812 19.9609C6.23812 19.7581 6.07376 19.5938 5.87101 19.5938C5.66827 19.5938 5.50391 19.7581 5.50391 19.9609C5.50391 20.1636 5.66827 20.328 5.87101 20.328Z" fill="#828282"/>
<path d="M7.78117 5.78841C7.98392 5.78841 8.14828 5.62406 8.14828 5.42131C8.14828 5.21856 7.98392 5.0542 7.78117 5.0542C7.57842 5.0542 7.41406 5.21856 7.41406 5.42131C7.41406 5.62406 7.57842 5.78841 7.78117 5.78841Z" fill="#828282"/>
<path d="M11.8905 21.1283C12.0933 21.1283 12.2577 20.9639 12.2577 20.7612C12.2577 20.5584 12.0933 20.394 11.8905 20.394C11.6878 20.394 11.5234 20.5584 11.5234 20.7612C11.5234 20.9639 11.6878 21.1283 11.8905 21.1283Z" fill="#828282"/>
<path d="M2.17375 15.5116C2.3765 15.5116 2.54086 15.3472 2.54086 15.1445C2.54086 14.9417 2.3765 14.7773 2.17375 14.7773C1.971 14.7773 1.80664 14.9417 1.80664 15.1445C1.80664 15.3472 1.971 15.5116 2.17375 15.5116Z" fill="#828282"/>
<path d="M17.498 11.4056C17.7007 11.4056 17.8651 11.2412 17.8651 11.0385C17.8651 10.8357 17.7007 10.6714 17.498 10.6714C17.2952 10.6714 17.1309 10.8357 17.1309 11.0385C17.1309 11.2412 17.2952 11.4056 17.498 11.4056Z" fill="#828282"/>
<path d="M2.9589 17.4286C3.16165 17.4286 3.32601 17.2642 3.32601 17.0614C3.32601 16.8587 3.16165 16.6943 2.9589 16.6943C2.75616 16.6943 2.5918 16.8587 2.5918 17.0614C2.5918 17.2642 2.75616 17.4286 2.9589 17.4286Z" fill="#828282"/>
<path d="M13.8027 20.328C14.0054 20.328 14.1698 20.1636 14.1698 19.9609C14.1698 19.7581 14.0054 19.5938 13.8027 19.5938C13.5999 19.5938 13.4355 19.7581 13.4355 19.9609C13.4355 20.1636 13.5999 20.328 13.8027 20.328Z" fill="#828282"/>
<path d="M5.87101 6.5892C6.07376 6.5892 6.23812 6.42484 6.23812 6.22209C6.23812 6.01934 6.07376 5.85498 5.87101 5.85498C5.66827 5.85498 5.50391 6.01934 5.50391 6.22209C5.50391 6.42484 5.66827 6.5892 5.87101 6.5892Z" fill="#828282"/>
<path d="M11.8905 5.78841C12.0933 5.78841 12.2577 5.62406 12.2577 5.42131C12.2577 5.21856 12.0933 5.0542 11.8905 5.0542C11.6878 5.0542 11.5234 5.21856 11.5234 5.42131C11.5234 5.62406 11.6878 5.78841 11.8905 5.78841Z" fill="#828282"/>
<path d="M7.78117 21.1283C7.98392 21.1283 8.14828 20.9639 8.14828 20.7612C8.14828 20.5584 7.98392 20.394 7.78117 20.394C7.57842 20.394 7.41406 20.5584 7.41406 20.7612C7.41406 20.9639 7.57842 21.1283 7.78117 21.1283Z" fill="#828282"/>
<path d="M17.498 15.5116C17.7007 15.5116 17.8651 15.3472 17.8651 15.1445C17.8651 14.9417 17.7007 14.7773 17.498 14.7773C17.2952 14.7773 17.1309 14.9417 17.1309 15.1445C17.1309 15.3472 17.2952 15.5116 17.498 15.5116Z" fill="#828282"/>
<path d="M2.17375 11.4056C2.3765 11.4056 2.54086 11.2412 2.54086 11.0385C2.54086 10.8357 2.3765 10.6714 2.17375 10.6714C1.971 10.6714 1.80664 10.8357 1.80664 11.0385C1.80664 11.2412 1.971 11.4056 2.17375 11.4056Z" fill="#828282"/>
</svg>
