<svg width="190" height="190" viewBox="0 0 190 190" fill="none" xmlns="http://www.w3.org/2000/svg">
<g clip-path="url(#clip0_387_5961)">
<path d="M67.1688 162.168C67.1688 177.515 79.6542 190 95.0008 190C110.347 190 122.833 177.515 122.833 162.168V139.16C122.833 126.527 128.142 114.187 137.398 105.303C144.457 98.5284 149.845 90.0893 152.981 80.8988C156.321 71.1075 157.1 60.8527 155.295 50.4198C152.924 36.7119 145.743 24.0788 135.074 14.8478C124.009 5.27324 109.777 0.000371094 95.0008 0C80.2784 0 66.0759 5.25246 55.0091 14.7899C44.2934 24.025 37.0831 36.6785 34.7062 50.4198C32.9016 60.8531 33.6802 71.1079 37.0204 80.8988C40.1557 90.0893 45.544 98.528 52.603 105.303C61.8595 114.187 67.1688 126.524 67.1688 139.152V162.168ZM60.3121 97.2707C48.0968 85.5475 42.7623 69.1622 45.6761 52.3172C49.8042 28.4536 70.548 11.1332 95.0008 11.1328C119.454 11.1328 140.197 28.4536 144.325 52.3172C147.239 69.1626 141.905 85.5475 129.69 97.2707C119.618 106.937 113.331 119.936 111.976 133.593L78.0259 133.586C76.6706 119.934 70.3832 106.937 60.3121 97.2707ZM111.7 144.725V162.168C111.7 171.376 104.209 178.867 95.0008 178.867C85.7929 178.867 78.3016 171.376 78.3016 162.168V144.72L111.7 144.725Z" fill="#E9A795"/>
<path d="M89.4336 50.0977C89.4336 47.0283 91.9307 44.5312 95 44.5312C98.0693 44.5312 100.566 47.0283 100.566 50.0977C100.566 51.8867 99.7381 53.5225 98.2935 54.586C92.7456 58.6707 89.4336 65.2182 89.4336 72.1005V77.9297H100.566V72.1005C100.566 68.7425 102.184 65.5463 104.894 63.5509C109.155 60.4137 111.699 55.3843 111.699 50.0977C111.699 40.8897 104.208 33.3984 95 33.3984C85.7921 33.3984 78.3008 40.8897 78.3008 50.0977V55.6641H89.4336V50.0977Z" fill="#E9A795"/>
<path d="M5.85938 24.4958L13.7303 16.625L30.1172 33.0119L22.2463 40.8828L5.85938 24.4958Z" fill="#E9A795"/>
<path d="M0 55.6641H22.6582V66.7969H0V55.6641Z" fill="#E9A795"/>
<path d="M5.97852 97.8291L22.3537 81.454L30.2246 89.3249L13.8494 105.7L5.97852 97.8291Z" fill="#E9A795"/>
<path d="M159.855 33.0264L176.242 16.6397L184.113 24.5106L167.726 40.8973L159.855 33.0264Z" fill="#E9A795"/>
<path d="M167.342 55.6641H190V66.7969H167.342V55.6641Z" fill="#E9A795"/>
<path d="M159.736 89.3455L167.607 81.4746L183.982 97.8497L176.111 105.721L159.736 89.3455Z" fill="#E9A795"/>
<path d="M89.4336 89.0625H100.566V100.195H89.4336V89.0625Z" fill="#E9A795"/>
</g>
<defs>
<clipPath id="clip0_387_5961">
<rect width="190" height="190" fill="white"/>
</clipPath>
</defs>
</svg>
