<svg width="60" height="60" viewBox="0 0 60 60" fill="none" xmlns="http://www.w3.org/2000/svg">
<g clip-path="url(#clip0_516_8157)">
<path d="M35.7422 30C35.7422 33.1714 33.1714 35.7422 30 35.7422C26.8286 35.7422 24.2578 33.1714 24.2578 30C24.2578 26.8286 26.8286 24.2578 30 24.2578C33.1714 24.2578 35.7422 26.8286 35.7422 30Z" fill="#B1B1B1"/>
<path d="M43.4283 19.8398C43.1523 19.0918 42.7119 18.4148 42.1397 17.8591C41.584 17.2869 40.9074 16.8465 40.159 16.5705C39.552 16.3347 38.6401 16.0541 36.9606 15.9777C35.1437 15.8948 34.599 15.877 29.9994 15.877C25.3993 15.877 24.8546 15.8943 23.0382 15.9772C21.3586 16.0541 20.4463 16.3347 19.8398 16.5705C19.0913 16.8465 18.4143 17.2869 17.859 17.8591C17.2868 18.4148 16.8465 19.0914 16.57 19.8398C16.3342 20.4468 16.0536 21.3591 15.9772 23.0387C15.8943 24.8551 15.8765 25.3998 15.8765 29.9999C15.8765 34.5995 15.8943 35.1442 15.9772 36.9611C16.0536 38.6406 16.3342 39.5525 16.57 40.1595C16.8465 40.9079 17.2864 41.5845 17.8586 42.1402C18.4143 42.7124 19.0909 43.1528 19.8393 43.4288C20.4463 43.665 21.3586 43.9456 23.0382 44.0221C24.8546 44.105 25.3989 44.1223 29.9989 44.1223C34.5995 44.1223 35.1442 44.105 36.9601 44.0221C38.6397 43.9456 39.552 43.665 40.159 43.4288C41.6614 42.8493 42.8488 41.6619 43.4283 40.1595C43.6641 39.5525 43.9447 38.6406 44.0216 36.9611C44.1045 35.1442 44.1219 34.5995 44.1219 29.9999C44.1219 25.3998 44.1045 24.8551 44.0216 23.0387C43.9452 21.3591 43.6646 20.4468 43.4283 19.8398V19.8398ZM29.9994 38.8452C25.1137 38.8452 21.1531 34.8851 21.1531 29.9994C21.1531 25.1137 25.1137 21.1536 29.9994 21.1536C34.8846 21.1536 38.8452 25.1137 38.8452 29.9994C38.8452 34.8851 34.8846 38.8452 29.9994 38.8452ZM39.1949 22.8711C38.0533 22.8711 37.1277 21.9455 37.1277 20.8039C37.1277 19.6622 38.0533 18.7366 39.1949 18.7366C40.3366 18.7366 41.2622 19.6622 41.2622 20.8039C41.2617 21.9455 40.3366 22.8711 39.1949 22.8711Z" fill="#B1B1B1"/>
<path d="M30 0C13.434 0 0 13.434 0 30C0 46.566 13.434 60 30 60C46.566 60 60 46.566 60 30C60 13.434 46.566 0 30 0ZM47.1227 37.1022C47.0393 38.936 46.7477 40.188 46.322 41.2839C45.4271 43.5979 43.5979 45.4271 41.2839 46.322C40.1884 46.7477 38.936 47.0389 37.1027 47.1227C35.2657 47.2064 34.6788 47.2266 30.0005 47.2266C25.3217 47.2266 24.7353 47.2064 22.8978 47.1227C21.0645 47.0389 19.812 46.7477 18.7166 46.322C17.5667 45.8894 16.5257 45.2115 15.6651 44.3349C14.789 43.4747 14.111 42.4333 13.6784 41.2839C13.2527 40.1884 12.9611 38.936 12.8778 37.1027C12.7931 35.2652 12.7734 34.6783 12.7734 30C12.7734 25.3217 12.7931 24.7348 12.8773 22.8978C12.9607 21.064 13.2518 19.812 13.6775 18.7161C14.1101 17.5667 14.7885 16.5253 15.6651 15.6651C16.5253 14.7885 17.5667 14.1106 18.7161 13.678C19.812 13.2523 21.064 12.9611 22.8978 12.8773C24.7348 12.7936 25.3217 12.7734 30 12.7734C34.6783 12.7734 35.2652 12.7936 37.1022 12.8778C38.936 12.9611 40.188 13.2523 41.2839 13.6775C42.4333 14.1101 43.4747 14.7885 44.3353 15.6651C45.2115 16.5257 45.8899 17.5667 46.322 18.7161C46.7482 19.812 47.0393 21.064 47.1231 22.8978C47.2069 24.7348 47.2266 25.3217 47.2266 30C47.2266 34.6783 47.2069 35.2652 47.1227 37.1022V37.1022Z" fill="#B1B1B1"/>
</g>
<defs>
<clipPath id="clip0_516_8157">
<rect width="60" height="60" fill="white"/>
</clipPath>
</defs>
</svg>
