<svg width="48" height="48" viewBox="0 0 48 48" fill="none" xmlns="http://www.w3.org/2000/svg">
<g clip-path="url(#clip0_516_7996)">
<path d="M14.0628 11.9062H18.75H23.4372C23.884 11.9062 24.3017 11.692 24.5695 11.3344C26.6178 8.59978 27.6562 5.57494 27.6562 2.34375V1.40625C27.6562 0.629625 27.0266 0 26.25 0C23.6456 0 20.2486 1.68675 18.75 2.50744C17.2514 1.68675 13.8544 0 11.25 0C10.4734 0 9.84375 0.629625 9.84375 1.40625V2.34375C9.84375 5.57494 10.8822 8.59978 12.9305 11.3344C13.1983 11.692 13.6161 11.9062 14.0628 11.9062Z" fill="white"/>
<path d="M19.8389 32.5753V36.5568C20.5573 36.169 20.984 35.4532 21.0981 34.7745C21.1797 34.2897 21.213 33.1261 19.8389 32.5753Z" fill="white"/>
<path d="M16.7879 27.4997C16.6892 28.0228 16.8161 28.5102 17.1108 28.7414C17.2261 28.8319 17.3558 28.9204 17.4946 29.0072V26.3604C17.0852 26.6467 16.8623 27.1049 16.7879 27.4997Z" fill="white"/>
<path d="M26.4375 35.4687V28.4917C26.4375 26.543 27.8393 24.902 29.7706 24.5898C30.7693 24.4283 31.6382 23.8053 32.1161 22.9164C30.1016 20.1303 27.7299 17.5357 25.3786 15.1401C25.1142 14.8705 24.7524 14.7188 24.375 14.7188H13.125C12.7475 14.7188 12.3859 14.8705 12.1214 15.14C6.12741 21.2468 0 28.6457 0 37.2188L9.375e-05 37.3196C0.0132188 43.2088 4.88362 48 10.8573 48H26.6427C28.3129 48 29.8967 47.6252 31.3123 46.9568C28.2645 44.0133 26.4375 39.9028 26.4375 35.4687ZM23.4092 35.1631C23.2303 36.227 22.6951 37.2142 21.9021 37.9428C21.309 38.4877 20.6087 38.8606 19.8386 39.0491V39.9375C19.8386 40.5847 19.314 41.1094 18.6667 41.1094C18.0195 41.1094 17.4949 40.5847 17.4949 39.9375V39.1586C16.5131 39.0775 15.7053 38.8185 14.5562 38.0668C14.0146 37.7125 13.8627 36.9863 14.217 36.4447C14.5713 35.903 15.2975 35.7511 15.8392 36.1055C16.5037 36.5401 16.9278 36.7256 17.4949 36.8009V31.6528C16.7174 31.2979 16.1387 30.957 15.6646 30.5851C14.6742 29.8083 14.2221 28.4595 14.4848 27.0652C14.7714 25.5445 15.8295 24.3348 17.2463 23.908C17.33 23.8828 17.4128 23.8597 17.4949 23.8384V23.0625C17.4949 22.4152 18.0195 21.8906 18.6667 21.8906C19.314 21.8906 19.8386 22.4152 19.8386 23.0625V23.7085C21.0142 23.905 21.8444 24.4816 22.2448 24.941C22.67 25.4289 22.6192 26.1692 22.1312 26.5943C21.6456 27.0174 20.91 26.9691 20.4839 26.4877C20.4561 26.4593 20.2455 26.2552 19.8386 26.1149V30.0806C20.0601 30.163 20.2813 30.2428 20.4985 30.3196C22.6344 31.0745 23.777 32.9757 23.4092 35.1631Z" fill="white"/>
<path d="M47.0306 27.3665C45.1212 27.0578 43.4494 25.849 42.5692 24.0827C42.4496 23.8426 42.2007 23.6943 41.9324 23.6943H35.3176C35.0493 23.6943 34.8004 23.8426 34.6808 24.0827C33.8006 25.8491 32.1288 27.0578 30.2194 27.3665C29.6632 27.4564 29.25 27.9286 29.25 28.492V35.469C29.25 41.122 32.8582 46.1236 38.1795 47.9269C38.4681 48.0247 38.782 48.0247 39.0706 47.9269C44.3917 46.1237 48 41.122 48 35.469V28.492C48 27.9286 47.5868 27.4564 47.0306 27.3665ZM43.5968 34.2244L38.2936 39.5277C38.019 39.8023 37.6591 39.9396 37.2993 39.9396C36.9395 39.9396 36.5795 39.8024 36.305 39.5277L33.6533 36.8761C33.1042 36.3269 33.1042 35.4365 33.6533 34.8873C34.2024 34.3381 35.0929 34.3381 35.6421 34.8873L37.2994 36.5446L41.6083 32.2357C42.1574 31.6865 43.0478 31.6865 43.597 32.2357C44.146 32.785 44.146 33.6753 43.5968 34.2244Z" fill="white"/>
</g>
<defs>
<clipPath id="clip0_516_7996">
<rect width="48" height="48" fill="white"/>
</clipPath>
</defs>
</svg>
