<svg width="32" height="32" viewBox="0 0 32 32" fill="none" xmlns="http://www.w3.org/2000/svg">
<g clip-path="url(#clip0_279_5403)">
<path d="M30.5454 20.3632H1.45456C0.654563 20.3632 0 19.7087 0 18.9087V2.90866C0 2.10866 0.654563 1.4541 1.45456 1.4541H30.5455C31.3455 1.4541 32.0001 2.10866 32.0001 2.90866V18.9087C32 19.7087 31.3454 20.3632 30.5454 20.3632Z" fill="#0E9347"/>
<path d="M26.9074 14.5459C25.2346 14.5459 23.7074 15.3459 22.8346 16.655C22.1074 16.2914 21.3074 16.0005 20.3619 16.0005C17.8165 16.0005 15.7074 17.8914 15.3438 20.3641H30.5437C31.271 20.3641 31.8528 19.855 31.9983 19.1277C31.7074 16.5823 29.5256 14.5459 26.9074 14.5459Z" fill="#0D8944"/>
<path d="M27.6349 18.9091H4.36219C4.36219 17.3091 3.05313 16.0001 1.45312 16.0001V5.81824C3.05313 5.81824 4.36219 4.50918 4.36219 2.90918H27.6349C27.6349 4.50918 28.944 5.81824 30.544 5.81824V16.0001C28.944 16.0001 27.6349 17.3091 27.6349 18.9091Z" fill="#3BB54A"/>
<path d="M26.9085 14.5449C25.2358 14.5449 23.7085 15.3449 22.8358 16.654C22.1085 16.2904 21.3085 15.9995 20.3631 15.9995C18.3267 15.9995 16.5813 17.1631 15.7812 18.9085H27.6358C27.6358 17.3085 28.8722 16.0722 30.4722 15.9995C29.5267 15.1267 28.2904 14.5449 26.9085 14.5449Z" fill="#0E9347"/>
<path d="M16.0018 17.4542C19.2151 17.4542 21.82 14.5237 21.82 10.9087C21.82 7.29377 19.2151 4.36328 16.0018 4.36328C12.7885 4.36328 10.1836 7.29377 10.1836 10.9087C10.1836 14.5237 12.7885 17.4542 16.0018 17.4542Z" fill="#0E9347"/>
<path d="M7.27487 12.3632C8.07821 12.3632 8.72944 11.712 8.72944 10.9087C8.72944 10.1053 8.07821 9.4541 7.27487 9.4541C6.47154 9.4541 5.82031 10.1053 5.82031 10.9087C5.82031 11.712 6.47154 12.3632 7.27487 12.3632Z" fill="#0E9347"/>
<path d="M24.728 12.3632C25.5313 12.3632 26.1826 11.712 26.1826 10.9087C26.1826 10.1053 25.5313 9.4541 24.728 9.4541C23.9247 9.4541 23.2734 10.1053 23.2734 10.9087C23.2734 11.712 23.9247 12.3632 24.728 12.3632Z" fill="#0E9347"/>
<path d="M16.7301 10.1821H15.2755C14.8391 10.1821 14.5483 9.89121 14.5483 9.4549C14.5483 9.01852 14.8392 8.72765 15.2755 8.72765H17.4573C17.8937 8.72765 18.1846 8.43671 18.1846 8.0004C18.1846 7.56402 17.8936 7.27315 17.4573 7.27315H16.7301C16.7301 6.83677 16.4391 6.5459 16.0028 6.5459C15.5664 6.5459 15.2756 6.83684 15.2756 7.27315C14.0392 7.27315 13.0938 8.21859 13.0938 9.45496C13.0938 10.6913 14.0392 11.6368 15.2756 11.6368H16.7301C17.1665 11.6368 17.4574 11.9277 17.4574 12.364C17.4574 12.8004 17.1664 13.0913 16.7301 13.0913H14.5483C14.1119 13.0913 13.8211 13.3822 13.8211 13.8185C13.8211 14.2549 14.112 14.5458 14.5483 14.5458H15.2756C15.2756 14.9821 15.5665 15.273 16.0028 15.273C16.4392 15.273 16.7301 14.9821 16.7301 14.5458C17.9664 14.5458 18.9119 13.6003 18.9119 12.364C18.9119 11.1276 17.9664 10.1821 16.7301 10.1821Z" fill="#89C763"/>
<path d="M18.9073 26.1819C21.719 26.1819 23.9983 23.9026 23.9983 21.0909C23.9983 18.2793 21.719 16 18.9073 16C16.0957 16 13.8164 18.2793 13.8164 21.0909C13.8164 23.9026 16.0957 26.1819 18.9073 26.1819Z" fill="#FFCA5D"/>
<path d="M25.4542 24.7278C28.2659 24.7278 30.5452 22.4485 30.5452 19.6368C30.5452 16.8252 28.2659 14.5459 25.4542 14.5459C22.6426 14.5459 20.3633 16.8252 20.3633 19.6368C20.3633 22.4485 22.6426 24.7278 25.4542 24.7278Z" fill="#F6B545"/>
<path d="M25.4542 14.5459C22.6178 14.5459 20.3633 16.8005 20.3633 19.6368C20.3633 22.4732 22.6178 24.7278 25.4542 24.7278C28.2906 24.7278 30.5452 22.4732 30.5452 19.6368C30.5452 16.8005 28.2906 14.5459 25.4542 14.5459ZM25.4542 23.2732C23.4178 23.2732 21.8178 21.6732 21.8178 19.6368C21.8178 17.6005 23.4178 16.0005 25.4542 16.0005C27.4906 16.0005 29.0906 17.6005 29.0906 19.6368C29.0906 21.6732 27.4906 23.2732 25.4542 23.2732Z" fill="#FFCB5B"/>
<path d="M25.4531 24.6549C28.2895 24.7277 30.5441 22.4003 30.5441 19.6367H30.4713C30.1077 19.6367 29.8168 19.9277 29.7441 20.2913C29.5986 21.3095 29.0895 22.2549 28.3622 22.9095C27.7804 23.4913 26.9804 23.8549 26.1077 24.0003C25.744 24.0003 25.4531 24.2913 25.4531 24.6549Z" fill="#F6B545"/>
<path d="M25.4542 14.6179C22.6178 14.5451 20.3633 16.8724 20.3633 19.6361H20.436C20.7997 19.6361 21.0906 19.3451 21.1633 18.9815C21.3087 17.9633 21.8178 17.0179 22.5451 16.3633C23.1269 15.7815 23.9269 15.4179 24.7997 15.2724C25.1633 15.2724 25.4542 14.9815 25.4542 14.6179Z" fill="#FFE27A"/>
<path d="M22.3255 20.1454C22.3255 18.1091 23.9255 16.5091 25.9618 16.5091C26.8346 16.5091 27.6346 16.8 28.2891 17.3818C27.5618 16.5091 26.6164 16 25.4528 16C23.4164 16 21.8164 17.6 21.8164 19.6364C21.8164 20.8 22.3255 21.7454 23.1255 22.4C22.6164 21.8182 22.3255 21.0182 22.3255 20.1454Z" fill="#F19920"/>
<path d="M27.6359 21.8906C27.5631 21.8906 27.4904 21.8906 27.4177 21.8179C27.2722 21.6725 27.2722 21.4543 27.4177 21.3088C27.854 20.8725 28.0722 20.2179 28.0722 19.6361C28.0722 19.4179 28.2177 19.2725 28.4359 19.2725C28.654 19.2725 28.7995 19.4179 28.7995 19.6361C28.7995 20.4361 28.5085 21.2361 27.9995 21.8179C27.854 21.8906 27.7085 21.8906 27.6359 21.8906Z" fill="#FFCB5B"/>
<path d="M25.4538 21.8186C25.0174 21.8186 24.7266 21.5277 24.7266 21.0914V18.1823C24.7266 17.746 25.0175 17.4551 25.4538 17.4551C25.8901 17.4551 26.1811 17.746 26.1811 18.1823V21.0914C26.1811 21.5277 25.8902 21.8186 25.4538 21.8186Z" fill="#F19920"/>
<path d="M28.1466 23.9272C27.6376 22.1091 26.3284 20.6545 24.6557 20C24.3647 18.3273 23.2739 16.8727 21.8921 16C21.0193 16.9454 20.4375 18.1818 20.4375 19.5636C20.4375 22.4 22.6921 24.6546 25.5284 24.6546C26.4739 24.7272 27.3466 24.4364 28.1466 23.9272Z" fill="#F19920"/>
<path d="M23.1255 22.3998C22.6165 21.7453 22.2528 20.9453 22.2528 20.0726C22.2528 19.0544 22.6892 18.1089 23.4164 17.4544C23.271 17.2362 23.1255 17.0907 22.98 16.9453C22.2528 17.5999 21.8164 18.5453 21.8164 19.6363C21.8165 20.7998 22.3255 21.7453 23.1255 22.3998Z" fill="#E78825"/>
<path d="M24.7266 20.0723V21.0905C24.7266 21.5268 25.0175 21.8177 25.4538 21.8177C25.8901 21.8177 26.1811 21.5268 26.1811 21.0905V20.945C25.7448 20.5813 25.2357 20.2905 24.7266 20.0723Z" fill="#E78825"/>
<path d="M28.1451 23.9269C27.9997 23.4178 27.8542 22.9815 27.5633 22.5451C26.9815 22.9815 26.2542 23.2723 25.4542 23.2723C23.4178 23.2723 21.8178 21.6723 21.8178 19.636C21.8178 18.545 22.2542 17.5996 22.9815 16.945C22.6178 16.5814 22.2542 16.2905 21.8178 16.0723C20.9451 17.0177 20.3633 18.2541 20.3633 19.6359C20.3633 22.4723 22.6178 24.7268 25.4542 24.7268C26.4724 24.7269 27.3451 24.436 28.1451 23.9269Z" fill="#F6B545"/>
<path d="M27.9259 23.2725C27.4168 23.6361 26.7622 23.8543 26.1077 23.9997C25.7441 24.0725 25.4531 24.3633 25.4531 24.727C26.4713 24.727 27.3441 24.436 28.1441 23.927C28.0714 23.7088 27.9986 23.4906 27.9259 23.2725Z" fill="#F19920"/>
<path d="M21.8178 16.0723C20.9451 17.0177 20.3633 18.2541 20.3633 19.6359H20.436C20.7997 19.6359 21.0906 19.345 21.1633 18.9813C21.3087 17.9631 21.8178 17.0904 22.4723 16.4359C22.2542 16.3631 22.036 16.2177 21.8178 16.0723Z" fill="#FFCB5B"/>
<path d="M18.9073 26.1819C21.719 26.1819 23.9983 23.9026 23.9983 21.0909C23.9983 18.2793 21.719 16 18.9073 16C16.0957 16 13.8164 18.2793 13.8164 21.0909C13.8164 23.9026 16.0957 26.1819 18.9073 26.1819Z" fill="#F6B545"/>
<path d="M18.1797 24.7277C18.1797 25.2367 18.2524 25.6731 18.3979 26.1822C18.5433 26.1822 18.7615 26.1822 18.9069 26.1822C21.7433 26.1822 23.9979 23.9277 23.9979 21.0913C23.9979 20.5822 23.9251 20.1458 23.7797 19.6367C23.6343 19.6367 23.4161 19.6367 23.2706 19.6367C20.4343 19.6368 18.1797 21.8913 18.1797 24.7277Z" fill="#F19920"/>
<path d="M18.9073 16C16.071 16 13.8164 18.2546 13.8164 21.0909C13.8164 23.9273 16.071 26.1819 18.9073 26.1819C21.7437 26.1819 23.9983 23.9272 23.9983 21.0909C23.9983 18.2546 21.7437 16 18.9073 16ZM18.9073 24.7272C16.871 24.7272 15.271 23.1273 15.271 21.0909C15.271 19.0545 16.871 17.4545 18.9073 17.4545C20.9437 17.4545 22.5437 19.0545 22.5437 21.0909C22.5437 23.1273 20.9437 24.7272 18.9073 24.7272Z" fill="#FFCB5B"/>
<path d="M18.9062 26.1089C21.7426 26.1817 23.9972 23.8544 23.9972 21.0908H23.9244C23.5608 21.0908 23.2699 21.3818 23.1972 21.7454C23.0517 22.7636 22.5426 23.709 21.8154 24.3636C21.2336 24.9454 20.4336 25.309 19.5608 25.4545C19.1972 25.4544 18.9062 25.7453 18.9062 26.1089Z" fill="#F6B545"/>
<path d="M18.9073 16.0729C16.071 16.0002 13.8164 18.3275 13.8164 21.0911H13.8892C14.2528 21.0911 14.5437 20.8002 14.6164 20.4366C14.7618 19.4184 15.271 18.4729 15.9982 17.8184C16.58 17.2366 17.38 16.8729 18.2528 16.7274C18.6165 16.7274 18.9073 16.4366 18.9073 16.0729Z" fill="#FFE27A"/>
<path d="M15.7826 21.5995C15.7826 19.5632 17.3826 17.9632 19.4189 17.9632C20.2917 17.9632 21.0917 18.2541 21.7462 18.8359C21.0189 17.9632 20.0734 17.4541 18.9098 17.4541C16.8734 17.4541 15.2734 19.0541 15.2734 21.0905C15.2734 22.2541 15.7825 23.1995 16.5825 23.8541C16.0735 23.2723 15.7826 22.4723 15.7826 21.5995Z" fill="#F19920"/>
<path d="M21.0929 23.3457C21.0201 23.3457 20.9475 23.3457 20.8747 23.273C20.7293 23.1275 20.7293 22.9094 20.8747 22.7639C21.3111 22.3275 21.5293 21.673 21.5293 21.0912C21.5293 20.873 21.6747 20.7275 21.8929 20.7275C22.1111 20.7275 22.2565 20.873 22.2565 21.0912C22.2565 21.8912 21.9656 22.6912 21.4565 23.273C21.311 23.3457 21.1656 23.3457 21.0929 23.3457Z" fill="#FFCB5B"/>
<path d="M18.9108 23.2727C18.4745 23.2727 18.1836 22.9818 18.1836 22.5455V19.6364C18.1836 19.2001 18.4745 18.9092 18.9108 18.9092C19.3472 18.9092 19.6381 19.2001 19.6381 19.6364V22.5455C19.6382 22.9818 19.3472 23.2727 18.9108 23.2727Z" fill="#F19920"/>
<path d="M22.2524 19.7095C22.3978 20.1458 22.5433 20.5822 22.5433 21.0913C22.5433 23.1277 20.9433 24.7277 18.9069 24.7277C18.6887 24.7277 18.3979 24.7277 18.1797 24.6549V24.7277C18.1797 25.2367 18.2524 25.6731 18.3979 26.1822C18.5433 26.1822 18.7615 26.1822 18.9069 26.1822C21.7433 26.1822 23.9979 23.9277 23.9979 21.0913C23.9979 20.5822 23.9251 20.1458 23.7797 19.6367C23.6343 19.6367 23.4161 19.6367 23.2706 19.6367C22.9069 19.6368 22.616 19.6368 22.2524 19.7095Z" fill="#F6B545"/>
<path d="M22.5441 30.5461C25.3557 30.5461 27.635 28.2668 27.635 25.4552C27.635 22.6435 25.3557 20.3643 22.5441 20.3643C19.7324 20.3643 17.4531 22.6435 17.4531 25.4552C17.4531 28.2668 19.7324 30.5461 22.5441 30.5461Z" fill="#F6B545"/>
<path d="M22.5441 20.3633C19.7077 20.3633 17.4531 22.6178 17.4531 25.4542C17.4531 28.2906 19.7077 30.5452 22.5441 30.5452C25.3804 30.5452 27.635 28.2906 27.635 25.4542C27.635 22.6178 25.3804 20.3633 22.5441 20.3633ZM22.5441 29.0906C20.5077 29.0906 18.9077 27.4906 18.9077 25.4542C18.9077 23.4178 20.5077 21.8178 22.5441 21.8178C24.5804 21.8178 26.1804 23.4178 26.1804 25.4542C26.1804 27.4906 24.5804 29.0906 22.5441 29.0906Z" fill="#FFCB5B"/>
<path d="M22.5469 30.4723C25.3832 30.545 27.6378 28.2177 27.6378 25.4541H27.5651C27.2014 25.4541 26.9105 25.745 26.8378 26.1087C26.6924 27.1269 26.1833 28.0723 25.456 28.7269C24.8742 29.3087 24.0742 29.6723 23.2014 29.8178C22.8378 29.8177 22.5469 30.1086 22.5469 30.4723Z" fill="#F6B545"/>
<path d="M22.5441 20.4362C19.7077 20.3635 17.4531 22.6908 17.4531 25.4544H17.5259C17.8895 25.4544 18.1804 25.1635 18.2531 24.7999C18.3986 23.7817 18.9077 22.8362 19.6349 22.1817C20.2167 21.5999 21.0167 21.2362 21.8895 21.0907C22.2532 21.0908 22.5441 20.7999 22.5441 20.4362Z" fill="#FFE27A"/>
<path d="M19.4154 25.9638C19.4154 23.9274 21.0154 22.3274 23.0517 22.3274C23.9245 22.3274 24.7245 22.6184 25.379 23.2002C24.6517 22.3274 23.7062 21.8184 22.5426 21.8184C20.5062 21.8184 18.9062 23.4184 18.9062 25.4547C18.9062 26.6184 19.4153 27.5638 20.2153 28.2184C19.7062 27.6365 19.4154 26.8365 19.4154 25.9638Z" fill="#F19920"/>
<path d="M24.7257 27.709C24.653 27.709 24.5803 27.709 24.5075 27.6363C24.3621 27.4908 24.3621 27.2726 24.5075 27.1272C24.9439 26.6908 25.1621 26.0363 25.1621 25.4544C25.1621 25.2363 25.3075 25.0908 25.5257 25.0908C25.7439 25.0908 25.8893 25.2363 25.8893 25.4544C25.8893 26.2544 25.5984 27.0544 25.0893 27.6363C24.9439 27.709 24.7985 27.709 24.7257 27.709Z" fill="#FFCB5B"/>
<path d="M22.5476 27.6361C22.1112 27.6361 21.8203 27.3451 21.8203 26.9088V23.9997C21.8203 23.5633 22.1112 23.2725 22.5476 23.2725C22.9839 23.2725 23.2748 23.5634 23.2748 23.9997V26.9088C23.2749 27.3451 22.9839 27.6361 22.5476 27.6361Z" fill="#F19920"/>
</g>
<defs>
<clipPath id="clip0_279_5403">
<rect width="32" height="32" fill="white"/>
</clipPath>
</defs>
</svg>
