<svg width="32" height="32" viewBox="0 0 32 32" fill="none" xmlns="http://www.w3.org/2000/svg">
<rect width="32" height="32" fill="white"/>
<path fill-rule="evenodd" clip-rule="evenodd" d="M15.8629 13.9604V13.6053H16.9263V18.5974H16.3179C16.0675 18.5974 15.8642 18.3952 15.8629 18.1451C15.8627 18.1452 15.8626 18.1453 15.8624 18.1454C15.4341 18.4587 14.9046 18.6446 14.3327 18.6446C12.9004 18.6446 11.7391 17.4841 11.7391 16.0527C11.7391 14.6214 12.9004 13.4608 14.3327 13.4608C14.9046 13.4608 15.4341 13.6468 15.8624 13.96C15.8626 13.9601 15.8627 13.9602 15.8629 13.9604ZM11.4635 12V12.1619C11.4635 12.4637 11.4232 12.7102 11.227 12.9993L11.2033 13.0264C11.1605 13.0749 11.06 13.189 11.0121 13.2509L7.59824 17.5358H11.4635V18.1424C11.4635 18.3937 11.2596 18.5974 11.0081 18.5974H6V18.3114C6 17.9611 6.08704 17.8048 6.19705 17.642L9.83634 13.1375H6.15172V12H11.4635ZM18.2161 18.5974C18.007 18.5974 17.8369 18.4275 17.8369 18.2186V12H18.9752V18.5974H18.2161ZM22.3408 13.4296C23.7831 13.4296 24.9519 14.5988 24.9519 16.0389C24.9519 17.4802 23.7831 18.6495 22.3408 18.6495C20.8985 18.6495 19.7297 17.4802 19.7297 16.0389C19.7297 14.5988 20.8985 13.4296 22.3408 13.4296ZM14.3327 17.5776C15.1756 17.5776 15.8587 16.895 15.8587 16.0527C15.8587 15.2116 15.1756 14.529 14.3327 14.529C13.4898 14.529 12.8068 15.2116 12.8068 16.0527C12.8068 16.895 13.4898 17.5776 14.3327 17.5776ZM22.3408 17.5751C23.1887 17.5751 23.8767 16.8875 23.8767 16.0389C23.8767 15.1916 23.1887 14.5041 22.3408 14.5041C21.4917 14.5041 20.8049 15.1916 20.8049 16.0389C20.8049 16.8875 21.4917 17.5751 22.3408 17.5751Z" fill="#0068FF"/>
</svg>
