<svg width="190" height="190" viewBox="0 0 190 190" fill="none" xmlns="http://www.w3.org/2000/svg">
<g clip-path="url(#clip0_387_5955)">
<path d="M154.308 154.404C145.162 147.887 129.097 144.778 117.879 143.452C152.881 89.4283 150.901 92.5158 151.109 92.0998C161.304 71.9405 160.18 48.467 148.099 29.3059C136.22 10.4636 115.797 -0.484743 93.4443 0.0162338C47.1355 1.05938 17.9074 50.6219 38.8853 92.0994C39.0928 92.5139 37.0109 89.2702 72.1156 143.452C57.0563 145.232 28.5645 150.83 28.5645 166.083C28.5645 190.166 102.376 195.643 139.638 184.398C145.813 182.535 150.746 180.304 154.308 177.762C163.81 170.988 163.81 161.184 154.308 154.404ZM48.6904 86.8147C31.5967 52.5724 55.8131 12.0022 93.6966 11.1464C133.222 10.2606 158.753 51.8551 141.304 86.8147L105.29 142.409L98.2239 153.312L97.9234 153.78C96.9919 155.216 95.5669 155.372 94.9951 155.372C94.4273 155.372 93.0023 155.216 92.0705 153.78L91.7699 153.312C82.6131 139.182 90.4852 151.333 48.6904 86.8147ZM136.424 173.739C113.687 180.604 76.3072 180.605 53.5669 173.739C42.1105 170.284 39.698 166.655 39.698 166.083C39.698 163.927 50.7841 156.319 78.9145 153.951L82.726 159.833C88.4876 168.732 101.514 168.721 107.268 159.833L111.08 153.951C120.603 154.752 129.295 156.277 136.424 158.426C147.88 161.885 150.292 165.511 150.292 166.083C150.292 166.655 147.88 170.284 136.424 173.739Z" fill="#B7E8F3"/>
<path d="M123.873 91.0641C123.886 90.9409 127.773 55.3248 127.773 55.3248C128.255 50.3162 124.311 45.9614 119.271 45.9614H112.316V33.2507C112.316 27.298 107.473 22.4548 101.516 22.4548H88.4751C82.5187 22.4548 77.6756 27.298 77.6756 33.2507V45.9618H70.7209C65.3742 45.9618 61.5753 50.8272 62.2295 55.4068L66.1709 91.0756C66.6867 95.7481 70.6207 99.2701 75.3228 99.2701H114.721C119.427 99.2698 123.361 95.7403 123.873 91.0641ZM88.8091 33.5884H101.183V45.9581H88.8091V33.5884ZM77.0481 88.1358L73.6151 57.095H116.38L112.991 88.1358H77.0481Z" fill="#B7E8F3"/>
</g>
<defs>
<clipPath id="clip0_387_5955">
<rect width="190" height="190" fill="white"/>
</clipPath>
</defs>
</svg>
