<svg width="33" height="33" viewBox="0 0 33 33" fill="none" xmlns="http://www.w3.org/2000/svg">
<g clip-path="url(#clip0_371_6954)">
<path d="M19.7976 16.2942C19.4522 16.2942 19.1719 16.5745 19.1719 16.9199C19.1719 17.2653 19.4522 17.5456 19.7976 17.5456C20.1429 17.5456 20.4232 17.2653 20.4232 16.9199C20.4232 16.5745 20.1429 16.2942 19.7976 16.2942Z" fill="white"/>
<path d="M0.180862 14.8299C0.182551 14.8319 0.184053 14.834 0.185804 14.8359C0.186055 14.8362 0.186242 14.8365 0.186493 14.8368L15.5784 31.8554C15.693 31.9823 15.8669 32.0614 16.0424 32.0614C16.2174 32.0614 16.3909 31.9831 16.5065 31.8554L31.8983 14.8368C31.8986 14.8365 31.8988 14.8362 31.899 14.8359C31.9008 14.834 31.9022 14.8319 31.904 14.8299C32.1045 14.6018 32.1098 14.2667 31.9278 14.0333C31.926 14.031 31.9247 14.0285 31.9229 14.0262L26.9174 7.76937C26.7987 7.62095 26.6189 7.53455 26.4288 7.53455C23.8781 7.53455 7.73151 7.53455 5.65605 7.53455C5.46596 7.53455 5.2862 7.62095 5.16745 7.76937L0.161966 14.0262C0.160151 14.0285 0.1589 14.031 0.157086 14.0333C-0.0268034 14.2692 -0.0174181 14.6044 0.180862 14.8299ZM12.6425 8.78592H19.4423L22.4456 13.7914H9.63922L12.6425 8.78592ZM9.49406 15.0428H22.5907L16.0424 29.8856L9.49406 15.0428ZM23.9585 15.0428H30.0248L18.181 28.1382L23.9585 15.0428ZM8.12631 15.0428L13.9037 28.1382L2.05998 15.0428H8.12631ZM30.1324 13.7914H23.9048L20.9016 8.78592H26.128L30.1324 13.7914ZM5.95669 8.78592H11.1832L8.17987 13.7914H1.9523L5.95669 8.78592Z" fill="white"/>
<path d="M17.293 16.2942H12.6491C12.3036 16.2942 12.0234 16.5743 12.0234 16.9199C12.0234 17.2654 12.3036 17.5456 12.6491 17.5456H17.293C17.6385 17.5456 17.9186 17.2654 17.9186 16.9199C17.9186 16.5743 17.6385 16.2942 17.293 16.2942Z" fill="white"/>
<path d="M16.0437 5.03185C16.3892 5.03185 16.6693 4.75173 16.6693 4.40616V0.652052C16.6693 0.306486 16.3892 0.0263672 16.0437 0.0263672C15.6981 0.0263672 15.418 0.306486 15.418 0.652052V4.40616C15.418 4.75173 15.6981 5.03185 16.0437 5.03185Z" fill="white"/>
<path d="M20.24 4.84863L22.7428 2.34589C22.9871 2.10156 22.9871 1.70537 22.7428 1.46098C22.4984 1.21659 22.1023 1.21665 21.8579 1.46098L19.3551 3.96372C19.1108 4.20805 19.1108 4.60424 19.3551 4.84863C19.5995 5.09296 19.9956 5.09302 20.24 4.84863Z" fill="white"/>
<path d="M11.8462 4.84861C12.0905 5.09294 12.4867 5.09294 12.7311 4.84861C12.9754 4.60428 12.9754 4.20809 12.7311 3.9637L10.2283 1.46096C9.984 1.21663 9.58782 1.21663 9.34343 1.46096C9.09903 1.70529 9.0991 2.10147 9.34343 2.34586L11.8462 4.84861Z" fill="white"/>
</g>
<defs>
<clipPath id="clip0_371_6954">
<rect width="32.0351" height="32.0351" fill="white" transform="translate(0.0253906 0.0263672)"/>
</clipPath>
</defs>
</svg>
