<svg width="24" height="24" viewBox="0 0 24 24" fill="none" xmlns="http://www.w3.org/2000/svg">
<path d="M18.1548 5.90564C18.2955 5.62317 18.375 5.30517 18.375 4.96875C18.375 3.80564 17.4287 2.85938 16.2656 2.85938C15.1025 2.85938 14.1562 3.80564 14.1562 4.96875C14.1562 5.30517 14.2358 5.62317 14.3765 5.90564C11.0219 6.75089 8.53125 9.79298 8.53125 13.4062C8.53125 17.671 12.0009 21.1406 16.2656 21.1406C20.5304 21.1406 24 17.671 24 13.4062C24 9.79298 21.5093 6.75089 18.1548 5.90564ZM15.5625 4.96875C15.5625 4.58105 15.8779 4.26562 16.2656 4.26562C16.6533 4.26562 16.9688 4.58105 16.9688 4.96875C16.9688 5.35645 16.6533 5.67188 16.2656 5.67188C15.8779 5.67188 15.5625 5.35645 15.5625 4.96875ZM16.9688 19.6951V19.0312C16.9688 18.6429 16.6539 18.3281 16.2656 18.3281C15.8773 18.3281 15.5625 18.6429 15.5625 19.0312V19.6951C12.6338 19.3698 10.302 17.0381 9.97678 14.1094H10.6406C11.0289 14.1094 11.3438 13.7946 11.3438 13.4062C11.3438 13.0179 11.0289 12.7031 10.6406 12.7031H9.97678C10.302 9.77442 12.6338 7.44267 15.5625 7.11741V7.78125C15.5625 8.16956 15.8773 8.48438 16.2656 8.48438C16.6539 8.48438 16.9688 8.16956 16.9688 7.78125V7.11741C19.8975 7.44267 22.2292 9.77447 22.5545 12.7031H21.8906C21.5023 12.7031 21.1875 13.0179 21.1875 13.4062C21.1875 13.7946 21.5023 14.1094 21.8906 14.1094H22.5545C22.2292 17.0381 19.8975 19.3698 16.9688 19.6951Z" fill="white"/>
<path d="M6.42188 5.67188H4.92188C4.53356 5.67188 4.21875 5.98669 4.21875 6.375C4.21875 6.76331 4.53356 7.07812 4.92188 7.07812H6.42188C6.81019 7.07812 7.125 6.76331 7.125 6.375C7.125 5.98669 6.81019 5.67188 6.42188 5.67188Z" fill="white"/>
<path d="M6.42188 9.89062H3.51562C3.12731 9.89062 2.8125 10.2054 2.8125 10.5938C2.8125 10.9821 3.12731 11.2969 3.51562 11.2969H6.42188C6.81019 11.2969 7.125 10.9821 7.125 10.5938C7.125 10.2054 6.81019 9.89062 6.42188 9.89062Z" fill="white"/>
<path d="M6.42188 14.1094H2.10938C1.72106 14.1094 1.40625 14.4242 1.40625 14.8125C1.40625 15.2008 1.72106 15.5156 2.10938 15.5156H6.42188C6.81019 15.5156 7.125 15.2008 7.125 14.8125C7.125 14.4242 6.81019 14.1094 6.42188 14.1094Z" fill="white"/>
<path d="M6.42188 18.3281H0.703125C0.314812 18.3281 0 18.6429 0 19.0312C0 19.4196 0.314812 19.7344 0.703125 19.7344H6.42188C6.81019 19.7344 7.125 19.4196 7.125 19.0312C7.125 18.6429 6.81019 18.3281 6.42188 18.3281Z" fill="white"/>
<path d="M19.0781 12.7031H16.9688V10.5938C16.9688 10.2054 16.6539 9.89062 16.2656 9.89062C15.8773 9.89062 15.5625 10.2054 15.5625 10.5938V13.4062C15.5625 13.7946 15.8773 14.1094 16.2656 14.1094H19.0781C19.4664 14.1094 19.7812 13.7946 19.7812 13.4062C19.7812 13.0179 19.4664 12.7031 19.0781 12.7031Z" fill="white"/>
</svg>
