<svg width="24" height="24" viewBox="0 0 24 24" fill="none" xmlns="http://www.w3.org/2000/svg">
<g clip-path="url(#clip0_371_7066)">
<path d="M1.96777 17.5226C0.882734 17.5226 0 18.4053 0 19.4904C0 20.5754 0.882734 21.4581 1.96777 21.4581C3.05281 21.4581 3.93555 20.5754 3.93555 19.4904C3.93555 18.4053 3.05281 17.5226 1.96777 17.5226ZM1.96777 20.5211C1.39942 20.5211 0.937035 20.0587 0.937035 19.4904C0.937035 18.922 1.39942 18.4596 1.96777 18.4596C2.53613 18.4596 2.99851 18.922 2.99851 19.4904C2.99851 20.0587 2.53613 20.5211 1.96777 20.5211Z" fill="white"/>
<path d="M22.0329 13.3996C23.118 13.3996 24.0007 12.5169 24.0007 11.4318C24.0007 10.3468 23.118 9.46405 22.0329 9.46405C20.9479 9.46405 20.0652 10.3468 20.0652 11.4318C20.0652 11.526 20.0722 11.6186 20.0851 11.7093L14.1319 14.1003C14.0323 13.945 13.9169 13.8009 13.787 13.6712L15.4915 11.169C15.6402 11.215 15.798 11.2399 15.9616 11.2399C16.8399 11.2399 17.5545 10.5253 17.5545 9.64692C17.5545 8.76854 16.8399 8.05396 15.9616 8.05396C15.0832 8.05396 14.3686 8.76854 14.3686 9.64692C14.3686 10.0225 14.4995 10.3679 14.7178 10.6405L13.0129 13.1431C12.8408 13.0676 12.6587 13.011 12.4692 12.9753V0.468518C12.4692 0.209755 12.2594 0 12.0007 0C11.742 0 11.5322 0.209755 11.5322 0.468518V12.9753C11.529 12.9759 11.5258 12.9763 11.5226 12.977L9.59689 8.60165C9.93422 8.30935 10.1482 7.87831 10.1482 7.39799C10.1482 6.51961 9.43365 5.80503 8.55528 5.80503C7.6769 5.80503 6.96232 6.51961 6.96232 7.39799C6.96232 8.27636 7.6769 8.99095 8.55528 8.99095C8.61768 8.99095 8.67911 8.98696 8.73969 8.97994L10.6511 13.3227C10.355 13.5103 10.0999 13.757 9.90376 14.047L5.46273 12.1327C5.48049 12.0266 5.49024 11.9177 5.49024 11.8066C5.49024 10.7216 4.6075 9.83882 3.52246 9.83882C2.43742 9.83882 1.55469 10.7216 1.55469 11.8066C1.55469 12.8916 2.43742 13.7744 3.52246 13.7744C4.16227 13.7744 4.73152 13.4673 5.09115 12.9929L9.53251 14.9073C9.4925 15.0857 9.47071 15.2708 9.47071 15.461C9.47071 15.6293 9.48758 15.7937 9.51906 15.9528L7.09032 16.9283C6.8502 17.0248 6.73373 17.2976 6.83015 17.5377C6.90357 17.7206 7.07931 17.8317 7.26503 17.8317C7.32312 17.8317 7.3823 17.8208 7.4395 17.7978L9.86952 16.8218C10.0684 17.1322 10.333 17.3963 10.6437 17.5947L9.3601 20.8078C9.31727 20.8043 9.27417 20.8021 9.2305 20.8021C8.35213 20.8021 7.63755 21.5167 7.63755 22.395C7.63755 23.2734 8.35213 23.988 9.2305 23.988C10.1089 23.988 10.8235 23.2734 10.8235 22.395C10.8235 21.8949 10.5916 21.4482 10.23 21.156L11.5135 17.9434C11.6712 17.9743 11.834 17.991 12.0007 17.991C12.8231 17.991 13.5547 17.5964 14.0172 16.9869L18.1846 19.059C18.1534 19.1979 18.1364 19.3421 18.1364 19.4902C18.1364 20.5753 19.0191 21.458 20.1042 21.458C21.1892 21.458 22.072 20.5753 22.072 19.4902C22.072 18.4052 21.1892 17.5225 20.1042 17.5225C19.5028 17.5225 18.9639 17.7939 18.6027 18.2204L14.4351 16.1482C14.4969 15.9295 14.5308 15.6992 14.5308 15.461C14.5308 15.2927 14.5139 15.1284 14.4824 14.9692L20.4353 12.5784C20.7928 13.0752 21.3755 13.3996 22.0329 13.3996ZM15.9616 8.99095C16.3233 8.99095 16.6175 9.28517 16.6175 9.64687C16.6175 10.0086 16.3233 10.3028 15.9616 10.3028C15.5999 10.3028 15.3056 10.0086 15.3056 9.64687C15.3056 9.28517 15.5999 8.99095 15.9616 8.99095ZM7.89935 7.39799C7.89935 7.03629 8.19358 6.74206 8.55528 6.74206C8.91697 6.74206 9.2112 7.03629 9.2112 7.39799C9.2112 7.75968 8.91697 8.05391 8.55528 8.05391C8.19358 8.05391 7.89935 7.75968 7.89935 7.39799ZM3.52246 12.8374C2.9541 12.8374 2.49172 12.375 2.49172 11.8066C2.49172 11.2383 2.9541 10.7759 3.52246 10.7759C4.09082 10.7759 4.5532 11.2383 4.5532 11.8066C4.5532 12.375 4.09082 12.8374 3.52246 12.8374ZM9.2305 23.0511C8.86881 23.0511 8.57458 22.7568 8.57458 22.3951C8.57458 22.0334 8.86881 21.7392 9.2305 21.7392C9.5922 21.7392 9.88643 22.0334 9.88643 22.3951C9.88643 22.7568 9.5922 23.0511 9.2305 23.0511ZM20.1041 18.4596C20.6725 18.4596 21.1349 18.922 21.1349 19.4903C21.1349 20.0587 20.6725 20.5211 20.1041 20.5211C19.5358 20.5211 19.0734 20.0587 19.0734 19.4903C19.0734 18.922 19.5358 18.4596 20.1041 18.4596ZM12.0007 17.054C11.1223 17.054 10.4077 16.3395 10.4077 15.4611C10.4077 14.5827 11.1223 13.8681 12.0007 13.8681C12.8791 13.8681 13.5937 14.5827 13.5937 15.4611C13.5937 16.3395 12.8791 17.054 12.0007 17.054ZM22.0329 10.4011C22.6013 10.4011 23.0637 10.8635 23.0637 11.4318C23.0637 12.0002 22.6013 12.4626 22.0329 12.4626C21.4646 12.4626 21.0022 12.0002 21.0022 11.4318C21.0022 10.8635 21.4646 10.4011 22.0329 10.4011Z" fill="white"/>
<path d="M5.31813 17.6824C5.19491 17.6824 5.07403 17.7325 4.98693 17.8196C4.89932 17.9068 4.84961 18.0272 4.84961 18.1509C4.84961 18.2741 4.89932 18.395 4.98693 18.4821C5.07403 18.5693 5.19449 18.6194 5.31813 18.6194C5.44135 18.6194 5.56222 18.5693 5.64937 18.4821C5.73651 18.395 5.78664 18.2741 5.78664 18.1509C5.78664 18.0272 5.73656 17.9068 5.64937 17.8196C5.56218 17.7325 5.4413 17.6824 5.31813 17.6824Z" fill="white"/>
</g>
<defs>
<clipPath id="clip0_371_7066">
<rect width="24" height="24" fill="white"/>
</clipPath>
</defs>
</svg>
