<svg width="16" height="16" viewBox="0 0 16 16" fill="none" xmlns="http://www.w3.org/2000/svg">
<path d="M8 10.375H9.875C10.1339 10.375 10.3438 10.1651 10.3438 9.90625C10.3438 9.64738 10.1339 9.4375 9.875 9.4375H8.46875V8.03125C8.46875 7.77237 8.25888 7.5625 8 7.5625C7.74112 7.5625 7.53125 7.77237 7.53125 8.03125V9.90625C7.53125 10.1651 7.74112 10.375 8 10.375Z" fill="#7A7A7A"/>
<path d="M8 16C11.3601 16 14.0938 13.2663 14.0938 9.90625C14.0938 7.73778 12.6634 5.86956 11.4015 4.22125C10.3754 2.88106 9.40625 1.61522 9.40625 0.46875C9.40625 0.209875 9.19637 0 8.9375 0C7.10612 0 7.02506 4.28125 6.125 4.28125C5.84119 4.28125 5.65781 3.448 5.65625 2.875C5.65625 2.44441 5.12178 2.24206 4.8365 2.56431C3.35431 4.23875 1.90625 7.16591 1.90625 9.90625C1.90625 13.239 4.61606 16 8 16ZM4.88431 4.05306C5.18031 5.06362 5.78331 5.21875 6.125 5.21875C7.65462 5.21875 7.84875 2.46669 8.56922 1.26506C8.85947 2.44322 9.73744 3.58994 10.6571 4.79116C11.8857 6.396 13.1562 8.05547 13.1562 9.90625C13.1562 12.7494 10.8432 15.0625 8 15.0625C5.13594 15.0625 2.84375 12.7249 2.84375 9.90625C2.84375 7.83647 3.73063 5.73947 4.88431 4.05306Z" fill="#7A7A7A"/>
<path d="M8 14.125C10.3262 14.125 12.2188 12.2325 12.2188 9.90625C12.2188 7.58003 10.3262 5.6875 8 5.6875C5.67378 5.6875 3.78125 7.58003 3.78125 9.90625C3.78125 12.2325 5.67378 14.125 8 14.125ZM8 6.625C9.80928 6.625 11.2812 8.09697 11.2812 9.90625C11.2812 11.7155 9.80928 13.1875 8 13.1875C6.19072 13.1875 4.71875 11.7155 4.71875 9.90625C4.71875 8.09697 6.19072 6.625 8 6.625Z" fill="#7A7A7A"/>
</svg>
