<svg width="48" height="48" viewBox="0 0 48 48" fill="none" xmlns="http://www.w3.org/2000/svg">
<g clip-path="url(#clip0_516_7980)">
<path d="M23.999 0C14.9 0 7.49902 7.401 7.49902 16.5C7.49902 25.599 14.9 33 23.999 33C33.095 33 40.499 25.599 40.499 16.5C40.499 7.401 33.095 0 23.999 0ZM32.672 14.166L29.822 17.736L30.134 22.401C30.17 22.92 29.933 23.421 29.504 23.724C29.243 23.907 28.94 24 28.634 24C28.436 24 28.235 23.961 28.049 23.88L23.999 22.161L19.952 23.88C19.472 24.084 18.92 24.027 18.497 23.724C18.071 23.421 17.834 22.92 17.867 22.401L18.179 17.736L15.329 14.166C15.011 13.77 14.918 13.239 15.077 12.756C15.236 12.273 15.629 11.907 16.121 11.778L20.375 10.665L22.709 6.735C23.249 5.823 24.749 5.823 25.286 6.735L27.62 10.665L31.877 11.778C32.366 11.907 32.759 12.276 32.921 12.756C33.083 13.236 32.987 13.767 32.672 14.166Z" fill="white"/>
<path d="M7.12389 26.2285L0.19989 38.2495C-0.10311 38.7775 -0.0581096 39.4345 0.31089 39.9145C0.67989 40.3945 1.30089 40.6105 1.88889 40.4485L10.6969 38.0815L13.0399 46.8895C13.1959 47.4745 13.6909 47.9095 14.2909 47.9905C14.3569 47.9965 14.4259 47.9995 14.4889 47.9995C15.0199 47.9995 15.5179 47.7175 15.7879 47.2495L22.3369 35.9155C15.8299 35.3635 10.2379 31.6045 7.12389 26.2285Z" fill="white"/>
<path d="M47.8011 38.2495L40.8741 26.2285C37.7631 31.6045 32.1681 35.3635 25.6611 35.9155L32.2101 47.2495C32.4801 47.7175 32.9781 47.9995 33.5091 47.9995C33.5721 47.9995 33.6411 47.9965 33.7041 47.9875C34.3071 47.9065 34.7991 47.4715 34.9581 46.8865L37.3011 38.0785L46.1091 40.4455C46.6971 40.6075 47.3151 40.3915 47.6871 39.9115C48.0591 39.4345 48.1011 38.7775 47.8011 38.2495Z" fill="white"/>
</g>
<defs>
<clipPath id="clip0_516_7980">
<rect width="48" height="48" fill="white"/>
</clipPath>
</defs>
</svg>
