<svg width="48" height="48" viewBox="0 0 48 48" fill="none" xmlns="http://www.w3.org/2000/svg">
<path d="M42.9567 11.016L24.8178 0.224859C24.3137 -0.0749531 23.6858 -0.0749531 23.1817 0.224859L5.04271 11.016C4.55793 11.3044 4.26074 11.827 4.26074 12.3911V18.5511C4.26074 31.5255 11.757 43.3757 23.422 47.892C23.7934 48.0359 24.2057 48.036 24.5774 47.892C36.2141 43.387 43.7386 31.5625 43.7386 18.5511V12.3911C43.7387 11.8269 43.4416 11.3044 42.9567 11.016ZM31.9044 20.4046L21.8765 30.4327C21.2516 31.0575 20.2386 31.0575 19.6137 30.4327L16.0943 26.9134C15.4695 26.2887 15.4695 25.2755 16.0943 24.6507C16.7192 24.0259 17.7323 24.0259 18.3571 24.6507L20.745 27.0386L29.6417 18.1419C30.2664 17.5171 31.2796 17.5171 31.9044 18.1419C32.5294 18.7668 32.5294 19.7799 31.9044 20.4046Z" fill="white"/>
</svg>
