<svg width="24" height="24" viewBox="0 0 24 24" fill="none" xmlns="http://www.w3.org/2000/svg">
<g clip-path="url(#clip0_598_9679)">
<path d="M10.8914 0.0802612H13.018C15.9396 0.0802612 17.6471 0.509733 19.1629 1.32261C20.6614 2.11372 21.8863 3.33863 22.6774 4.83716C23.4903 6.35295 23.9198 8.06044 23.9198 10.9821V13.0997C23.9198 16.0213 23.4903 17.7288 22.6774 19.2446C21.8863 20.7431 20.6614 21.968 19.1629 22.7591C17.6471 23.572 15.9396 24.0015 13.018 24.0015H10.9003C7.97872 24.0015 6.27123 23.572 4.75544 22.7591C3.25691 21.968 2.032 20.7431 1.24089 19.2446C0.428011 17.7288 -0.00146484 16.0213 -0.00146484 13.0997V10.9806C-0.00146484 8.05896 0.428011 6.35147 1.24089 4.83568C2.032 3.33715 3.25691 2.11223 4.75544 1.32113C6.26231 0.509736 7.97872 0.0802612 10.8914 0.0802612Z" fill="#0068FF"/>
<path opacity="0.12" d="M23.9197 12.743V13.0923C23.9197 16.0139 23.4902 17.7214 22.6788 19.2372C21.8877 20.7357 20.6628 21.9606 19.1643 22.7517C17.6485 23.5646 15.941 23.9941 13.0194 23.9941H10.9002C8.50915 23.9941 6.93244 23.7073 5.60686 23.1574L3.42383 20.9164L23.9197 12.743Z" fill="#001A33"/>
<path d="M3.66635 20.9922C4.78536 21.1155 6.18375 20.7975 7.17644 20.3146C11.486 22.6923 18.2298 22.5838 22.3106 19.9728C22.4691 19.735 22.6177 19.4873 22.7564 19.2297C23.5722 17.708 24.0032 15.9946 24.0032 13.0625V10.9375C24.0032 8.00545 23.5722 6.29202 22.7564 4.77028C21.9623 3.26602 20.7327 2.03643 19.2285 1.24235C17.7067 0.426502 15.9933 -0.00445557 13.0613 -0.00445557H10.9243C8.42771 -0.00445557 6.80641 0.31059 5.44368 0.909475C5.36938 0.975853 5.29656 1.04372 5.22523 1.11307C1.22919 4.96495 0.926035 13.3152 4.31427 17.8521L4.32616 17.8729C4.84777 18.6427 4.34399 19.9891 3.55637 20.7782C3.42857 20.9001 3.47464 20.9744 3.66635 20.9922Z" fill="white"/>
<path d="M9.82313 8.18677H5.14053V9.19135H8.39056L5.1866 13.1621C5.06019 13.3335 4.99859 13.5441 5.01273 13.7566V14.0122H9.43081C9.53687 14.011 9.63825 13.9683 9.71325 13.8933C9.78824 13.8184 9.83089 13.717 9.83205 13.6109V13.073H6.41409L9.42635 9.29389L9.59131 9.09327L9.60914 9.06652C9.7597 8.84905 9.83343 8.58758 9.81868 8.32349L9.82313 8.18677Z" fill="#0068FF"/>
<path d="M15.785 14.0122H16.4582V8.18677H15.4536V13.6733C15.4532 13.762 15.4878 13.8473 15.5498 13.9107C15.6118 13.9742 15.6963 14.0106 15.785 14.0122Z" fill="#0068FF"/>
<path d="M12.3524 9.48407C11.901 9.48407 11.4597 9.61794 11.0843 9.86876C10.7089 10.1196 10.4163 10.4761 10.2436 10.8932C10.0708 11.3102 10.0256 11.7692 10.1137 12.212C10.2018 12.6548 10.4192 13.0615 10.7384 13.3807C11.0576 13.6999 11.4643 13.9173 11.9071 14.0054C12.3499 14.0935 12.8089 14.0483 13.2259 13.8755C13.643 13.7028 13.9995 13.4102 14.2503 13.0348C14.5012 12.6594 14.635 12.2181 14.635 11.7667C14.635 11.1613 14.3945 10.5807 13.9665 10.1526C13.5384 9.72456 12.9578 9.48407 12.3524 9.48407ZM12.3524 13.1086C12.0879 13.1086 11.8293 13.0301 11.6094 12.8832C11.3894 12.7362 11.218 12.5273 11.1168 12.283C11.0155 12.0386 10.9891 11.7696 11.0407 11.5102C11.0923 11.2508 11.2197 11.0124 11.4067 10.8254C11.5937 10.6384 11.8321 10.511 12.0915 10.4594C12.3509 10.4078 12.6199 10.4342 12.8642 10.5355C13.1086 10.6367 13.3175 10.8081 13.4645 11.0281C13.6114 11.248 13.6899 11.5066 13.6899 11.7711C13.6899 12.1258 13.549 12.466 13.2982 12.7169C13.0473 12.9677 12.7071 13.1086 12.3524 13.1086Z" fill="#0068FF"/>
<path d="M19.4186 9.44696C18.9636 9.44696 18.5189 9.58188 18.1405 9.83465C17.7622 10.0874 17.4674 10.4467 17.2933 10.8671C17.1192 11.2874 17.0736 11.7499 17.1624 12.1962C17.2511 12.6424 17.4702 13.0523 17.792 13.374C18.1137 13.6958 18.5236 13.9149 18.9698 14.0036C19.4161 14.0924 19.8786 14.0468 20.2989 13.8727C20.7193 13.6986 21.0786 13.4037 21.3313 13.0254C21.5841 12.6471 21.719 12.2024 21.719 11.7474C21.7183 11.1375 21.4756 10.5529 21.0444 10.1216C20.6131 9.69036 20.0285 9.44775 19.4186 9.44696ZM19.4186 13.1086C19.1514 13.1086 18.8903 13.0294 18.6681 12.881C18.446 12.7325 18.2728 12.5216 18.1706 12.2747C18.0683 12.0279 18.0416 11.7563 18.0937 11.4943C18.1458 11.2322 18.2745 10.9915 18.4634 10.8026C18.6523 10.6137 18.893 10.485 19.1551 10.4329C19.4171 10.3808 19.6887 10.4075 19.9355 10.5098C20.1824 10.612 20.3934 10.7852 20.5418 11.0073C20.6902 11.2295 20.7694 11.4906 20.7694 11.7578C20.7698 11.9353 20.7352 12.1111 20.6674 12.2752C20.5997 12.4393 20.5002 12.5883 20.3747 12.7139C20.2491 12.8394 20.1001 12.9389 19.936 13.0066C19.7719 13.0744 19.5961 13.109 19.4186 13.1086Z" fill="#0068FF"/>
<path d="M14.1058 14.0121H14.6438V9.61188H13.7031V13.6243C13.7073 13.7284 13.7516 13.8268 13.8266 13.8991C13.9016 13.9713 14.0017 14.0118 14.1058 14.0121Z" fill="#0068FF"/>
</g>
<defs>
<clipPath id="clip0_598_9679">
<rect width="24" height="24" fill="white"/>
</clipPath>
</defs>
</svg>
