<svg width="70" height="70" viewBox="0 0 70 70" fill="none" xmlns="http://www.w3.org/2000/svg">
<g clip-path="url(#clip0_361_72889)">
<path d="M35 28.3008C41.5587 28.3008 46.8945 22.9649 46.8945 16.4062C46.8945 9.84758 41.5587 4.51172 35 4.51172C28.4413 4.51172 23.1055 9.84758 23.1055 16.4062C23.1055 22.9649 28.4413 28.3008 35 28.3008ZM35 8.61328C39.2971 8.61328 42.793 12.1092 42.793 16.4062C42.793 20.7033 39.2971 24.1992 35 24.1992C30.7029 24.1992 27.207 20.7033 27.207 16.4062C27.207 12.1092 30.7029 8.61328 35 8.61328Z" fill="#FACD01"/>
<path d="M59.0625 28.3008C63.2088 28.3008 66.582 24.9275 66.582 20.7812C66.582 16.635 63.2088 13.2617 59.0625 13.2617C54.9162 13.2617 51.543 16.635 51.543 20.7812C51.543 24.9275 54.9162 28.3008 59.0625 28.3008ZM59.0625 17.3633C60.9472 17.3633 62.4805 18.8966 62.4805 20.7812C62.4805 22.6659 60.9472 24.1992 59.0625 24.1992C57.1778 24.1992 55.6445 22.6659 55.6445 20.7812C55.6445 18.8966 57.1778 17.3633 59.0625 17.3633Z" fill="#FACD01"/>
<path d="M60.7168 32.9492H57.5449C53.8072 32.9492 50.5806 35.1575 49.1103 38.3294C46.0832 35.0249 41.7352 32.9492 36.9112 32.9492H33.0889C28.265 32.9492 23.9169 35.0249 20.8898 38.3294C19.4194 35.1575 16.1928 32.9492 12.4551 32.9492H9.2832C4.16445 32.9492 0 37.0885 0 42.1764V57.1074C0 59.3163 1.80387 61.1133 4.02117 61.1133H16.562C16.7722 63.5605 18.8301 65.4883 21.3311 65.4883H48.669C51.1699 65.4883 53.2278 63.5605 53.4382 61.1133H65.8357C68.132 61.1133 70.0001 59.2525 70.0001 56.9652V42.1764C70 37.0885 65.8355 32.9492 60.7168 32.9492ZM4.10156 42.1764C4.10156 39.3501 6.42605 37.0508 9.2832 37.0508H12.4551C15.3122 37.0508 17.6367 39.3501 17.6367 42.1764V43.5806C16.2576 47.1714 16.543 49.3233 16.543 57.0117H4.10156V42.1764ZM49.3555 60.7003C49.3555 61.0788 49.0476 61.3867 48.669 61.3867H21.331C20.9524 61.3867 20.6445 61.0787 20.6445 60.7003V49.4952C20.6445 42.6333 26.227 37.0508 33.0888 37.0508H36.9111C43.773 37.0508 49.3555 42.6333 49.3555 49.4951V60.7003ZM65.8984 56.9652C65.8984 57.0359 66.663 57.0117 53.457 57.0117C53.457 49.2665 53.7402 47.1655 52.3633 43.5806V42.1764C52.3633 39.3501 54.6878 37.0508 57.5449 37.0508H60.7168C63.5739 37.0508 65.8984 39.3501 65.8984 42.1764V56.9652Z" fill="#FACD01"/>
<path d="M10.9375 28.3008C15.0838 28.3008 18.457 24.9275 18.457 20.7812C18.457 16.635 15.0838 13.2617 10.9375 13.2617C6.79123 13.2617 3.41797 16.635 3.41797 20.7812C3.41797 24.9275 6.79123 28.3008 10.9375 28.3008ZM10.9375 17.3633C12.8222 17.3633 14.3555 18.8966 14.3555 20.7812C14.3555 22.6659 12.8222 24.1992 10.9375 24.1992C9.05283 24.1992 7.51953 22.6659 7.51953 20.7812C7.51953 18.8966 9.05283 17.3633 10.9375 17.3633Z" fill="#FACD01"/>
</g>
<defs>
<clipPath id="clip0_361_72889">
<rect width="70" height="70" fill="white"/>
</clipPath>
</defs>
</svg>
