<svg width="70" height="70" viewBox="0 0 70 70" fill="none" xmlns="http://www.w3.org/2000/svg">
<path d="M15.238 32.7105H15.2157C14.017 32.7105 13.0566 33.6825 13.0566 34.8813C13.0566 36.0801 14.0392 37.052 15.238 37.052C16.4368 37.052 17.4088 36.0801 17.4088 34.8813C17.4088 33.6825 16.4368 32.7105 15.238 32.7105Z" fill="#FACD01"/>
<path d="M47.3239 37.052C48.5227 37.052 49.4947 36.0801 49.4947 34.8813C49.4947 33.6825 48.5227 32.7105 47.3239 32.7105H47.3017C46.1029 32.7105 45.1426 33.6825 45.1426 34.8813C45.1426 36.0801 46.1251 37.052 47.3239 37.052Z" fill="#FACD01"/>
<path d="M15.238 48.1136H15.2157C14.017 48.1136 13.0566 49.0856 13.0566 50.2844C13.0566 51.4832 14.0392 52.4552 15.238 52.4552C16.4368 52.4552 17.4088 51.4832 17.4088 50.2844C17.4088 49.0856 16.4368 48.1136 15.238 48.1136Z" fill="#FACD01"/>
<path d="M56.9773 40.1043V29.2371C56.9773 28.0383 56.0053 27.0663 54.8065 27.0663H50.6219C50.6219 27.0663 37.751 10.9525 37.751 10.8873C37.751 7.29621 34.8297 4.375 31.2387 4.375C27.6476 4.375 24.7263 7.29621 24.7263 10.8873C24.7263 10.9578 11.8495 27.0663 11.8495 27.0663H7.67077C6.47197 27.0663 5.5 28.0383 5.5 29.2371V55.9286C5.5 57.1274 6.47197 58.0994 7.67077 58.0994H38.9823C41.1805 62.5496 45.7543 65.625 51.0448 65.625C58.4655 65.625 64.5029 59.5876 64.5029 52.1658C64.5029 46.876 61.4272 42.3025 56.9773 40.1043ZM51.0448 61.2835C46.0175 61.2835 41.9271 57.1931 41.9271 52.1658C41.9271 47.1385 46.0175 43.0492 51.0448 43.0492C56.0721 43.0492 60.1614 47.1385 60.1614 52.1658C60.1614 57.1931 56.0721 61.2835 51.0448 61.2835ZM9.84154 31.4078H52.6358V38.8105C52.113 38.7485 51.5839 38.7077 51.0448 38.7077C43.6231 38.7077 37.5856 44.7451 37.5856 52.1658C37.5856 52.7053 37.6265 53.2348 37.6886 53.7579H9.84154V31.4078ZM33.4094 10.8873C33.4094 12.084 32.4353 13.0581 31.2387 13.0581C30.042 13.0581 29.0679 12.084 29.0679 10.8873C29.0679 9.69063 30.042 8.71654 31.2387 8.71654C32.4353 8.71654 33.4094 9.69063 33.4094 10.8873ZM26.7201 15.5597C27.8925 16.6938 29.4823 17.3996 31.2387 17.3996C32.9986 17.3996 34.5917 16.6916 35.7648 15.5534L45.0466 27.0663H17.4293L26.7201 15.5597Z" fill="#FACD01"/>
<path d="M55.645 49.995H53.2146V47.3992C53.2146 46.2004 52.2426 45.2285 51.0438 45.2285C49.845 45.2285 48.873 46.2004 48.873 47.3992V52.1658C48.873 53.3646 49.845 54.3366 51.0438 54.3366H55.645C56.8438 54.3366 57.8158 53.3646 57.8158 52.1658C57.8158 50.967 56.8438 49.995 55.645 49.995Z" fill="#FACD01"/>
<path d="M38.2007 37.5947C37.3527 36.7447 35.9791 36.7468 35.1311 37.5926L29.7476 42.9697L27.3447 40.5711C26.4947 39.721 25.121 39.7231 24.2751 40.5732C23.4282 41.4211 23.4293 42.7959 24.2773 43.6428L28.2139 47.5731C28.6379 47.996 29.1922 48.208 29.7476 48.208C30.303 48.208 30.8574 47.996 31.2814 47.5731L38.1986 40.6643C39.0476 39.8174 39.0476 38.4427 38.2007 37.5947Z" fill="#FACD01"/>
</svg>
