<svg width="168" height="17" viewBox="0 0 168 17" fill="none" xmlns="http://www.w3.org/2000/svg">
<g clip-path="url(#clip0_516_8180)">
<path fill-rule="evenodd" clip-rule="evenodd" d="M0.865234 1.85607H3.02533H3.19854H6.30857C10.1122 1.85607 13.3093 4.98821 13.3093 8.92798C13.3093 12.7861 10.1115 15.9183 6.30857 15.9999H3.19854H2.93911H0.865234V1.85607ZM3.19854 3.54277V14.3125H5.70428C9.16152 14.2308 10.889 11.6607 10.889 9.00598C10.889 6.27255 9.16074 4.02313 6.30857 3.62077L3.19854 3.54277ZM22.4701 1.5317C27.1375 1.5317 30.8518 4.82712 30.8518 8.92725C30.8518 13.0237 27.1367 16.3199 22.4701 16.3199C17.8897 16.3199 14.0883 13.0245 14.0883 8.92725C14.0876 4.82785 17.8897 1.5317 22.4701 1.5317ZM22.4701 3.30077C25.8411 3.30077 28.6055 5.7922 28.6055 8.92798C28.6055 11.9814 25.8411 14.4728 22.4701 14.4728C19.1868 14.4728 16.4201 11.9814 16.4201 8.92798C16.4201 5.7922 19.186 3.30077 22.4701 3.30077ZM31.5439 1.85607H33.7902V14.3132H38.1111V15.9999H33.7902H32.754H31.5439V1.85607ZM45.3705 1.45371C47.0987 1.45371 48.7415 1.93406 50.1233 2.73878V5.31185C48.9986 4.02313 47.2711 3.21914 45.3705 3.21914C41.9994 3.21914 39.3205 5.7922 39.3205 8.92798C39.3205 11.9814 41.9994 14.5515 45.3705 14.5515C47.2719 14.5515 48.9994 13.7505 50.1233 12.4625V15.1143C48.7407 15.919 47.0979 16.403 45.3705 16.403C40.7901 16.403 36.9888 13.0252 36.9888 8.92871C36.9888 4.82785 40.7909 1.45371 45.3705 1.45371ZM53.1479 14.3125H58.5928V15.9992H53.1479H50.8146V14.3125V9.32961V7.63926V3.46114V1.85607H53.1479H58.5928V3.46114H53.1479V7.63926H58.5928V9.32961H53.1479V14.3125ZM67.1485 15.0355C66.8891 15.2775 66.6289 15.4379 66.2832 15.5975C66.0238 15.7579 65.6789 15.8395 65.3325 15.9175C65.2463 15.9175 65.1601 15.9175 65.0739 15.9992C64.9869 15.9992 64.9006 15.9992 64.8144 15.9992C64.555 15.9992 64.3818 15.9175 64.1223 15.9175C63.8629 15.8395 63.6897 15.7572 63.4303 15.5975C63.2578 15.4372 63.0854 15.1952 62.913 14.9532C62.826 14.7148 62.7398 14.4728 62.6535 14.2308V14.1492C62.6535 14.0712 62.6535 14.0712 62.6535 14.0712C62.6535 13.9896 62.6535 13.9896 62.6535 13.9896C62.6535 13.9116 62.6535 13.9116 62.6535 13.8292H62.7398C62.7398 13.7512 62.7398 13.7512 62.7398 13.7512C62.7398 13.7512 62.7398 13.7512 62.7398 13.6696C62.8252 13.2672 62.9992 12.9472 63.3441 12.6228C63.6889 12.3845 64.0346 12.1425 64.381 11.9005C64.2086 11.6621 64.0346 11.4201 63.8621 11.1781C63.6889 11.0178 63.6027 10.6978 63.6027 10.4558V10.3741C63.6027 10.2962 63.6027 10.2962 63.6027 10.2138C63.6027 10.1321 63.6027 10.1321 63.6027 10.1321C63.6889 10.1321 63.6889 10.0542 63.6889 10.0542C63.7759 9.73416 63.9491 9.49216 64.2086 9.24943C64.5534 9.08907 64.8129 9.00743 65.1585 9.00743C65.1585 9.00743 65.1585 9.00743 65.2447 9.00743H65.3309C65.3309 9.00743 65.3309 9.00743 65.4179 9.00743C65.7628 9.00743 66.1954 9.17144 66.5419 9.40979C66.8005 9.65179 66.9729 9.97179 66.9729 10.4565C66.9729 10.8589 66.8875 11.1789 66.6273 11.4209C66.2817 11.7409 66.023 11.9829 65.6774 12.1432L67.3194 13.9903C67.4056 13.8299 67.5788 13.6703 67.752 13.4283C67.9245 13.2679 68.0107 13.1083 68.1847 12.9479L68.7027 13.4283C68.6165 13.5887 68.4433 13.7519 68.3571 13.9123C68.2709 14.0727 68.0977 14.2323 67.9245 14.3926C67.9245 14.3926 67.9245 14.3926 67.8382 14.4743C67.8382 14.4743 67.8382 14.5523 67.752 14.5523L68.9614 15.841H67.9245L67.1485 15.0355ZM65.1601 15.2775C65.4195 15.2775 65.6789 15.1959 65.9376 15.0355C66.1108 14.8752 66.3694 14.7156 66.5434 14.5515C66.6289 14.5515 66.6289 14.5515 66.6289 14.5515C66.6289 14.5515 66.6289 14.5515 66.7159 14.4736L64.8152 12.4625C64.8152 12.5441 64.8152 12.5441 64.7282 12.5441C64.642 12.6221 64.642 12.6221 64.642 12.6221C64.4688 12.7038 64.3826 12.7861 64.2109 12.8641C64.0361 13.0245 63.9515 13.1061 63.8645 13.2665C63.7791 13.2665 63.7791 13.3481 63.7791 13.4268C63.6921 13.5085 63.6921 13.5872 63.6921 13.6688C63.6058 13.7505 63.6058 13.8292 63.6058 13.8292C63.6058 13.9108 63.6058 13.9896 63.6058 14.0712C63.6058 14.3912 63.6921 14.6332 63.9523 14.9539C64.2971 15.1959 64.5566 15.2775 64.9884 15.2775H65.0754C65.0746 15.2775 65.0746 15.2775 65.1601 15.2775ZM64.4688 10.2947C64.4688 10.3727 64.4688 10.3727 64.4688 10.3727V10.4543C64.4688 10.6147 64.4688 10.7743 64.5558 10.9347C64.642 11.095 64.8152 11.2583 64.9006 11.337C64.9869 11.4187 64.9869 11.4187 65.0739 11.4974L65.1601 11.579H65.2463C65.2463 11.579 65.3325 11.579 65.3325 11.4974C65.5057 11.4194 65.6789 11.337 65.8521 11.1774C66.0246 11.017 66.1116 10.8574 66.197 10.6154C66.197 10.5338 66.197 10.5338 66.197 10.5338C66.197 10.4558 66.197 10.4558 66.197 10.4558C66.197 10.2138 66.1108 10.0534 65.9376 9.89379C65.7644 9.81215 65.5927 9.73343 65.4195 9.73343C65.3325 9.73343 65.3325 9.73343 65.3325 9.73343C65.3325 9.73343 65.3325 9.73343 65.2463 9.73343C65.0739 9.73343 64.9006 9.73343 64.7274 9.89379C64.5558 9.97033 64.4688 10.1307 64.4688 10.2947ZM81.1476 1.37207C84.1722 1.37207 86.8511 2.82042 88.4069 4.91021L86.4192 5.87457C85.2961 4.26585 83.3939 3.21914 81.2338 3.21914C77.7773 3.21914 75.0984 5.7922 75.0984 8.92798C75.0984 12.0601 77.7773 14.5515 81.2338 14.5515C84.0859 14.5515 86.3323 13.2665 86.5062 10.533H81.5802V8.84634H86.3322C86.3322 8.84634 88.7518 8.84634 88.9265 8.84634C88.9265 8.84634 88.9265 4.50785 88.9265 8.92798C88.9265 13.3481 86.3323 16.4802 81.1483 16.4802C75.9629 16.4802 72.6788 13.1061 72.6788 8.92798C72.6788 4.74548 76.4809 1.37207 81.1476 1.37207ZM87.6286 15.9999L93.938 1.85607H95.4076L101.715 15.9999H99.2959L97.5677 11.9814H91.7771L90.0497 15.9999H87.6286ZM92.6424 10.2123L94.7147 5.14784L96.7032 10.2123H92.6424ZM123.838 15.9999L130.061 1.85607H131.529L137.837 15.9999H135.419L133.691 11.9814H127.899L126.171 15.9999H123.838ZM128.764 10.2123L130.838 5.14784L132.912 10.2123H128.764ZM153.911 15.9999L160.221 1.85607H161.69L168 15.9999H165.578L163.765 11.9814H158.06L156.333 15.9999H153.911ZM158.924 10.2123L160.913 5.14784L162.986 10.2123H158.924ZM107.16 3.46114C108.715 3.6215 109.233 4.18349 109.233 5.63257C109.233 6.99928 108.196 7.72163 106.899 7.72163H104.912V3.46114H107.16ZM107.333 9.40833H107.418C108.542 9.40833 110.53 9.65034 110.53 11.9814C110.53 13.8285 108.802 14.3125 107.16 14.3125H107.504H104.911V9.40761H106.899H107.333V9.40833ZM104.395 15.9999H104.912H108.283C110.962 15.9999 112.951 14.3132 112.951 11.9814C112.951 10.1307 111.739 8.76762 110.012 8.2049C110.962 7.63926 111.481 6.59619 111.481 5.31112C111.481 3.21841 110.012 1.85534 107.678 1.85534C106.467 1.7737 105.172 1.85534 103.963 1.85534H103.875C103.875 1.85534 103.875 1.85534 103.789 1.85534H102.58V15.9992H104.395V15.9999ZM118.739 3.46114C120.209 3.6215 120.728 4.18349 120.813 5.63257C120.813 6.99928 119.776 7.72163 118.48 7.72163H116.492V3.46114H118.739ZM118.827 9.40833C118.913 9.40833 118.913 9.40833 118.913 9.40833C120.036 9.40833 122.022 9.65034 122.022 11.9814C122.022 13.8285 120.294 14.3125 118.653 14.3125H119.085H116.492V9.40761H118.48H118.827V9.40833ZM115.888 15.9999H116.492H119.864C122.543 15.9999 124.443 14.3132 124.443 11.9814C124.443 10.1307 123.233 8.76762 121.506 8.2049C122.543 7.63926 123.059 6.59619 123.059 5.31112C123.059 3.21841 121.506 1.85534 119.257 1.85534C117.962 1.7737 116.752 1.85534 115.454 1.85534C115.369 1.85534 115.369 1.85534 115.369 1.85534H115.283H114.073V15.9992H115.888V15.9999ZM138.875 1.85607H140.345L150.974 12.3021V1.85607H153.048V15.9999H151.492L141.035 5.63184V15.9999H138.875V1.85607Z" fill="#303030"/>
</g>
<defs>
<clipPath id="clip0_516_8180">
<rect width="168" height="16" fill="white" transform="translate(0 0.679688)"/>
</clipPath>
</defs>
</svg>
