<svg width="168" height="16" viewBox="0 0 168 16" fill="none" xmlns="http://www.w3.org/2000/svg">
<path fill-rule="evenodd" clip-rule="evenodd" d="M0.865234 1.13305H3.02533H3.19854H6.30857C10.1122 1.13305 13.3093 4.26518 13.3093 8.20496C13.3093 12.0631 10.1115 15.1952 6.30857 15.2769H3.19854H2.93911H0.865234V1.13305ZM3.19854 2.81975V13.5894H5.70428C9.16152 13.5078 10.889 10.9377 10.889 8.28295C10.889 5.54953 9.16074 3.3001 6.30857 2.89774L3.19854 2.81975ZM22.4701 0.80868C27.1375 0.80868 30.8518 4.10409 30.8518 8.20423C30.8518 12.3007 27.1367 15.5969 22.4701 15.5969C17.8897 15.5969 14.0883 12.3015 14.0883 8.20423C14.0876 4.10482 17.8897 0.80868 22.4701 0.80868ZM22.4701 2.57775C25.8411 2.57775 28.6055 5.06918 28.6055 8.20496C28.6055 11.2584 25.8411 13.7498 22.4701 13.7498C19.1868 13.7498 16.4201 11.2584 16.4201 8.20496C16.4201 5.06918 19.186 2.57775 22.4701 2.57775ZM31.5439 1.13305H33.7902V13.5902H38.1111V15.2769H33.7902H32.754H31.5439V1.13305ZM45.3705 0.730686C47.0987 0.730686 48.7415 1.21104 50.1233 2.01576V4.58882C48.9986 3.3001 47.2711 2.49611 45.3705 2.49611C41.9994 2.49611 39.3205 5.06918 39.3205 8.20496C39.3205 11.2584 41.9994 13.8285 45.3705 13.8285C47.2719 13.8285 48.9994 13.0274 50.1233 11.7395V14.3912C48.7407 15.196 47.0979 15.68 45.3705 15.68C40.7901 15.68 36.9888 12.3022 36.9888 8.20569C36.9888 4.10482 40.7909 0.730686 45.3705 0.730686ZM53.1479 13.5894H58.5928V15.2761H53.1479H50.8146V13.5894V8.60659V6.91624V2.73811V1.13305H53.1479H58.5928V2.73811H53.1479V6.91624H58.5928V8.60659H53.1479V13.5894ZM67.1485 14.3125C66.8891 14.5545 66.6289 14.7149 66.2832 14.8745C66.0238 15.0349 65.6789 15.1165 65.3325 15.1945C65.2463 15.1945 65.1601 15.1945 65.0739 15.2761C64.9869 15.2761 64.9006 15.2761 64.8144 15.2761C64.555 15.2761 64.3818 15.1945 64.1223 15.1945C63.8629 15.1165 63.6897 15.0341 63.4303 14.8745C63.2578 14.7142 63.0854 14.4722 62.913 14.2302C62.826 13.9918 62.7398 13.7498 62.6535 13.5078V13.4262C62.6535 13.3482 62.6535 13.3482 62.6535 13.3482C62.6535 13.2665 62.6535 13.2665 62.6535 13.2665C62.6535 13.1885 62.6535 13.1885 62.6535 13.1062H62.7398C62.7398 13.0282 62.7398 13.0282 62.7398 13.0282C62.7398 13.0282 62.7398 13.0282 62.7398 12.9465C62.8252 12.5442 62.9992 12.2242 63.3441 11.8998C63.6889 11.6615 64.0346 11.4195 64.381 11.1775C64.2086 10.9391 64.0346 10.6971 63.8621 10.4551C63.6889 10.2948 63.6027 9.97476 63.6027 9.73276V9.65112C63.6027 9.57313 63.6027 9.57313 63.6027 9.49076C63.6027 9.40912 63.6027 9.40912 63.6027 9.40912C63.6889 9.40912 63.6889 9.33113 63.6889 9.33113C63.7759 9.01114 63.9491 8.76914 64.2086 8.52641C64.5534 8.36605 64.8129 8.28441 65.1585 8.28441C65.1585 8.28441 65.1585 8.28441 65.2447 8.28441H65.3309C65.3309 8.28441 65.3309 8.28441 65.4179 8.28441C65.7628 8.28441 66.1954 8.44842 66.5419 8.68677C66.8005 8.92877 66.9729 9.24876 66.9729 9.73349C66.9729 10.1358 66.8875 10.4558 66.6273 10.6978C66.2817 11.0178 66.023 11.2598 65.6774 11.4202L67.3194 13.2673C67.4056 13.1069 67.5788 12.9473 67.752 12.7053C67.9245 12.5449 68.0107 12.3853 68.1847 12.2249L68.7027 12.7053C68.6165 12.8656 68.4433 13.0289 68.3571 13.1893C68.2709 13.3496 68.0977 13.5093 67.9245 13.6696C67.9245 13.6696 67.9245 13.6696 67.8382 13.7513C67.8382 13.7513 67.8382 13.8293 67.752 13.8293L68.9614 15.118H67.9245L67.1485 14.3125ZM65.1601 14.5545C65.4195 14.5545 65.6789 14.4729 65.9376 14.3125C66.1108 14.1522 66.3694 13.9925 66.5434 13.8285C66.6289 13.8285 66.6289 13.8285 66.6289 13.8285C66.6289 13.8285 66.6289 13.8285 66.7159 13.7505L64.8152 11.7395C64.8152 11.8211 64.8152 11.8211 64.7282 11.8211C64.642 11.8991 64.642 11.8991 64.642 11.8991C64.4688 11.9807 64.3826 12.0631 64.2109 12.1411C64.0361 12.3015 63.9515 12.3831 63.8645 12.5435C63.7791 12.5435 63.7791 12.6251 63.7791 12.7038C63.6921 12.7854 63.6921 12.8642 63.6921 12.9458C63.6058 13.0274 63.6058 13.1062 63.6058 13.1062C63.6058 13.1878 63.6058 13.2665 63.6058 13.3482C63.6058 13.6682 63.6921 13.9102 63.9523 14.2309C64.2971 14.4729 64.5566 14.5545 64.9884 14.5545H65.0754C65.0746 14.5545 65.0746 14.5545 65.1601 14.5545ZM64.4688 9.57167C64.4688 9.64966 64.4688 9.64966 64.4688 9.64966V9.7313C64.4688 9.89167 64.4688 10.0513 64.5558 10.2117C64.642 10.372 64.8152 10.5353 64.9006 10.614C64.9869 10.6957 64.9869 10.6957 65.0739 10.7744L65.1601 10.856H65.2463C65.2463 10.856 65.3325 10.856 65.3325 10.7744C65.5057 10.6964 65.6789 10.614 65.8521 10.4544C66.0246 10.294 66.1116 10.1344 66.197 9.89239C66.197 9.81075 66.197 9.81075 66.197 9.81075C66.197 9.73276 66.197 9.73276 66.197 9.73276C66.197 9.49076 66.1108 9.3304 65.9376 9.17077C65.7644 9.08913 65.5927 9.01041 65.4195 9.01041C65.3325 9.01041 65.3325 9.01041 65.3325 9.01041C65.3325 9.01041 65.3325 9.01041 65.2463 9.01041C65.0739 9.01041 64.9006 9.01041 64.7274 9.17077C64.5558 9.2473 64.4688 9.40767 64.4688 9.57167ZM81.1476 0.649048C84.1722 0.649048 86.8511 2.0974 88.4069 4.18719L86.4192 5.15154C85.2961 3.54283 83.3939 2.49611 81.2338 2.49611C77.7773 2.49611 75.0984 5.06918 75.0984 8.20496C75.0984 11.3371 77.7773 13.8285 81.2338 13.8285C84.0859 13.8285 86.3323 12.5435 86.5062 9.81003H81.5802V8.12332H86.3322C86.3322 8.12332 88.7518 8.12332 88.9265 8.12332C88.9265 8.12332 88.9265 3.78483 88.9265 8.20496C88.9265 12.6251 86.3323 15.7572 81.1483 15.7572C75.9629 15.7572 72.6788 12.3831 72.6788 8.20496C72.6788 4.02246 76.4809 0.649048 81.1476 0.649048ZM87.6286 15.2769L93.938 1.13305H95.4076L101.715 15.2769H99.2959L97.5677 11.2584H91.7771L90.0497 15.2769H87.6286ZM92.6424 9.4893L94.7147 4.42482L96.7032 9.4893H92.6424ZM123.838 15.2769L130.061 1.13305H131.529L137.837 15.2769H135.419L133.691 11.2584H127.899L126.171 15.2769H123.838ZM128.764 9.4893L130.838 4.42482L132.912 9.4893H128.764ZM153.911 15.2769L160.221 1.13305H161.69L168 15.2769H165.578L163.765 11.2584H158.06L156.333 15.2769H153.911ZM158.924 9.4893L160.913 4.42482L162.986 9.4893H158.924ZM107.16 2.73811C108.715 2.89847 109.233 3.46046 109.233 4.90954C109.233 6.27626 108.196 6.99861 106.899 6.99861H104.912V2.73811H107.16ZM107.333 8.68531H107.418C108.542 8.68531 110.53 8.92731 110.53 11.2584C110.53 13.1054 108.802 13.5894 107.16 13.5894H107.504H104.911V8.68458H106.899H107.333V8.68531ZM104.395 15.2769H104.912H108.283C110.962 15.2769 112.951 13.5902 112.951 11.2584C112.951 9.40767 111.739 8.0446 110.012 7.48188C110.962 6.91624 111.481 5.87317 111.481 4.58809C111.481 2.49539 110.012 1.13232 107.678 1.13232C106.467 1.05068 105.172 1.13232 103.963 1.13232H103.875C103.875 1.13232 103.875 1.13232 103.789 1.13232H102.58V15.2761H104.395V15.2769ZM118.739 2.73811C120.209 2.89847 120.728 3.46046 120.813 4.90954C120.813 6.27626 119.776 6.99861 118.48 6.99861H116.492V2.73811H118.739ZM118.827 8.68531C118.913 8.68531 118.913 8.68531 118.913 8.68531C120.036 8.68531 122.022 8.92731 122.022 11.2584C122.022 13.1054 120.294 13.5894 118.653 13.5894H119.085H116.492V8.68458H118.48H118.827V8.68531ZM115.888 15.2769H116.492H119.864C122.543 15.2769 124.443 13.5902 124.443 11.2584C124.443 9.40767 123.233 8.0446 121.506 7.48188C122.543 6.91624 123.059 5.87317 123.059 4.58809C123.059 2.49539 121.506 1.13232 119.257 1.13232C117.962 1.05068 116.752 1.13232 115.454 1.13232C115.369 1.13232 115.369 1.13232 115.369 1.13232H115.283H114.073V15.2761H115.888V15.2769ZM138.875 1.13305H140.345L150.974 11.5791V1.13305H153.048V15.2769H151.492L141.035 4.90882V15.2769H138.875V1.13305Z" fill="white"/>
</svg>
