<svg width="48" height="48" viewBox="0 0 48 48" fill="none" xmlns="http://www.w3.org/2000/svg">
<path d="M36.2536 28.5381C32.9173 28.5381 30.2031 31.2522 30.2031 34.5885C30.2031 37.9248 32.9173 40.639 36.2536 40.639C39.5904 40.639 42.304 37.9248 42.304 34.5885C42.304 31.2522 39.5898 28.5381 36.2536 28.5381ZM36.2536 37.6137C34.5852 37.6137 33.2283 36.2569 33.2283 34.5885C33.2283 32.9201 34.5852 31.5633 36.2536 31.5633C37.9219 31.5633 39.2788 32.9201 39.2788 34.5885C39.2788 36.257 37.9219 37.6137 36.2536 37.6137Z" fill="white"/>
<path d="M15.5817 28.5381C12.2454 28.5381 9.53125 31.2522 9.53125 34.5885C9.53125 37.9248 12.2454 40.639 15.5817 40.639C18.918 40.639 21.6321 37.9248 21.6321 34.5885C21.6321 31.2522 18.918 28.5381 15.5817 28.5381ZM15.5817 37.6137C13.9133 37.6137 12.5565 36.2569 12.5565 34.5885C12.5565 32.9201 13.9133 31.5633 15.5817 31.5633C17.2496 31.5633 18.6069 32.9201 18.6069 34.5885C18.6069 36.257 17.2501 37.6137 15.5817 37.6137Z" fill="white"/>
<path d="M40.326 11.2197C40.0688 10.7089 39.546 10.3867 38.9742 10.3867H31.0078V13.4119H38.0414L42.1602 21.6042L44.8638 20.2448L40.326 11.2197Z" fill="white"/>
<path d="M31.7149 33.126H20.2695V36.1512H31.7149V33.126Z" fill="white"/>
<path d="M11.0413 33.126H5.79772C4.96222 33.126 4.28516 33.8031 4.28516 34.6385C4.28516 35.474 4.96231 36.1511 5.79772 36.1511H11.0414C11.8769 36.1511 12.554 35.4739 12.554 34.6385C12.554 33.803 11.8768 33.126 11.0413 33.126Z" fill="white"/>
<path d="M47.6818 23.879L44.7065 20.047C44.4207 19.6779 43.9795 19.4621 43.512 19.4621H32.5204V8.87389C32.5204 8.03839 31.8432 7.36133 31.0078 7.36133H5.79772C4.96222 7.36133 4.28516 8.03848 4.28516 8.87389C4.28516 9.7093 4.96231 10.3865 5.79772 10.3865H29.4952V20.9747C29.4952 21.8102 30.1723 22.4872 31.0078 22.4872H42.7713L44.9742 25.3249V33.1259H40.7893C39.9538 33.1259 39.2767 33.803 39.2767 34.6385C39.2767 35.474 39.9538 36.151 40.7893 36.151H46.4867C47.3222 36.151 47.9993 35.4739 47.9994 34.6385V24.8067C47.9994 24.4709 47.8874 24.1442 47.6818 23.879Z" fill="white"/>
<path d="M10.9393 25.4619H3.98131C3.14581 25.4619 2.46875 26.1391 2.46875 26.9745C2.46875 27.81 3.14591 28.487 3.98131 28.487H10.9392C11.7747 28.487 12.4518 27.8099 12.4518 26.9745C12.4519 26.1391 11.7747 25.4619 10.9393 25.4619Z" fill="white"/>
<path d="M14.4202 19.5127H1.51256C0.677156 19.5127 0 20.1899 0 21.0254C0 21.8609 0.677156 22.5379 1.51256 22.5379H14.4202C15.2557 22.5379 15.9327 21.8608 15.9327 21.0254C15.9327 20.1899 15.2557 19.5127 14.4202 19.5127Z" fill="white"/>
<path d="M16.8889 13.5635H3.98131C3.14581 13.5635 2.46875 14.2406 2.46875 15.076C2.46875 15.9115 3.14591 16.5886 3.98131 16.5886H16.8889C17.7244 16.5886 18.4015 15.9114 18.4015 15.076C18.4016 14.2406 17.7244 13.5635 16.8889 13.5635Z" fill="white"/>
</svg>
