<svg width="16" height="16" viewBox="0 0 16 16" fill="none" xmlns="http://www.w3.org/2000/svg">
<g clip-path="url(#clip0_386_6118)">
<path d="M8.00033 0.666687C6.54993 0.666687 5.13211 1.09678 3.92615 1.90258C2.72019 2.70837 1.78025 3.85368 1.22521 5.19367C0.67017 6.53367 0.524945 8.00815 0.807903 9.43068C1.09086 10.8532 1.78929 12.1599 2.81488 13.1855C3.84046 14.2111 5.14714 14.9095 6.56967 15.1924C7.99219 15.4754 9.46668 15.3302 10.8067 14.7751C12.1467 14.2201 13.292 13.2802 14.0978 12.0742C14.9036 10.8682 15.3337 9.45042 15.3337 8.00002C15.3314 6.0558 14.558 4.19187 13.1832 2.8171C11.8085 1.44233 9.94455 0.668981 8.00033 0.666687ZM10.4717 10.4714C10.3466 10.5963 10.1771 10.6665 10.0003 10.6665C9.82355 10.6665 9.65401 10.5963 9.529 10.4714L7.529 8.47135C7.40396 8.34636 7.3337 8.17682 7.33366 8.00002V4.00002C7.33366 3.82321 7.4039 3.65364 7.52892 3.52862C7.65395 3.40359 7.82352 3.33335 8.00033 3.33335C8.17714 3.33335 8.34671 3.40359 8.47173 3.52862C8.59676 3.65364 8.667 3.82321 8.667 4.00002V7.72402L10.4717 9.52869C10.5966 9.6537 10.6669 9.82324 10.6669 10C10.6669 10.1768 10.5966 10.3463 10.4717 10.4714Z" fill="#72C3D5"/>
</g>
<defs>
<clipPath id="clip0_386_6118">
<rect width="16" height="16" fill="white"/>
</clipPath>
</defs>
</svg>
