<svg width="48" height="48" viewBox="0 0 48 48" fill="none" xmlns="http://www.w3.org/2000/svg">
<g clip-path="url(#clip0_516_7972)">
<path fill-rule="evenodd" clip-rule="evenodd" d="M14.8803 44.0389C15.6057 42.2145 16.8636 40.6508 18.4902 39.5513C20.1169 38.4519 22.0368 37.8676 24.0001 37.8747C25.9598 37.8829 27.8729 38.4732 29.4964 39.5707C31.12 40.6681 32.3809 42.2233 33.119 44.0387C30.5878 46.2334 27.3499 47.4417 23.9997 47.4417C20.6495 47.4417 17.4116 46.2334 14.8804 44.0387L14.8803 44.0389ZM19.5209 31.4907C19.5209 30.6049 19.7835 29.7389 20.2757 29.0023C20.7678 28.2658 21.4672 27.6917 22.2856 27.3526C23.104 27.0136 24.0046 26.9249 24.8734 27.0976C25.7422 27.2704 26.5403 27.6969 27.1667 28.3233C27.7931 28.9496 28.2198 29.7477 28.3926 30.6165C28.5655 31.4853 28.4769 32.3858 28.1379 33.2043C27.799 34.0227 27.2249 34.7222 26.4884 35.2144C25.7519 35.7066 24.886 35.9694 24.0001 35.9694C22.8126 35.9682 21.674 35.4959 20.8343 34.6562C19.9946 33.8164 19.5224 32.6779 19.5213 31.4903L19.5209 31.4907ZM24.0001 19.5496C16.3103 19.5496 10.0539 25.8053 10.0539 33.4957C10.0513 36.9838 11.3608 40.3453 13.7223 42.9124C14.4252 41.4043 15.4512 40.0692 16.7276 39.0019C18.004 37.9345 19.4995 37.161 21.1082 36.736C19.9441 36.0945 19.0264 35.0841 18.4995 33.8639C17.9726 32.6436 17.8664 31.2828 18.1976 29.9956C18.5288 28.7084 19.2786 27.5679 20.3291 26.7535C21.3795 25.9391 22.6709 25.4972 24.0001 25.4972C25.3292 25.4972 26.6206 25.9391 27.6711 26.7535C28.7215 27.5679 29.4713 28.7084 29.8025 29.9956C30.1337 31.2828 30.0275 32.6436 29.5006 33.8639C28.9737 35.0841 28.056 36.0945 26.8919 36.736C28.5007 37.1606 29.9964 37.934 31.2729 39.0012C32.5495 40.0684 33.5756 41.4034 34.2786 42.9115C36.6398 40.3446 37.9492 36.9835 37.9466 33.4957C37.9466 25.8053 31.6902 19.5496 24.0001 19.5496ZM31.3458 5.89461C31.2965 5.74268 31.2003 5.61027 31.0711 5.51637C30.9419 5.42248 30.7863 5.37192 30.6266 5.37195H30.6251L26.1074 5.38049L24.7199 1.08158C24.6708 0.929361 24.5747 0.796635 24.4454 0.702486C24.3161 0.608338 24.1603 0.557617 24.0004 0.557617C23.8404 0.557617 23.6846 0.608338 23.5553 0.702486C23.426 0.796635 23.3299 0.929361 23.2808 1.08158L21.8927 5.38095L17.375 5.37158H17.3737C17.2138 5.37153 17.0581 5.42212 16.9288 5.51611C16.7995 5.6101 16.7034 5.74263 16.6541 5.89469C16.6049 6.04674 16.6051 6.2105 16.6547 6.36243C16.7043 6.51436 16.8008 6.64666 16.9303 6.74033L20.5901 9.38877L19.1861 13.6835C19.1366 13.8355 19.1365 13.9992 19.1859 14.1512C19.2352 14.3033 19.3315 14.4357 19.4608 14.5296C19.5901 14.6235 19.7458 14.6741 19.9056 14.674C20.0655 14.6739 20.2211 14.6231 20.3503 14.5291L24 11.8666L27.6498 14.5291C27.779 14.6231 27.9347 14.6739 28.0945 14.674C28.2543 14.6741 28.4101 14.6235 28.5394 14.5296C28.6687 14.4357 28.7649 14.3033 28.8143 14.1512C28.8636 13.9992 28.8636 13.8355 28.8141 13.6835L27.4099 9.38905L31.0698 6.74033C31.1993 6.6466 31.2958 6.51423 31.3454 6.36223C31.395 6.21022 31.3951 6.04641 31.3458 5.89433V5.89461ZM4.76056 15.3243L0.503368 13.8129C0.352852 13.7593 0.223194 13.6593 0.132994 13.5274C0.0427946 13.3955 -0.00331148 13.2385 0.00129041 13.0787C0.0058923 12.919 0.0609656 12.7649 0.15861 12.6384C0.256254 12.5119 0.391451 12.4196 0.544806 12.3747L4.88243 11.1118L5.00431 6.5952C5.00864 6.4353 5.06357 6.2809 5.1612 6.15419C5.25883 6.02748 5.39414 5.935 5.54765 5.89005C5.70116 5.8451 5.86498 5.85 6.01553 5.90403C6.16609 5.95807 6.29563 6.05846 6.38552 6.19077L8.9269 9.92558L13.2596 8.6457C13.413 8.60044 13.5769 8.60499 13.7276 8.6587C13.8783 8.71241 14.0081 8.81252 14.0983 8.94464C14.1885 9.07675 14.2345 9.23408 14.2297 9.39399C14.2249 9.55391 14.1695 9.70818 14.0715 9.83464L11.3045 13.406L13.8604 17.1309C13.9509 17.2628 13.9973 17.42 13.9928 17.5798C13.9883 17.7397 13.9333 17.8941 13.8355 18.0207C13.7378 18.1473 13.6024 18.2396 13.4488 18.2844C13.2953 18.3292 13.1315 18.3241 12.981 18.2699L8.72974 16.7423L5.97687 20.3236C5.87945 20.4504 5.74431 20.5432 5.59088 20.5884C5.43744 20.6336 5.27362 20.629 5.12297 20.5752C4.97233 20.5214 4.84262 20.4213 4.75249 20.2891C4.66237 20.1569 4.61649 19.9996 4.62143 19.8397L4.76056 15.3241V15.3243ZM47.4553 12.3747C47.6089 12.4194 47.7443 12.5117 47.8422 12.6382C47.94 12.7648 47.9952 12.9191 47.9998 13.079C48.0044 13.2388 47.9582 13.3961 47.8678 13.528C47.7774 13.66 47.6475 13.7599 47.4968 13.8134L43.2395 15.3243L43.3787 19.8399C43.3837 19.9998 43.3378 20.1572 43.2477 20.2894C43.1576 20.4215 43.0278 20.5217 42.8772 20.5755C42.7265 20.6293 42.5626 20.6339 42.4092 20.5887C42.2557 20.5434 42.1206 20.4507 42.0232 20.3238L39.2704 16.7425L35.0191 18.2697C34.8686 18.3239 34.7048 18.329 34.5513 18.2842C34.3978 18.2394 34.2624 18.1471 34.1646 18.0205C34.0669 17.8939 34.0118 17.7395 34.0073 17.5797C34.0029 17.4198 34.0492 17.2626 34.1397 17.1307L36.6956 13.406L33.9288 9.83408C33.8308 9.70763 33.7754 9.55336 33.7706 9.39346C33.7658 9.23356 33.8118 9.07625 33.9021 8.94414C33.9923 8.81203 34.122 8.71192 34.2727 8.6582C34.4234 8.60448 34.5872 8.5999 34.7407 8.64514L39.0732 9.92502L41.6149 6.1902C41.7048 6.05789 41.8343 5.9575 41.9848 5.90347C42.1354 5.84943 42.2992 5.84454 42.4527 5.88949C42.6062 5.93445 42.7414 6.02693 42.839 6.15364C42.9366 6.28035 42.9915 6.43476 42.9958 6.59464L43.1177 11.1112L47.4553 12.3747Z" fill="white"/>
</g>
<defs>
<clipPath id="clip0_516_7972">
<rect width="48" height="48" fill="white"/>
</clipPath>
</defs>
</svg>
