<svg width="24" height="24" viewBox="0 0 24 24" fill="none" xmlns="http://www.w3.org/2000/svg">
<path d="M19.5 12C19.5 11.8082 19.4267 11.6162 19.2803 11.4698L11.7803 3.9698C11.4872 3.67673 11.0127 3.67673 10.7198 3.9698C10.4269 4.26286 10.4267 4.73742 10.7198 5.0303L17.6895 12L10.7198 18.9698C10.4267 19.2629 10.4267 19.7374 10.7198 20.0303C11.0129 20.3232 11.4874 20.3234 11.7803 20.0303L19.2803 12.5303C19.4267 12.3839 19.5 12.1919 19.5 12ZM13.2803 12.5303L5.7803 20.0303C5.48723 20.3234 5.01267 20.3234 4.7198 20.0303C4.42692 19.7372 4.42673 19.2627 4.7198 18.9698L11.6895 12L4.7198 5.0303C4.42673 4.73723 4.42673 4.26267 4.7198 3.9698C5.01286 3.67692 5.48742 3.67673 5.7803 3.9698L13.2803 11.4698C13.4267 11.6162 13.5 11.8082 13.5 12C13.5 12.1919 13.4267 12.3839 13.2803 12.5303Z" fill="white"/>
</svg>
