<svg width="24" height="24" viewBox="0 0 24 24" fill="none" xmlns="http://www.w3.org/2000/svg">
<g clip-path="url(#clip0_514_24979)">
<path d="M17.5 1.917C16.3739 1.93451 15.2724 2.24885 14.3067 2.82827C13.341 3.40769 12.5453 4.23167 12 5.217C11.4546 4.23167 10.6589 3.40769 9.6932 2.82827C8.7275 2.24885 7.62601 1.93451 6.49996 1.917C4.7049 1.99499 3.01366 2.78025 1.79574 4.10123C0.577818 5.42221 -0.0677922 7.17153 -4.17093e-05 8.967C-4.17093e-05 13.514 4.78596 18.48 8.79996 21.847C9.69618 22.6001 10.8293 23.013 12 23.013C13.1706 23.013 14.3037 22.6001 15.2 21.847C19.214 18.48 24 13.514 24 8.967C24.0677 7.17153 23.4221 5.42221 22.2042 4.10123C20.9863 2.78025 19.295 1.99499 17.5 1.917ZM13.915 20.317C13.3789 20.7684 12.7007 21.0159 12 21.0159C11.2992 21.0159 10.621 20.7684 10.085 20.317C4.94696 16.006 1.99996 11.87 1.99996 8.967C1.9316 7.70172 2.36632 6.46073 3.20932 5.5147C4.05232 4.56867 5.23519 3.99435 6.49996 3.917C7.76472 3.99435 8.9476 4.56867 9.7906 5.5147C10.6336 6.46073 11.0683 7.70172 11 8.967C11 9.23222 11.1053 9.48657 11.2929 9.67411C11.4804 9.86164 11.7347 9.967 12 9.967C12.2652 9.967 12.5195 9.86164 12.7071 9.67411C12.8946 9.48657 13 9.23222 13 8.967C12.9316 7.70172 13.3663 6.46073 14.2093 5.5147C15.0523 4.56867 16.2352 3.99435 17.5 3.917C18.7647 3.99435 19.9476 4.56867 20.7906 5.5147C21.6336 6.46073 22.0683 7.70172 22 8.967C22 11.87 19.053 16.006 13.915 20.313V20.317Z" fill="#0E1D61"/>
</g>
<defs>
<clipPath id="clip0_514_24979">
<rect width="24" height="24" fill="white"/>
</clipPath>
</defs>
</svg>
