<svg width="24" height="25" viewBox="0 0 24 25" fill="none" xmlns="http://www.w3.org/2000/svg">
<path d="M22.5005 12.7336C22.5005 11.8702 22.4291 11.2402 22.2744 10.5869H12.2148V14.4835H18.1196C18.0006 15.4519 17.3577 16.9102 15.9291 17.8902L15.9091 18.0206L19.0897 20.4354L19.3101 20.4569C21.3338 18.6252 22.5005 15.9302 22.5005 12.7336Z" fill="#4285F4"/>
<path d="M12.214 22.9996C15.1068 22.9996 17.5353 22.0662 19.3092 20.4562L15.9282 17.8895C15.0235 18.5078 13.8092 18.9395 12.214 18.9395C9.38069 18.9395 6.97596 17.1079 6.11874 14.5762L5.99309 14.5866L2.68583 17.095L2.64258 17.2128C4.40446 20.6428 8.0235 22.9996 12.214 22.9996Z" fill="#34A853"/>
<path d="M6.12095 14.5765C5.89476 13.9232 5.76386 13.2231 5.76386 12.4998C5.76386 11.7764 5.89476 11.0765 6.10905 10.4231L6.10306 10.284L2.75435 7.73535L2.64478 7.78642C1.91862 9.20977 1.50195 10.8081 1.50195 12.4998C1.50195 14.1915 1.91862 15.7897 2.64478 17.2131L6.12095 14.5765Z" fill="#FBBC05"/>
<path d="M12.2141 6.05997C14.2259 6.05997 15.583 6.91163 16.3569 7.62335L19.3807 4.73C17.5236 3.03834 15.1069 2 12.2141 2C8.02353 2 4.40447 4.35665 2.64258 7.78662L6.10686 10.4233C6.97598 7.89166 9.38073 6.05997 12.2141 6.05997Z" fill="#EB4335"/>
</svg>
