<svg width="70" height="61" viewBox="0 0 70 61" fill="none" xmlns="http://www.w3.org/2000/svg">
<path d="M0.0162811 16.686C0.0162811 16.6784 0.0154533 16.6708 0.0154533 16.6632C0.0154533 7.46028 7.47573 0 16.6787 0C25.8817 0 33.3418 7.46014 33.3418 16.6632C33.3418 25.8663 25.8808 33.3265 16.6786 33.3265C14.7872 33.3265 12.9767 32.9968 11.2827 32.4159C15.0316 53.9225 31.8028 67.792 16.2561 56.3771C-0.982925 43.7192 -0.0030098 17.1717 0.0162811 16.686Z" fill="#FACD01"/>
<path d="M53.3368 33.3263C51.4454 33.3263 49.6349 32.9966 47.9401 32.4157C51.69 53.9223 68.4611 67.7919 52.9143 56.3769C35.6753 43.7192 36.6551 17.1717 36.6745 16.686C36.6745 16.6784 36.6737 16.6708 36.6737 16.6632C36.6737 7.46028 44.1338 0 53.3368 0C62.5399 0 70 7.46014 70 16.6632C70 25.8663 62.539 33.3263 53.3368 33.3263Z" fill="#FACD01"/>
</svg>
