<svg width="24" height="24" viewBox="0 0 24 24" fill="none" xmlns="http://www.w3.org/2000/svg">
<path d="M2.25 5.25H3.75V20.61C3.75198 21.3096 4.03076 21.9799 4.52542 22.4746C5.02009 22.9692 5.69044 23.248 6.39 23.25H17.64C18.3343 23.2402 18.997 22.9579 19.4852 22.4641C19.9735 21.9703 20.2481 21.3044 20.25 20.61V5.25H21.75C21.9489 5.25 22.1397 5.17098 22.2803 5.03033C22.421 4.88968 22.5 4.69891 22.5 4.5C22.5 4.30109 22.421 4.11032 22.2803 3.96967C22.1397 3.82902 21.9489 3.75 21.75 3.75H16.5V2.25C16.5001 1.85859 16.3472 1.48263 16.074 1.20238C15.8008 0.92213 15.4288 0.759785 15.0375 0.75H9C8.60218 0.75 8.22064 0.908035 7.93934 1.18934C7.65804 1.47064 7.5 1.85218 7.5 2.25V3.75H2.25C2.05109 3.75 1.86032 3.82902 1.71967 3.96967C1.57902 4.11032 1.5 4.30109 1.5 4.5C1.5 4.69891 1.57902 4.88968 1.71967 5.03033C1.86032 5.17098 2.05109 5.25 2.25 5.25ZM9 2.25H15V3.75H9V2.25ZM7.5 5.25H18.75V20.61C18.75 20.9123 18.6299 21.2023 18.4161 21.4161C18.2023 21.6299 17.9123 21.75 17.61 21.75H6.36C6.06288 21.7422 5.78057 21.6186 5.57322 21.4057C5.36588 21.1927 5.2499 20.9072 5.25 20.61V5.25H7.5Z" fill="#F50808"/>
<path d="M9.51172 18.75C9.71063 18.75 9.9014 18.671 10.042 18.5303C10.1827 18.3897 10.2617 18.1989 10.2617 18V9C10.2617 8.80109 10.1827 8.61032 10.042 8.46967C9.9014 8.32902 9.71063 8.25 9.51172 8.25C9.31281 8.25 9.12204 8.32902 8.98139 8.46967C8.84074 8.61032 8.76172 8.80109 8.76172 9V18C8.76172 18.1989 8.84074 18.3897 8.98139 18.5303C9.12204 18.671 9.31281 18.75 9.51172 18.75Z" fill="#F50808"/>
<path d="M14.4883 18.75C14.6872 18.75 14.878 18.671 15.0186 18.5303C15.1593 18.3897 15.2383 18.1989 15.2383 18V9C15.2383 8.80109 15.1593 8.61032 15.0186 8.46967C14.878 8.32902 14.6872 8.25 14.4883 8.25C14.2894 8.25 14.0986 8.32902 13.958 8.46967C13.8173 8.61032 13.7383 8.80109 13.7383 9V18C13.7383 18.1989 13.8173 18.3897 13.958 18.5303C14.0986 18.671 14.2894 18.75 14.4883 18.75Z" fill="#F50808"/>
</svg>
