<svg width="15" height="14" viewBox="0 0 15 14" fill="none" xmlns="http://www.w3.org/2000/svg">
<path d="M5.43138 13.3081C8.43106 13.3081 10.8628 10.8764 10.8628 7.8767C10.8628 4.87703 8.43106 2.44531 5.43138 2.44531C2.43171 2.44531 0 4.87703 0 7.8767C0 10.8764 2.43171 13.3081 5.43138 13.3081Z" fill="#B0EF8F"/>
<path d="M5.49201 12.0747L5.42312 11.9573C4.37081 10.1644 1.57444 6.3595 1.5462 6.32128L1.50586 6.26648L2.45857 5.32494L5.47432 7.43076C7.37312 4.96679 9.14457 3.27442 10.3001 2.28614C11.5641 1.20507 12.3869 0.707376 12.3952 0.702606L12.4139 0.691406H14.03L13.8756 0.828883C9.90549 4.36507 5.60229 11.8809 5.55943 11.9564L5.49201 12.0747Z" fill="#009045"/>
</svg>
