<svg width="25" height="24" viewBox="0 0 25 24" fill="none" xmlns="http://www.w3.org/2000/svg">
<g clip-path="url(#clip0_235_2219)">
<path d="M21.7499 24H3.25006C1.73303 24 0.5 22.767 0.5 21.2499V4.74994C0.5 3.23291 1.73303 2.00006 3.25006 2.00006H21.7499C23.267 2.00006 24.5 3.23291 24.5 4.74994V21.2499C24.5 22.767 23.267 24 21.7499 24ZM3.25006 3.50006C2.56104 3.50006 2 4.06091 2 4.74994V21.2499C2 21.939 2.56104 22.5 3.25006 22.5H21.7499C22.439 22.5 23 21.939 23 21.2499V4.74994C23 4.06091 22.439 3.50006 21.7499 3.50006H3.25006Z" fill="#0E1D61"/>
<path d="M23.75 9.50006H1.25C0.835999 9.50006 0.5 9.16406 0.5 8.75006C0.5 8.33606 0.835999 8.00006 1.25 8.00006H23.75C24.164 8.00006 24.5 8.33606 24.5 8.75006C24.5 9.16406 24.164 9.50006 23.75 9.50006Z" fill="#0E1D61"/>
<path d="M6.25 6C5.836 6 5.5 5.664 5.5 5.25V0.75C5.5 0.335999 5.836 0 6.25 0C6.664 0 7 0.335999 7 0.75V5.25C7 5.664 6.664 6 6.25 6Z" fill="#0E1D61"/>
<path d="M18.75 6C18.336 6 18 5.664 18 5.25V0.75C18 0.335999 18.336 0 18.75 0C19.164 0 19.5 0.335999 19.5 0.75V5.25C19.5 5.664 19.164 6 18.75 6Z" fill="#0E1D61"/>
</g>
<defs>
<clipPath id="clip0_235_2219">
<rect width="24" height="24" fill="white" transform="translate(0.5)"/>
</clipPath>
</defs>
</svg>
