<svg width="414" height="350" viewBox="0 0 414 350" fill="none" xmlns="http://www.w3.org/2000/svg">
<path d="M408.391 5.88988C408.561 6.00988 408.751 6.09988 408.941 6.17988C409.131 6.25988 409.331 6.32988 409.541 6.35988C409.741 6.40988 409.951 6.41988 410.161 6.41988C411.001 6.41988 411.821 6.07988 412.421 5.47988C413.021 4.88988 413.361 4.05988 413.361 3.21988C413.361 3.00988 413.341 2.79988 413.301 2.59988C413.261 2.38988 413.201 2.18988 413.121 1.99988C413.041 1.80988 412.951 1.62988 412.831 1.44988C412.711 1.27988 412.581 1.10988 412.431 0.959883C411.241 -0.230117 409.101 -0.230117 407.901 0.959883C407.311 1.55988 406.971 2.38988 406.971 3.22988C406.971 4.06988 407.311 4.88988 407.901 5.48988C408.051 5.63988 408.211 5.76988 408.391 5.88988Z" fill="#F77C5F"/>
<path d="M152.77 316.76C151.09 317.3 150.15 319.1 150.69 320.78C151.13 322.14 152.39 323 153.74 323C154.06 323 154.39 322.95 154.72 322.84C156.4 322.3 157.33 320.5 156.79 318.82C156.25 317.14 154.45 316.22 152.77 316.76Z" fill="#F77C5F"/>
<path d="M176.711 308.36C175.051 308.99 174.231 310.84 174.851 312.49C175.341 313.76 176.561 314.55 177.851 314.55C178.231 314.55 178.611 314.49 178.981 314.34C180.641 313.71 181.461 311.86 180.841 310.21C180.211 308.56 178.361 307.73 176.711 308.36Z" fill="#F77C5F"/>
<path d="M116.101 327.01C114.381 327.42 113.331 329.15 113.741 330.87C114.101 332.33 115.401 333.32 116.851 333.32C117.101 333.32 117.351 333.29 117.601 333.23C119.321 332.82 120.381 331.09 119.971 329.37C119.551 327.65 117.821 326.59 116.101 327.01Z" fill="#F77C5F"/>
<path d="M128.41 323.89C126.7 324.34 125.68 326.09 126.14 327.8C126.52 329.24 127.81 330.18 129.23 330.18C129.5 330.18 129.78 330.14 130.05 330.07C131.76 329.62 132.77 327.87 132.33 326.16C131.87 324.45 130.12 323.43 128.41 323.89Z" fill="#F77C5F"/>
<path d="M140.631 320.48C138.941 320.97 137.961 322.75 138.461 324.45C138.861 325.84 140.141 326.75 141.521 326.75C141.821 326.75 142.121 326.71 142.431 326.62C144.121 326.13 145.101 324.34 144.611 322.65C144.111 320.95 142.341 319.98 140.631 320.48Z" fill="#F77C5F"/>
<path d="M164.801 312.73C163.141 313.31 162.261 315.14 162.841 316.81C163.301 318.13 164.531 318.95 165.861 318.95C166.211 318.95 166.561 318.9 166.921 318.77C168.581 318.19 169.461 316.36 168.881 314.69C168.291 313.02 166.461 312.14 164.801 312.73Z" fill="#F77C5F"/>
<path d="M244.9 274.99C243.39 275.91 242.921 277.89 243.851 279.39C244.451 280.38 245.511 280.92 246.581 280.92C247.151 280.92 247.73 280.76 248.25 280.44C249.75 279.51 250.23 277.54 249.29 276.03C248.38 274.53 246.4 274.06 244.9 274.99Z" fill="#47AFC0"/>
<path d="M234.011 281.44C232.471 282.32 231.931 284.27 232.811 285.81C233.401 286.84 234.481 287.42 235.591 287.42C236.131 287.43 236.681 287.29 237.171 287.01C238.711 286.13 239.251 284.18 238.371 282.64C237.491 281.1 235.541 280.57 234.011 281.44Z" fill="#47AFC0"/>
<path d="M211.601 293.26C210.011 294.04 209.351 295.95 210.131 297.54C210.681 298.68 211.821 299.34 213.011 299.34C213.481 299.34 213.951 299.24 214.411 299.02C214.411 299.01 214.411 299.01 214.411 299.01C215.991 298.24 216.651 296.32 215.881 294.74C215.111 293.15 213.181 292.5 211.601 293.26Z" fill="#47AFC0"/>
<path d="M200.129 298.64C198.519 299.37 197.799 301.26 198.529 302.87C199.059 304.06 200.229 304.76 201.449 304.76C201.889 304.76 202.339 304.67 202.759 304.48C204.379 303.75 205.089 301.86 204.369 300.25C203.629 298.64 201.729 297.92 200.129 298.64Z" fill="#47AFC0"/>
<path d="M188.491 303.67C186.851 304.36 186.081 306.22 186.761 307.86C187.261 309.09 188.461 309.84 189.711 309.84C190.121 309.84 190.531 309.76 190.941 309.59C192.581 308.91 193.351 307.04 192.671 305.41C191.991 303.77 190.121 302.99 188.491 303.67Z" fill="#47AFC0"/>
<path d="M222.9 287.53C221.34 288.36 220.74 290.29 221.56 291.86C222.14 292.95 223.24 293.57 224.4 293.57C224.9 293.57 225.41 293.45 225.89 293.2C227.45 292.37 228.05 290.44 227.23 288.87C226.4 287.31 224.46 286.71 222.9 287.53Z" fill="#47AFC0"/>
<path d="M3.01022 343.31C1.24022 343.41 -0.0997783 344.93 0.0102217 346.69C0.110222 348.39 1.52022 349.7 3.20022 349.7C3.26022 349.7 3.33022 349.7 3.39022 349.69C5.15022 349.59 6.50022 348.07 6.39022 346.31C6.29022 344.54 4.77022 343.2 3.01022 343.31Z" fill="#FAA44A"/>
<path d="M91.2798 332.39C89.5398 332.73 88.4098 334.41 88.7498 336.15C89.0498 337.68 90.3898 338.74 91.8898 338.74C92.0898 338.74 92.2998 338.72 92.5098 338.69C92.4998 338.69 92.4998 338.69 92.4998 338.69C94.2398 338.35 95.3698 336.67 95.0298 334.94C94.6998 333.19 93.0098 332.06 91.2798 332.39Z" fill="#F77C5F"/>
<path d="M15.7003 342.43C13.9303 342.57 12.6203 344.1 12.7603 345.87C12.8903 347.54 14.3003 348.82 15.9503 348.82C16.0303 348.82 16.1103 348.82 16.2003 348.81C17.9603 348.67 19.2803 347.14 19.1403 345.37C19.0003 343.61 17.4603 342.29 15.7003 342.43Z" fill="#FAA44A"/>
<path d="M78.78 334.68C77.04 334.98 75.87 336.63 76.17 338.37C76.43 339.92 77.79 341.03 79.32 341.03C79.5 341.03 79.69 341.01 79.87 340.98C81.62 340.68 82.78 339.02 82.49 337.28C82.18 335.55 80.52 334.38 78.78 334.68Z" fill="#F77C5F"/>
<path d="M66.2293 336.71C64.4793 336.98 63.2893 338.6 63.5493 340.35C63.7893 341.93 65.1493 343.07 66.7093 343.07C66.8693 343.07 67.0293 343.05 67.1893 343.03C68.9493 342.77 70.1393 341.13 69.8793 339.38C69.6093 337.65 67.9793 336.44 66.2293 336.71Z" fill="#F77C5F"/>
<path d="M28.3801 341.34C26.6101 341.5 25.3301 343.07 25.4901 344.82C25.6501 346.48 27.0401 347.73 28.6801 347.73C28.7801 347.73 28.8801 347.72 28.9801 347.71C30.7401 347.55 32.0301 345.98 31.8601 344.23C31.6901 342.47 30.1301 341.18 28.3801 341.34Z" fill="#FAA44A"/>
<path d="M53.6409 338.49C51.8909 338.73 50.6609 340.33 50.8909 342.08C51.1009 343.69 52.4709 344.86 54.0609 344.86C54.2009 344.86 54.3309 344.85 54.4809 344.83C56.2309 344.6 57.4609 342.99 57.2309 341.24C57.0109 339.49 55.4009 338.26 53.6409 338.49Z" fill="#F77C5F"/>
<path d="M41.0208 340.03C39.2608 340.22 38.0008 341.81 38.1908 343.57C38.3808 345.21 39.7608 346.41 41.3708 346.41C41.4908 346.41 41.6108 346.4 41.7308 346.39C41.7308 346.38 41.7308 346.38 41.7308 346.38C43.5008 346.19 44.7608 344.6 44.5608 342.84C44.3608 341.09 42.7808 339.83 41.0208 340.03Z" fill="#F77C5F"/>
<path d="M103.72 329.84C101.99 330.22 100.89 331.92 101.27 333.64C101.59 335.14 102.92 336.16 104.4 336.16C104.62 336.16 104.85 336.14 105.08 336.09C106.81 335.71 107.91 334.01 107.53 332.29C107.15 330.56 105.45 329.46 103.72 329.84Z" fill="#F77C5F"/>
<path d="M255.561 268.17C254.091 269.15 253.681 271.13 254.661 272.61C255.281 273.54 256.301 274.05 257.331 274.05C257.941 274.05 258.561 273.88 259.091 273.51C260.571 272.53 260.971 270.55 259.991 269.07C259.021 267.59 257.041 267.19 255.561 268.17Z" fill="#F77C5F"/>
<path d="M386.21 112.14C384.56 111.47 382.7 112.26 382.03 113.9C381.36 115.54 382.15 117.4 383.79 118.07C384.19 118.23 384.59 118.31 385 118.31C386.26 118.31 387.46 117.56 387.97 116.32C388.64 114.67 387.85 112.81 386.21 112.14Z" fill="#4C6581"/>
<path d="M398.44 75.7699C396.74 75.2899 394.96 76.2599 394.48 77.9599C393.99 79.6599 394.96 81.4399 396.67 81.9199C396.97 81.9999 397.26 82.0499 397.56 82.0499C398.95 82.0499 400.23 81.1399 400.63 79.7299C401.12 78.0299 400.13 76.2499 398.44 75.7699Z" fill="#4C6581"/>
<path d="M394.791 88.0399C393.111 87.4899 391.311 88.4099 390.761 90.0899C390.211 91.7699 391.131 93.5699 392.811 94.1199C393.141 94.2299 393.481 94.2799 393.811 94.2799C395.161 94.2799 396.411 93.4299 396.851 92.0799C397.391 90.3899 396.481 88.5799 394.791 88.0399Z" fill="#4C6581"/>
<path d="M370.139 146.96C368.589 146.12 366.639 146.69 365.799 148.24C364.959 149.8 365.529 151.74 367.089 152.58C367.569 152.84 368.099 152.97 368.619 152.97C369.749 152.97 370.849 152.36 371.429 151.29C372.269 149.75 371.689 147.8 370.139 146.96Z" fill="#4C6581"/>
<path d="M381.281 123.94C379.671 123.22 377.781 123.93 377.051 125.55C376.331 127.16 377.041 129.05 378.651 129.78C379.081 129.97 379.531 130.06 379.971 130.06C381.201 130.06 382.361 129.36 382.891 128.17C383.611 126.56 382.891 124.67 381.281 123.94Z" fill="#4C6581"/>
<path d="M375.921 135.55C374.341 134.76 372.421 135.41 371.631 137C370.841 138.58 371.491 140.5 373.081 141.29C373.541 141.52 374.021 141.63 374.501 141.63C375.681 141.63 376.811 140.97 377.371 139.85C378.151 138.26 377.501 136.34 375.921 135.55Z" fill="#4C6581"/>
<path d="M409.751 12.7999C407.991 12.6399 406.441 13.9499 406.291 15.7099C406.131 17.4699 407.441 19.0199 409.201 19.1799C409.301 19.1899 409.391 19.1899 409.481 19.1899C411.131 19.1899 412.521 17.9299 412.661 16.2599C412.811 14.4899 411.511 12.9499 409.751 12.7999Z" fill="#F77C5F"/>
<path d="M401.641 63.3799C399.921 62.9499 398.181 63.9899 397.761 65.7099C397.331 67.4199 398.371 69.1599 400.091 69.5899C400.351 69.6499 400.611 69.6899 400.871 69.6899C402.301 69.6899 403.601 68.7099 403.971 67.2599C404.411 65.5399 403.361 63.7999 401.641 63.3799Z" fill="#4C6581"/>
<path d="M408.49 25.57C406.74 25.34 405.13 26.58 404.91 28.32C404.68 30.08 405.91 31.69 407.66 31.91C407.81 31.93 407.94 31.94 408.08 31.94C409.66 31.94 411.03 30.77 411.25 29.16C411.48 27.41 410.25 25.8 408.49 25.57Z" fill="#F77C5F"/>
<path d="M404.4 50.87C402.67 50.5 400.97 51.61 400.61 53.35C400.24 55.08 401.35 56.77 403.08 57.14C403.3 57.19 403.53 57.21 403.75 57.21C405.23 57.21 406.56 56.18 406.88 54.67C407.24 52.93 406.12 51.23 404.4 50.87Z" fill="#4C6581"/>
<path d="M406.69 38.2598C404.95 37.9598 403.3 39.1298 403 40.8698C402.7 42.6198 403.87 44.2698 405.61 44.5698C405.79 44.5998 405.97 44.6198 406.15 44.6198C407.68 44.6198 409.03 43.5198 409.31 41.9598C409.61 40.2198 408.44 38.5698 406.69 38.2598Z" fill="#4C6581"/>
<path d="M390.71 100.17C389.06 99.5598 387.221 100.42 386.601 102.07C386.001 103.73 386.851 105.57 388.511 106.18C388.871 106.32 389.24 106.38 389.61 106.38C390.92 106.38 392.14 105.57 392.62 104.28C393.23 102.61 392.38 100.77 390.71 100.17Z" fill="#4C6581"/>
<path d="M286.019 245.52C284.659 246.65 284.469 248.67 285.609 250.03C286.239 250.79 287.159 251.18 288.069 251.18C288.789 251.18 289.509 250.93 290.119 250.44C291.469 249.31 291.659 247.28 290.529 245.93C289.389 244.56 287.369 244.38 286.019 245.52Z" fill="#3085B3"/>
<path d="M295.579 237.24C294.259 238.42 294.149 240.44 295.339 241.76C295.969 242.46 296.84 242.82 297.72 242.82C298.49 242.82 299.249 242.55 299.859 242.01C301.179 240.82 301.289 238.8 300.109 237.48C298.919 236.17 296.899 236.06 295.579 237.24Z" fill="#3085B3"/>
<path d="M304.84 228.61C303.57 229.85 303.54 231.87 304.77 233.14C305.4 233.79 306.23 234.12 307.07 234.12C307.87 234.12 308.67 233.82 309.29 233.21C310.56 231.98 310.6 229.95 309.36 228.68C308.14 227.42 306.11 227.38 304.84 228.61Z" fill="#3085B3"/>
<path d="M276.141 253.43C274.741 254.51 274.481 256.52 275.561 257.92C276.191 258.73 277.141 259.16 278.091 259.16C278.781 259.16 279.461 258.94 280.051 258.49C281.451 257.41 281.711 255.4 280.631 254C279.551 252.6 277.541 252.35 276.141 253.43Z" fill="#F77C5F"/>
<path d="M313.771 219.64C312.541 220.91 312.591 222.93 313.871 224.16C314.481 224.75 315.291 225.05 316.081 225.05C316.921 225.05 317.761 224.72 318.391 224.07C319.611 222.79 319.561 220.76 318.291 219.54C317.011 218.32 314.991 218.36 313.771 219.64Z" fill="#3085B3"/>
<path d="M265.991 260.98C264.541 262.01 264.221 264.01 265.251 265.44C265.871 266.32 266.861 266.78 267.861 266.78C268.501 266.78 269.151 266.58 269.721 266.18C271.161 265.16 271.491 263.15 270.461 261.72C269.421 260.29 267.431 259.96 265.991 260.98Z" fill="#F77C5F"/>
<path d="M330.551 200.7C329.431 202.07 329.631 204.08 331.001 205.21C331.591 205.7 332.321 205.93 333.031 205.93C333.951 205.93 334.871 205.53 335.501 204.76C336.631 203.4 336.421 201.38 335.061 200.26C333.681 199.14 331.671 199.34 330.551 200.7Z" fill="#3085B3"/>
<path d="M350.291 179.75C348.841 178.73 346.851 179.09 345.841 180.54C344.821 181.99 345.181 183.99 346.631 184.99C347.191 185.38 347.831 185.57 348.461 185.57C349.481 185.57 350.461 185.09 351.091 184.2C352.091 182.76 351.751 180.77 350.291 179.75Z" fill="#F77C5F"/>
<path d="M357.321 169.07C355.841 168.12 353.851 168.54 352.901 170.03C351.941 171.51 352.371 173.5 353.851 174.46C354.391 174.8 354.991 174.97 355.581 174.97C356.631 174.97 357.671 174.45 358.281 173.5C359.241 172.01 358.811 170.03 357.321 169.07Z" fill="#F77C5F"/>
<path d="M363.94 158.13C362.41 157.23 360.46 157.74 359.55 159.25C358.65 160.77 359.16 162.73 360.68 163.64C361.19 163.94 361.75 164.09 362.31 164.09C363.41 164.09 364.47 163.52 365.07 162.52C365.96 160.99 365.45 159.04 363.94 158.13Z" fill="#4C6581"/>
<path d="M342.871 190.15C341.471 189.08 339.461 189.36 338.391 190.77C337.321 192.18 337.601 194.18 339.011 195.25C339.591 195.69 340.261 195.9 340.941 195.9C341.911 195.9 342.861 195.46 343.491 194.64C344.561 193.22 344.281 191.22 342.871 190.15Z" fill="#F77C5F"/>
<path d="M322.33 210.33C321.16 211.65 321.28 213.68 322.6 214.85C323.21 215.39 323.97 215.66 324.72 215.66C325.61 215.66 326.48 215.29 327.12 214.58C328.29 213.26 328.17 211.23 326.84 210.06C325.54 208.89 323.51 209.01 322.33 210.33Z" fill="#3085B3"/>
</svg>
