<svg width="70" height="70" viewBox="0 0 70 70" fill="none" xmlns="http://www.w3.org/2000/svg">
<g clip-path="url(#clip0_562_9254)">
<path d="M35.0001 14.4287C23.657 14.4287 14.4287 23.6571 14.4287 35.0001C14.4287 46.3431 23.657 55.5715 35.0001 55.5715C46.3432 55.5715 55.5715 46.3432 55.5715 35.0001C55.5715 23.657 46.3432 14.4287 35.0001 14.4287ZM36.574 41.9347V44.0524H33.8841V42.03C31.9763 41.9156 30.1257 41.4006 28.9811 40.6946L30.431 37.4132C31.69 38.1572 33.3689 38.6342 34.8379 38.6342C36.1161 38.6342 36.574 38.3671 36.574 37.9092C36.574 36.2304 29.1909 37.5849 29.1909 32.6056C29.1909 30.4497 30.7553 28.6373 33.8841 28.1986V26.1191H36.574V28.1605C37.9858 28.294 39.3594 28.6565 40.4468 29.2671L39.0922 32.5293C37.7759 31.8616 36.5359 31.5373 35.3721 31.5373C34.0558 31.5373 33.6361 31.9187 33.6361 32.3767C33.6361 33.9794 41.0191 32.6437 41.0191 37.5659C41.0191 39.6262 39.5311 41.4196 36.574 41.9347Z" fill="#72C3D5"/>
<path d="M69.7917 31.1968L65.7121 31.6477C66.4749 38.5492 64.8413 45.6043 61.1119 51.5136C57.3308 57.5043 51.5417 62.0453 44.8106 64.2999C41.5883 65.3792 38.2781 65.8963 34.9995 65.896C25.5357 65.8954 16.3511 61.5843 10.4157 54.0493H14.4796V49.9447H3.50488V61.425H7.60945V57.1018C11.5234 61.8674 16.7105 65.5836 22.5998 67.7759C26.5793 69.2574 30.7773 70 34.9699 70C38.7435 70 42.5131 69.3982 46.1142 68.1921C53.7395 65.6379 60.2984 60.4927 64.5826 53.7044C68.8064 47.012 70.6565 39.0187 69.7917 31.1968Z" fill="#72C3D5"/>
<path d="M8.74327 18.7434C12.524 12.6349 18.3644 8.01193 25.1888 5.72586C31.8345 3.49994 38.8256 3.57062 45.407 5.93094C50.5464 7.77418 55.1282 10.9741 58.6235 15.1082L54.7119 15.1068L54.7106 19.2114L65.8069 19.2151V8.24818H61.7024V12.3942C57.75 7.74383 52.5835 4.14416 46.7926 2.06726C39.3352 -0.607091 31.4138 -0.687892 23.8853 1.83389C16.1542 4.42348 9.53733 9.66158 5.25325 16.5831C1.02495 23.4147 -0.739819 31.541 0.283931 39.465L4.35459 38.9391C3.45129 31.9476 5.00989 24.7753 8.74327 18.7434Z" fill="#72C3D5"/>
</g>
<defs>
<clipPath id="clip0_562_9254">
<rect width="70" height="70" fill="white"/>
</clipPath>
</defs>
</svg>
