<svg width="32" height="32" viewBox="0 0 32 32" fill="none" xmlns="http://www.w3.org/2000/svg">
<path fill-rule="evenodd" clip-rule="evenodd" d="M30 9.33333C30 8.44933 29.6493 7.60133 29.024 6.976C28.3987 6.35067 27.5507 6 26.6667 6C21.5573 6 10.4427 6 5.33333 6C4.44933 6 3.60133 6.35067 2.976 6.976C2.35067 7.60133 2 8.44933 2 9.33333V22.6667C2 23.5507 2.35067 24.3987 2.976 25.024C3.60133 25.6493 4.44933 26 5.33333 26H26.6667C27.5507 26 28.3987 25.6493 29.024 25.024C29.6493 24.3987 30 23.5507 30 22.6667V9.33333Z" fill="#585858"/>
<path fill-rule="evenodd" clip-rule="evenodd" d="M2 11.333H30V12.6663H2V11.333Z" fill="#5D9CEC"/>
<path fill-rule="evenodd" clip-rule="evenodd" d="M12 17.333H6.61198C6.24398 17.333 5.94531 17.6317 5.94531 17.9997C5.94531 18.3677 6.24398 18.6663 6.61198 18.6663H12C12.368 18.6663 12.6666 18.3677 12.6666 17.9997C12.6666 17.6317 12.368 17.333 12 17.333Z" fill="#E7E7E7"/>
<path fill-rule="evenodd" clip-rule="evenodd" d="M12 20.667H6.61198C6.24398 20.667 5.94531 20.9657 5.94531 21.3337C5.94531 21.7017 6.24398 22.0003 6.61198 22.0003H12C12.368 22.0003 12.6666 21.7017 12.6666 21.3337C12.6666 20.9657 12.368 20.667 12 20.667Z" fill="#E7E7E7"/>
<path fill-rule="evenodd" clip-rule="evenodd" d="M26.0026 20.6667V18C26.0026 16.896 25.1066 16 24.0026 16H21.3359C20.2319 16 19.3359 16.896 19.3359 18V20.6667C19.3359 21.7707 20.2319 22.6667 21.3359 22.6667H24.0026C25.1066 22.6667 26.0026 21.7707 26.0026 20.6667Z" fill="#F6BB42"/>
</svg>
