<svg width="32" height="22" viewBox="0 0 32 22" fill="none" xmlns="http://www.w3.org/2000/svg">
<g clip-path="url(#clip0_279_5482)">
<path d="M0 2.99967C0 1.52692 1.19391 0.333008 2.66667 0.333008H29.3333C30.8061 0.333008 32 1.52692 32 2.99967V18.9997C32 20.4724 30.8061 21.6663 29.3333 21.6663H2.66667C1.19391 21.6663 0 20.4724 0 18.9997V2.99967Z" fill="#FDEACE"/>
<path d="M19.3392 4.68433L12.4531 4.70801L12.6618 17.3146L19.5478 17.2909L19.3392 4.68433Z" fill="#FF5F00"/>
<path d="M12.9064 11.0371C12.8638 8.47305 14.0124 6.19477 15.8115 4.71697C14.4535 3.65134 12.751 3.01054 10.9055 3.01686C6.53336 3.03183 3.05575 6.63365 3.12948 11.0706C3.20321 15.5076 6.80014 19.0852 11.1723 19.0702C13.0178 19.0639 14.6988 18.4115 16.0212 17.3367C14.1736 15.8936 12.949 13.6012 12.9064 11.0371Z" fill="#EB001B"/>
<path d="M28.8734 10.9292C28.9471 15.3661 25.4695 18.9679 21.0974 18.9829C19.2518 18.9892 17.5494 18.3484 16.1914 17.2828C18.0124 15.8049 19.1391 13.5267 19.0965 10.9626C19.0539 8.39857 17.8297 6.12841 15.9817 4.66311C17.3041 3.58829 18.9851 2.9359 20.8306 2.92958C25.2028 2.91461 28.8 6.51449 28.8734 10.9292Z" fill="#F79E1B"/>
</g>
<defs>
<clipPath id="clip0_279_5482">
<rect width="32" height="21.3333" fill="white" transform="translate(0 0.333008)"/>
</clipPath>
</defs>
</svg>
