<svg width="19" height="24" viewBox="0 0 19 24" fill="none" xmlns="http://www.w3.org/2000/svg">
<path d="M12.8906 16.875H11.7188V16.0171C11.7188 15.616 11.9267 15.2447 12.275 15.0239C13.9813 13.9422 15 12.0933 15 10.0781C15 6.84727 12.3715 4.21875 9.14062 4.21875C5.90977 4.21875 3.28125 6.84727 3.28125 10.0781C3.28125 12.0933 4.29994 13.9422 6.00623 15.0239C6.35456 15.2447 6.5625 15.616 6.5625 16.0171V16.875H5.39062C2.41823 16.875 0 19.2932 0 22.2656V23.2969C0 23.6852 0.314812 24 0.703125 24H17.5781C17.9664 24 18.2812 23.6852 18.2812 23.2969V22.2656C18.2812 19.2932 15.863 16.875 12.8906 16.875ZM4.6875 10.0781C4.6875 7.62267 6.68517 5.625 9.14062 5.625C11.5961 5.625 13.5938 7.62267 13.5938 10.0781C13.5938 11.6089 12.8193 13.0139 11.5221 13.8362C10.9245 14.215 10.5181 14.8028 10.3727 15.4688H9.84375V11.7756L11.044 10.5753C11.3186 10.3007 11.3186 9.85556 11.044 9.58097C10.7695 9.30638 10.3243 9.30638 10.0497 9.58097L9.14062 10.49L8.23153 9.58097C7.95698 9.30638 7.51177 9.30638 7.23717 9.58097C6.96258 9.85556 6.96258 10.3007 7.23717 10.5753L8.4375 11.7756V15.4688H7.90856C7.76316 14.8028 7.35675 14.2151 6.75919 13.8362C5.46197 13.0139 4.6875 11.6089 4.6875 10.0781ZM10.3125 16.875V17.5781C10.3125 18.2243 9.7868 18.75 9.14062 18.75C8.49445 18.75 7.96875 18.2243 7.96875 17.5781V16.875H10.3125ZM16.875 22.5938H1.40625V22.2656C1.40625 20.0686 3.19364 18.2812 5.39062 18.2812H6.66075C6.96764 19.362 7.9628 20.1562 9.14062 20.1562C10.3185 20.1562 11.3136 19.362 11.6205 18.2812H12.8906C15.0876 18.2812 16.875 20.0686 16.875 22.2656V22.5938Z" fill="white"/>
<path d="M9.14062 2.8125C9.52894 2.8125 9.84375 2.49769 9.84375 2.10938V0.703125C9.84375 0.314812 9.52894 0 9.14062 0C8.75231 0 8.4375 0.314812 8.4375 0.703125V2.10938C8.4375 2.49769 8.75231 2.8125 9.14062 2.8125Z" fill="white"/>
<path d="M4.54744 3.5285C4.7416 3.86478 5.17163 3.98 5.50791 3.78585C5.84419 3.59169 5.95941 3.16166 5.76525 2.82538L5.06213 1.60752C4.86797 1.27124 4.43794 1.15602 4.10166 1.35018C3.76538 1.54433 3.65016 1.97436 3.84432 2.31064L4.54744 3.5285Z" fill="white"/>
<path d="M0.670019 5.99951L1.88788 6.70263C2.22416 6.89679 2.65419 6.78157 2.84835 6.44529C3.0425 6.10901 2.92728 5.67898 2.591 5.48482L1.37314 4.78169C1.03686 4.58754 0.606832 4.70276 0.412675 5.03904C0.218519 5.37532 0.333738 5.80535 0.670019 5.99951Z" fill="white"/>
<path d="M15.4322 6.44529C15.6264 6.78157 16.0564 6.89679 16.3927 6.70263L17.6105 5.99951C17.9468 5.80535 18.062 5.37532 17.8679 5.03904C17.6737 4.70276 17.2437 4.58754 16.9074 4.78169L15.6896 5.48482C15.3533 5.67898 15.2381 6.10901 15.4322 6.44529Z" fill="white"/>
<path d="M12.7735 3.78585C13.1098 3.98 13.5398 3.86478 13.734 3.5285L14.4371 2.31064C14.6313 1.97436 14.5161 1.54433 14.1798 1.35018C13.8435 1.15602 13.4135 1.27124 13.2193 1.60752L12.5162 2.82538C12.322 3.16166 12.4373 3.59169 12.7735 3.78585Z" fill="white"/>
</svg>
