<svg width="16" height="16" viewBox="0 0 16 16" fill="none" xmlns="http://www.w3.org/2000/svg">
<path d="M8 16C12.4107 16 16 12.4107 16 8C16 3.58934 12.4107 0 8 0C3.5893 0 0 3.58934 0 8C0 12.4107 3.58934 16 8 16ZM8 1.06665C11.824 1.06665 14.9334 4.17597 14.9334 8C14.9334 11.824 11.824 14.9334 8 14.9334C4.17597 14.9334 1.06665 11.824 1.06665 8C1.06665 4.17597 4.17602 1.06665 8 1.06665Z" fill="#7A7A7A"/>
<path d="M10.3335 10.5493C10.4321 10.6293 10.5494 10.6667 10.6668 10.6667C10.8241 10.6667 10.9788 10.5974 11.0828 10.4667C11.2668 10.2373 11.2294 9.90135 11.0001 9.71734L8.53345 7.744V3.73334C8.53345 3.44 8.29346 3.20001 8.00012 3.20001C7.70678 3.20001 7.4668 3.44 7.4668 3.73334V8.00002C7.4668 8.1627 7.54148 8.31469 7.66679 8.416L10.3335 10.5493Z" fill="#7A7A7A"/>
</svg>
