<svg width="48" height="48" viewBox="0 0 48 48" fill="none" xmlns="http://www.w3.org/2000/svg">
<path fill-rule="evenodd" clip-rule="evenodd" d="M28.8431 43.6152C28.8431 41.9562 27.4982 40.6113 25.8392 40.6113H22.1608C21.3641 40.6113 20.6001 40.9278 20.0367 41.4911C19.4734 42.0545 19.1569 42.8185 19.1569 43.6152C19.1569 45.2742 20.5018 46.6192 22.1608 46.6192H25.8392C27.4982 46.6192 28.8431 45.2742 28.8431 43.6152ZM6.31509 35.8693C6.81684 35.9077 7.42388 35.9297 8.03362 35.894C8.35847 37.5414 9.16547 39.0693 10.3701 40.274C11.9692 41.8731 14.1382 42.7715 16.3997 42.7715H17.5459C17.4953 43.048 17.4694 43.3303 17.4694 43.6152C17.4694 43.9033 17.4953 44.1854 17.5451 44.459H16.3997C13.6906 44.459 11.0924 43.3828 9.17681 41.4672C7.64859 39.9389 6.65456 37.9763 6.31509 35.8693ZM5.45672 34.0737C4.12444 33.8491 2.88469 33.2157 1.91691 32.2479C0.689531 31.0205 0 29.3558 0 27.62V23.6316C0 21.8958 0.689531 20.2311 1.91691 19.0037C3.14428 17.7763 4.809 17.0867 6.54478 17.0867H6.98044C7.67681 8.29708 15.0308 1.38086 24 1.38086C32.9692 1.38086 40.3232 8.29708 41.0196 17.0867H41.4552C43.191 17.0867 44.8557 17.7763 46.0831 19.0037C47.3105 20.2311 48 21.8958 48 23.6316V27.62C48 29.3558 47.3105 31.0205 46.0831 32.2479C44.8557 33.4753 43.191 34.1649 41.4552 34.1649H39.5239C38.7229 34.1649 38.0736 33.5155 38.0736 32.7145V18.4544C38.0736 10.6818 31.7726 4.38086 24 4.38086C16.2274 4.38086 9.92644 10.6818 9.92644 18.4544V32.7145C9.92644 33.28 9.60272 33.7701 9.13041 34.0092C7.83028 34.4604 5.814 34.134 5.45672 34.0737Z" fill="white"/>
</svg>
