<svg width="60" height="60" viewBox="0 0 60 60" fill="none" xmlns="http://www.w3.org/2000/svg">
<g clip-path="url(#clip0_516_8152)">
<path d="M26.2622 35.6207L36.0208 30.0003L26.2622 24.3799V35.6207Z" fill="#B1B1B1"/>
<path d="M30 0C13.434 0 0 13.434 0 30C0 46.566 13.434 60 30 60C46.566 60 60 46.566 60 30C60 13.434 46.566 0 30 0ZM48.7454 30.0307C48.7454 30.0307 48.7454 36.1148 47.9736 39.0486C47.541 40.6544 46.2749 41.9206 44.669 42.3528C41.7352 43.125 30 43.125 30 43.125C30 43.125 18.2954 43.125 15.331 42.3221C13.7251 41.89 12.459 40.6233 12.0264 39.0175C11.2541 36.1148 11.2541 30 11.2541 30C11.2541 30 11.2541 23.9163 12.0264 20.9825C12.4585 19.3767 13.7558 18.0794 15.331 17.6472C18.2648 16.875 30 16.875 30 16.875C30 16.875 41.7352 16.875 44.669 17.6779C46.2749 18.11 47.541 19.3767 47.9736 20.9825C48.7766 23.9163 48.7454 30.0307 48.7454 30.0307Z" fill="#B1B1B1"/>
</g>
<defs>
<clipPath id="clip0_516_8152">
<rect width="60" height="60" fill="white"/>
</clipPath>
</defs>
</svg>
